G75*
G70*
%OFA0B0*%
%FSLAX24Y24*%
%IPPOS*%
%LPD*%
%AMOC8*
5,1,8,0,0,1.08239X$1,22.5*
%
%ADD10C,0.0000*%
%ADD11C,0.0020*%
%ADD12C,0.0100*%
%ADD13C,0.0070*%
%ADD14C,0.0060*%
%ADD15C,0.0030*%
%ADD16C,0.0050*%
%ADD17C,0.0010*%
%ADD18C,0.0039*%
%ADD19C,0.0079*%
D10*
X002631Y002862D02*
X002631Y022429D01*
X020662Y022429D01*
X020662Y010421D01*
X021686Y009398D01*
X021686Y002862D01*
X002631Y002862D01*
X002847Y006917D02*
X002849Y006948D01*
X002855Y006979D01*
X002864Y007009D01*
X002877Y007038D01*
X002894Y007065D01*
X002914Y007089D01*
X002936Y007111D01*
X002962Y007130D01*
X002989Y007146D01*
X003018Y007158D01*
X003048Y007167D01*
X003079Y007172D01*
X003111Y007173D01*
X003142Y007170D01*
X003173Y007163D01*
X003203Y007153D01*
X003231Y007139D01*
X003257Y007121D01*
X003281Y007101D01*
X003302Y007077D01*
X003321Y007052D01*
X003336Y007024D01*
X003347Y006995D01*
X003355Y006964D01*
X003359Y006933D01*
X003359Y006901D01*
X003355Y006870D01*
X003347Y006839D01*
X003336Y006810D01*
X003321Y006782D01*
X003302Y006757D01*
X003281Y006733D01*
X003257Y006713D01*
X003231Y006695D01*
X003203Y006681D01*
X003173Y006671D01*
X003142Y006664D01*
X003111Y006661D01*
X003079Y006662D01*
X003048Y006667D01*
X003018Y006676D01*
X002989Y006688D01*
X002962Y006704D01*
X002936Y006723D01*
X002914Y006745D01*
X002894Y006769D01*
X002877Y006796D01*
X002864Y006825D01*
X002855Y006855D01*
X002849Y006886D01*
X002847Y006917D01*
X002847Y007980D02*
X002849Y008011D01*
X002855Y008042D01*
X002864Y008072D01*
X002877Y008101D01*
X002894Y008128D01*
X002914Y008152D01*
X002936Y008174D01*
X002962Y008193D01*
X002989Y008209D01*
X003018Y008221D01*
X003048Y008230D01*
X003079Y008235D01*
X003111Y008236D01*
X003142Y008233D01*
X003173Y008226D01*
X003203Y008216D01*
X003231Y008202D01*
X003257Y008184D01*
X003281Y008164D01*
X003302Y008140D01*
X003321Y008115D01*
X003336Y008087D01*
X003347Y008058D01*
X003355Y008027D01*
X003359Y007996D01*
X003359Y007964D01*
X003355Y007933D01*
X003347Y007902D01*
X003336Y007873D01*
X003321Y007845D01*
X003302Y007820D01*
X003281Y007796D01*
X003257Y007776D01*
X003231Y007758D01*
X003203Y007744D01*
X003173Y007734D01*
X003142Y007727D01*
X003111Y007724D01*
X003079Y007725D01*
X003048Y007730D01*
X003018Y007739D01*
X002989Y007751D01*
X002962Y007767D01*
X002936Y007786D01*
X002914Y007808D01*
X002894Y007832D01*
X002877Y007859D01*
X002864Y007888D01*
X002855Y007918D01*
X002849Y007949D01*
X002847Y007980D01*
X003319Y021012D02*
X003321Y021062D01*
X003327Y021112D01*
X003337Y021162D01*
X003350Y021210D01*
X003367Y021258D01*
X003388Y021304D01*
X003412Y021348D01*
X003440Y021390D01*
X003471Y021430D01*
X003505Y021467D01*
X003542Y021502D01*
X003581Y021533D01*
X003622Y021562D01*
X003666Y021587D01*
X003712Y021609D01*
X003759Y021627D01*
X003807Y021641D01*
X003856Y021652D01*
X003906Y021659D01*
X003956Y021662D01*
X004007Y021661D01*
X004057Y021656D01*
X004107Y021647D01*
X004155Y021635D01*
X004203Y021618D01*
X004249Y021598D01*
X004294Y021575D01*
X004337Y021548D01*
X004377Y021518D01*
X004415Y021485D01*
X004450Y021449D01*
X004483Y021410D01*
X004512Y021369D01*
X004538Y021326D01*
X004561Y021281D01*
X004580Y021234D01*
X004595Y021186D01*
X004607Y021137D01*
X004615Y021087D01*
X004619Y021037D01*
X004619Y020987D01*
X004615Y020937D01*
X004607Y020887D01*
X004595Y020838D01*
X004580Y020790D01*
X004561Y020743D01*
X004538Y020698D01*
X004512Y020655D01*
X004483Y020614D01*
X004450Y020575D01*
X004415Y020539D01*
X004377Y020506D01*
X004337Y020476D01*
X004294Y020449D01*
X004249Y020426D01*
X004203Y020406D01*
X004155Y020389D01*
X004107Y020377D01*
X004057Y020368D01*
X004007Y020363D01*
X003956Y020362D01*
X003906Y020365D01*
X003856Y020372D01*
X003807Y020383D01*
X003759Y020397D01*
X003712Y020415D01*
X003666Y020437D01*
X003622Y020462D01*
X003581Y020491D01*
X003542Y020522D01*
X003505Y020557D01*
X003471Y020594D01*
X003440Y020634D01*
X003412Y020676D01*
X003388Y020720D01*
X003367Y020766D01*
X003350Y020814D01*
X003337Y020862D01*
X003327Y020912D01*
X003321Y020962D01*
X003319Y021012D01*
X016981Y020973D02*
X016983Y021023D01*
X016989Y021073D01*
X016999Y021123D01*
X017012Y021171D01*
X017029Y021219D01*
X017050Y021265D01*
X017074Y021309D01*
X017102Y021351D01*
X017133Y021391D01*
X017167Y021428D01*
X017204Y021463D01*
X017243Y021494D01*
X017284Y021523D01*
X017328Y021548D01*
X017374Y021570D01*
X017421Y021588D01*
X017469Y021602D01*
X017518Y021613D01*
X017568Y021620D01*
X017618Y021623D01*
X017669Y021622D01*
X017719Y021617D01*
X017769Y021608D01*
X017817Y021596D01*
X017865Y021579D01*
X017911Y021559D01*
X017956Y021536D01*
X017999Y021509D01*
X018039Y021479D01*
X018077Y021446D01*
X018112Y021410D01*
X018145Y021371D01*
X018174Y021330D01*
X018200Y021287D01*
X018223Y021242D01*
X018242Y021195D01*
X018257Y021147D01*
X018269Y021098D01*
X018277Y021048D01*
X018281Y020998D01*
X018281Y020948D01*
X018277Y020898D01*
X018269Y020848D01*
X018257Y020799D01*
X018242Y020751D01*
X018223Y020704D01*
X018200Y020659D01*
X018174Y020616D01*
X018145Y020575D01*
X018112Y020536D01*
X018077Y020500D01*
X018039Y020467D01*
X017999Y020437D01*
X017956Y020410D01*
X017911Y020387D01*
X017865Y020367D01*
X017817Y020350D01*
X017769Y020338D01*
X017719Y020329D01*
X017669Y020324D01*
X017618Y020323D01*
X017568Y020326D01*
X017518Y020333D01*
X017469Y020344D01*
X017421Y020358D01*
X017374Y020376D01*
X017328Y020398D01*
X017284Y020423D01*
X017243Y020452D01*
X017204Y020483D01*
X017167Y020518D01*
X017133Y020555D01*
X017102Y020595D01*
X017074Y020637D01*
X017050Y020681D01*
X017029Y020727D01*
X017012Y020775D01*
X016999Y020823D01*
X016989Y020873D01*
X016983Y020923D01*
X016981Y020973D01*
D11*
X017874Y014116D02*
X017837Y014079D01*
X017837Y013933D01*
X017874Y013896D01*
X017947Y013896D01*
X017984Y013933D01*
X017984Y014006D01*
X017911Y014006D01*
X017984Y014079D02*
X017947Y014116D01*
X017874Y014116D01*
X018058Y014116D02*
X018205Y013896D01*
X018205Y014116D01*
X018279Y014116D02*
X018389Y014116D01*
X018426Y014079D01*
X018426Y013933D01*
X018389Y013896D01*
X018279Y013896D01*
X018279Y014116D01*
X018058Y014116D02*
X018058Y013896D01*
X013798Y013933D02*
X013762Y013896D01*
X013688Y013896D01*
X013651Y013933D01*
X013688Y014006D02*
X013762Y014006D01*
X013798Y013969D01*
X013798Y013933D01*
X013688Y014006D02*
X013651Y014043D01*
X013651Y014079D01*
X013688Y014116D01*
X013762Y014116D01*
X013798Y014079D01*
X013577Y014116D02*
X013431Y014116D01*
X013504Y014116D02*
X013504Y013896D01*
X013356Y013933D02*
X013320Y013896D01*
X013210Y013896D01*
X013210Y014116D01*
X013320Y014116D01*
X013356Y014079D01*
X013356Y013933D01*
X013135Y014116D02*
X012989Y013896D01*
X012841Y013896D02*
X012841Y014116D01*
X012768Y014116D02*
X012914Y014116D01*
X012693Y014079D02*
X012657Y014116D01*
X012583Y014116D01*
X012547Y014079D01*
X012547Y014043D01*
X012583Y014006D01*
X012657Y014006D01*
X012693Y013969D01*
X012693Y013933D01*
X012657Y013896D01*
X012583Y013896D01*
X012547Y013933D01*
X012472Y013896D02*
X012399Y013969D01*
X012436Y013969D02*
X012326Y013969D01*
X012326Y013896D02*
X012326Y014116D01*
X012436Y014116D01*
X012472Y014079D01*
X012472Y014006D01*
X012436Y013969D01*
X020787Y004470D02*
X020751Y004434D01*
X020751Y004287D01*
X020787Y004250D01*
X020861Y004250D01*
X020898Y004287D01*
X020898Y004360D01*
X020824Y004360D01*
X020898Y004434D02*
X020861Y004470D01*
X020787Y004470D01*
X020972Y004470D02*
X021119Y004250D01*
X021119Y004470D01*
X021193Y004470D02*
X021303Y004470D01*
X021340Y004434D01*
X021340Y004287D01*
X021303Y004250D01*
X021193Y004250D01*
X021193Y004470D01*
X020972Y004470D02*
X020972Y004250D01*
D12*
X019442Y014280D02*
X019245Y014280D01*
X019127Y014398D01*
X019127Y015185D01*
X019245Y015303D01*
X019442Y015303D01*
X019442Y016288D02*
X019245Y016288D01*
X019127Y016406D01*
X019127Y017193D01*
X019245Y017311D01*
X019442Y017311D01*
X019442Y018256D02*
X019245Y018256D01*
X019127Y018374D01*
X019127Y019162D01*
X019245Y019280D01*
X019442Y019280D01*
X019442Y020264D02*
X019245Y020264D01*
X019127Y020382D01*
X019127Y021169D01*
X019245Y021288D01*
X019442Y021288D01*
X016961Y018807D02*
X016961Y018610D01*
X016961Y018414D01*
X016764Y018610D01*
X016961Y018807D01*
X016961Y018610D02*
X016764Y018610D01*
X016961Y018610D02*
X017119Y018610D01*
X012631Y020736D02*
X012473Y020736D01*
X012473Y020933D01*
X012276Y020736D01*
X012473Y020540D01*
X012473Y020736D01*
X012276Y020736D01*
X008536Y020736D02*
X008379Y020736D01*
X008379Y020933D01*
X008182Y020736D01*
X008379Y020540D01*
X008379Y020736D01*
X008182Y020736D01*
X004796Y019043D02*
X004442Y019043D01*
X004442Y019240D01*
X004245Y019043D01*
X004442Y018847D01*
X004442Y019043D01*
X004245Y019043D01*
D13*
X004596Y018538D02*
X004596Y018011D01*
X004859Y018275D02*
X004332Y018275D01*
X008689Y020458D02*
X009216Y020458D01*
X012705Y020379D02*
X013232Y020379D01*
X016952Y017944D02*
X017480Y017944D01*
X017216Y017681D02*
X017216Y018208D01*
D14*
X012906Y016288D02*
X012434Y016288D01*
X012434Y015658D02*
X012906Y015658D01*
X010249Y013760D02*
X009776Y013760D01*
X009776Y013130D02*
X010249Y013130D01*
X007749Y014595D02*
X007276Y014595D01*
X007276Y015225D02*
X007749Y015225D01*
X007654Y015477D02*
X008127Y015477D01*
X008127Y016106D02*
X007654Y016106D01*
X007296Y013630D02*
X007296Y013158D01*
X006666Y013158D02*
X006666Y013630D01*
X006725Y012650D02*
X006253Y012650D01*
X006253Y012020D02*
X006725Y012020D01*
X003937Y008977D02*
X003937Y008550D01*
X003724Y008764D02*
X004151Y008764D01*
X004072Y006165D02*
X003645Y006165D01*
X013182Y010067D02*
X013654Y010067D01*
X013654Y010697D02*
X013182Y010697D01*
X014355Y009284D02*
X014355Y008811D01*
X014079Y008847D02*
X014079Y008374D01*
X013449Y008374D02*
X013449Y008847D01*
X014985Y008811D02*
X014985Y009284D01*
X016985Y011803D02*
X016985Y012276D01*
X017615Y012276D02*
X017615Y011803D01*
X017764Y011799D02*
X017764Y012272D01*
X018394Y012272D02*
X018394Y011799D01*
X019827Y008973D02*
X019827Y008500D01*
X020457Y008500D02*
X020457Y008973D01*
X018092Y005694D02*
X017970Y005238D01*
X018578Y005075D02*
X018700Y005531D01*
D15*
X008594Y019177D02*
X008471Y019177D01*
X008409Y019238D01*
X008287Y019238D02*
X008226Y019177D01*
X008102Y019177D01*
X008041Y019238D01*
X008287Y019485D01*
X008287Y019238D01*
X008409Y019362D02*
X008532Y019423D01*
X008594Y019423D01*
X008656Y019362D01*
X008656Y019238D01*
X008594Y019177D01*
X008409Y019362D02*
X008409Y019547D01*
X008656Y019547D01*
X008287Y019485D02*
X008226Y019547D01*
X008102Y019547D01*
X008041Y019485D01*
X008041Y019238D01*
X007919Y019238D02*
X007919Y019485D01*
X007672Y019238D01*
X007734Y019177D01*
X007857Y019177D01*
X007919Y019238D01*
X007672Y019238D02*
X007672Y019485D01*
X007734Y019547D01*
X007857Y019547D01*
X007919Y019485D01*
X007550Y019238D02*
X007550Y019177D01*
X007488Y019177D01*
X007488Y019238D01*
X007550Y019238D01*
X006619Y021814D02*
X006619Y021863D01*
X006813Y022056D01*
X006813Y022105D01*
X006619Y022105D01*
X006518Y022105D02*
X006518Y022056D01*
X006325Y021863D01*
X006325Y021814D01*
X006224Y021863D02*
X006175Y021814D01*
X006078Y021814D01*
X006030Y021863D01*
X006030Y021959D02*
X006127Y022008D01*
X006175Y022008D01*
X006224Y021959D01*
X006224Y021863D01*
X006030Y021959D02*
X006030Y022105D01*
X006224Y022105D01*
X006325Y022105D02*
X006518Y022105D01*
X005929Y022056D02*
X005929Y021863D01*
X005881Y021814D01*
X005784Y021814D01*
X005735Y021863D01*
X005929Y022056D01*
X005881Y022105D01*
X005784Y022105D01*
X005735Y022056D01*
X005735Y021863D01*
X005634Y021959D02*
X005441Y021959D01*
X005586Y022105D01*
X005586Y021814D01*
D16*
X003985Y018866D02*
X003040Y018866D01*
X003040Y016347D01*
X003985Y016347D01*
X003985Y018866D01*
X007473Y018965D02*
X014166Y018965D01*
X014166Y018256D02*
X007473Y018256D01*
X009103Y015477D02*
X009103Y015319D01*
X009165Y015358D02*
X009167Y015372D01*
X009173Y015386D01*
X009181Y015398D01*
X009193Y015406D01*
X009207Y015412D01*
X009221Y015414D01*
X009235Y015412D01*
X009249Y015406D01*
X009261Y015398D01*
X009269Y015386D01*
X009275Y015372D01*
X009277Y015358D01*
X009275Y015344D01*
X009269Y015330D01*
X009261Y015318D01*
X009249Y015310D01*
X009235Y015304D01*
X009221Y015302D01*
X009207Y015304D01*
X009193Y015310D01*
X009181Y015318D01*
X009173Y015330D01*
X009167Y015344D01*
X009165Y015358D01*
X009103Y015477D02*
X010678Y015477D01*
X010678Y015319D01*
X010678Y014059D02*
X010678Y013902D01*
X009103Y013902D01*
X009103Y014059D01*
X008749Y013815D02*
X008749Y013185D01*
X008701Y013185D01*
X008402Y013185D02*
X008327Y013185D01*
X008028Y013185D02*
X007953Y013185D01*
X007654Y013185D02*
X007607Y013185D01*
X007607Y013815D01*
X007654Y013815D01*
X007957Y013815D02*
X008024Y013815D01*
X008327Y013815D02*
X008402Y013815D01*
X008529Y013618D02*
X008531Y013636D01*
X008537Y013652D01*
X008546Y013668D01*
X008558Y013680D01*
X008573Y013690D01*
X008589Y013697D01*
X008607Y013700D01*
X008624Y013699D01*
X008641Y013694D01*
X008657Y013686D01*
X008671Y013674D01*
X008681Y013660D01*
X008689Y013644D01*
X008693Y013627D01*
X008693Y013609D01*
X008689Y013592D01*
X008681Y013576D01*
X008671Y013562D01*
X008657Y013550D01*
X008641Y013542D01*
X008624Y013537D01*
X008607Y013536D01*
X008589Y013539D01*
X008573Y013546D01*
X008558Y013556D01*
X008546Y013568D01*
X008537Y013584D01*
X008531Y013600D01*
X008529Y013618D01*
X008701Y013815D02*
X008749Y013815D01*
X007827Y010303D02*
X006607Y010303D01*
X006607Y007784D01*
X007827Y007784D01*
X007827Y010303D01*
X005032Y009555D02*
X004087Y009555D01*
X004087Y012075D01*
X005032Y012075D01*
X005032Y009555D01*
X003890Y009555D02*
X003890Y012075D01*
X002946Y012075D01*
X002946Y009555D01*
X003890Y009555D01*
X005171Y006112D02*
X006312Y006112D01*
X006312Y005876D01*
X006312Y005088D02*
X006312Y004931D01*
X005171Y004931D01*
X004816Y005443D02*
X004816Y005600D01*
X005170Y006112D02*
X005214Y006139D01*
X005259Y006163D01*
X005306Y006183D01*
X005354Y006200D01*
X005404Y006213D01*
X005454Y006223D01*
X005505Y006229D01*
X005556Y006232D01*
X005607Y006231D01*
X005658Y006226D01*
X005708Y006217D01*
X005758Y006205D01*
X005807Y006190D01*
X005854Y006170D01*
X005900Y006148D01*
X005944Y006122D01*
X005986Y006093D01*
X006026Y006061D01*
X006064Y006027D01*
X006099Y005989D01*
X006131Y005950D01*
X006161Y005908D01*
X006187Y005864D01*
X006171Y005096D02*
X006138Y005055D01*
X006101Y005016D01*
X006062Y004980D01*
X006020Y004947D01*
X005976Y004918D01*
X005929Y004891D01*
X005882Y004868D01*
X005832Y004848D01*
X005781Y004832D01*
X005729Y004820D01*
X005677Y004812D01*
X005624Y004807D01*
X005571Y004806D01*
X005518Y004809D01*
X005465Y004816D01*
X005413Y004827D01*
X005361Y004841D01*
X005311Y004859D01*
X005263Y004881D01*
X005216Y004906D01*
X005171Y004934D01*
X011064Y006496D02*
X011064Y009173D01*
X011066Y009234D01*
X011072Y009294D01*
X011081Y009354D01*
X011095Y009413D01*
X011112Y009471D01*
X011133Y009528D01*
X011158Y009583D01*
X011186Y009637D01*
X011217Y009689D01*
X011252Y009738D01*
X011289Y009786D01*
X011330Y009830D01*
X011374Y009873D01*
X011420Y009912D01*
X011468Y009948D01*
X011519Y009981D01*
X011572Y010011D01*
X011626Y010037D01*
X011683Y010060D01*
X011740Y010079D01*
X011799Y010094D01*
X011858Y010106D01*
X011918Y010114D01*
X011979Y010118D01*
X012039Y010118D01*
X012100Y010114D01*
X012160Y010106D01*
X012219Y010094D01*
X012278Y010079D01*
X012335Y010060D01*
X012392Y010037D01*
X012446Y010011D01*
X012499Y009981D01*
X012550Y009948D01*
X012598Y009912D01*
X012644Y009873D01*
X012688Y009830D01*
X012729Y009786D01*
X012766Y009738D01*
X012801Y009689D01*
X012832Y009637D01*
X012860Y009583D01*
X012885Y009528D01*
X012906Y009471D01*
X012923Y009413D01*
X012937Y009354D01*
X012946Y009294D01*
X012952Y009234D01*
X012954Y009173D01*
X012953Y009173D02*
X012953Y006457D01*
X012954Y006496D02*
X012952Y006435D01*
X012946Y006375D01*
X012937Y006315D01*
X012923Y006256D01*
X012906Y006198D01*
X012885Y006141D01*
X012860Y006086D01*
X012832Y006032D01*
X012801Y005980D01*
X012766Y005931D01*
X012729Y005883D01*
X012688Y005839D01*
X012644Y005796D01*
X012598Y005757D01*
X012550Y005721D01*
X012499Y005688D01*
X012446Y005658D01*
X012392Y005632D01*
X012335Y005609D01*
X012278Y005590D01*
X012219Y005575D01*
X012160Y005563D01*
X012100Y005555D01*
X012039Y005551D01*
X011979Y005551D01*
X011918Y005555D01*
X011858Y005563D01*
X011799Y005575D01*
X011740Y005590D01*
X011683Y005609D01*
X011626Y005632D01*
X011572Y005658D01*
X011519Y005688D01*
X011468Y005721D01*
X011420Y005757D01*
X011374Y005796D01*
X011330Y005839D01*
X011289Y005883D01*
X011252Y005931D01*
X011217Y005980D01*
X011186Y006032D01*
X011158Y006086D01*
X011133Y006141D01*
X011112Y006198D01*
X011095Y006256D01*
X011081Y006315D01*
X011072Y006375D01*
X011066Y006435D01*
X011064Y006496D01*
X016001Y007134D02*
X018757Y007134D01*
X018757Y009890D01*
X016001Y009890D01*
X016001Y007134D01*
X016126Y009654D02*
X016128Y009674D01*
X016133Y009694D01*
X016143Y009712D01*
X016155Y009729D01*
X016170Y009743D01*
X016188Y009753D01*
X016207Y009761D01*
X016227Y009765D01*
X016247Y009765D01*
X016267Y009761D01*
X016286Y009753D01*
X016304Y009743D01*
X016319Y009729D01*
X016331Y009712D01*
X016341Y009694D01*
X016346Y009674D01*
X016348Y009654D01*
X016346Y009634D01*
X016341Y009614D01*
X016331Y009596D01*
X016319Y009579D01*
X016304Y009565D01*
X016286Y009555D01*
X016267Y009547D01*
X016247Y009543D01*
X016227Y009543D01*
X016207Y009547D01*
X016188Y009555D01*
X016170Y009565D01*
X016155Y009579D01*
X016143Y009596D01*
X016133Y009614D01*
X016128Y009634D01*
X016126Y009654D01*
D17*
X014275Y009305D02*
X014125Y009305D01*
X014125Y009405D01*
X014200Y009355D02*
X014200Y009305D01*
X014175Y009258D02*
X014275Y009258D01*
X014275Y009183D01*
X014250Y009158D01*
X014175Y009158D01*
X014125Y009060D02*
X014275Y009060D01*
X014275Y009010D02*
X014275Y009111D01*
X014175Y009010D02*
X014125Y009060D01*
X014250Y008962D02*
X014275Y008962D01*
X014275Y008937D01*
X014250Y008937D01*
X014250Y008962D01*
X014250Y008890D02*
X014275Y008864D01*
X014275Y008814D01*
X014250Y008789D01*
X014150Y008890D01*
X014250Y008890D01*
X014150Y008890D02*
X014125Y008864D01*
X014125Y008814D01*
X014150Y008789D01*
X014250Y008789D01*
X013369Y008821D02*
X013369Y008746D01*
X013344Y008721D01*
X013269Y008721D01*
X013269Y008821D02*
X013369Y008821D01*
X013369Y008868D02*
X013219Y008868D01*
X013219Y008968D01*
X013294Y008918D02*
X013294Y008868D01*
X013369Y008674D02*
X013369Y008573D01*
X013369Y008525D02*
X013369Y008500D01*
X013344Y008500D01*
X013344Y008525D01*
X013369Y008525D01*
X013344Y008453D02*
X013244Y008453D01*
X013344Y008352D01*
X013369Y008377D01*
X013369Y008427D01*
X013344Y008453D01*
X013244Y008453D02*
X013219Y008427D01*
X013219Y008377D01*
X013244Y008352D01*
X013344Y008352D01*
X013269Y008573D02*
X013219Y008623D01*
X013369Y008623D01*
X013393Y010782D02*
X013318Y010832D01*
X013393Y010882D01*
X013318Y010932D02*
X013318Y010782D01*
X013270Y010807D02*
X013245Y010782D01*
X013195Y010782D01*
X013170Y010807D01*
X013270Y010907D01*
X013270Y010807D01*
X013170Y010807D02*
X013170Y010907D01*
X013195Y010932D01*
X013245Y010932D01*
X013270Y010907D01*
X013123Y010782D02*
X013023Y010782D01*
X013073Y010782D02*
X013073Y010932D01*
X013023Y010882D01*
X010729Y008748D02*
X010579Y008748D01*
X010579Y008848D01*
X010654Y008798D02*
X010654Y008748D01*
X010654Y008701D02*
X010704Y008701D01*
X010729Y008676D01*
X010729Y008601D01*
X010779Y008601D02*
X010629Y008601D01*
X010629Y008676D01*
X010654Y008701D01*
X010679Y008553D02*
X010654Y008528D01*
X010654Y008478D01*
X010629Y008453D01*
X010604Y008453D01*
X010579Y008478D01*
X010579Y008528D01*
X010604Y008553D01*
X010629Y008553D01*
X010654Y008528D01*
X010679Y008553D02*
X010704Y008553D01*
X010729Y008528D01*
X010729Y008478D01*
X010704Y008453D01*
X010679Y008453D01*
X010654Y008478D01*
X010729Y008406D02*
X010729Y008306D01*
X010729Y008356D02*
X010579Y008356D01*
X010629Y008306D01*
X009843Y007257D02*
X009843Y007207D01*
X009843Y007159D02*
X009893Y007159D01*
X009918Y007134D01*
X009918Y007059D01*
X009968Y007059D02*
X009818Y007059D01*
X009818Y007134D01*
X009843Y007159D01*
X009768Y007207D02*
X009768Y007307D01*
X009768Y007207D02*
X009918Y007207D01*
X009893Y007012D02*
X009918Y006987D01*
X009918Y006937D01*
X009893Y006912D01*
X009868Y006912D01*
X009843Y006937D01*
X009843Y006987D01*
X009868Y007012D01*
X009893Y007012D01*
X009843Y006987D02*
X009818Y007012D01*
X009793Y007012D01*
X009768Y006987D01*
X009768Y006937D01*
X009793Y006912D01*
X009818Y006912D01*
X009843Y006937D01*
X009918Y006865D02*
X009918Y006765D01*
X009918Y006815D02*
X009768Y006815D01*
X009818Y006765D01*
X007478Y007632D02*
X007378Y007632D01*
X007378Y007482D01*
X007331Y007482D02*
X007331Y007582D01*
X007378Y007557D02*
X007428Y007557D01*
X007331Y007482D02*
X007256Y007482D01*
X007231Y007507D01*
X007231Y007582D01*
X007184Y007607D02*
X007084Y007507D01*
X007109Y007482D01*
X007159Y007482D01*
X007184Y007507D01*
X007184Y007607D01*
X007159Y007632D01*
X007109Y007632D01*
X007084Y007607D01*
X007084Y007507D01*
X007036Y007482D02*
X006936Y007482D01*
X006986Y007482D02*
X006986Y007632D01*
X006936Y007582D01*
X004478Y010177D02*
X004378Y010277D01*
X004353Y010277D01*
X004328Y010252D01*
X004328Y010202D01*
X004353Y010177D01*
X004478Y010177D02*
X004478Y010277D01*
X004453Y010324D02*
X004353Y010424D01*
X004453Y010424D01*
X004478Y010399D01*
X004478Y010349D01*
X004453Y010324D01*
X004353Y010324D01*
X004328Y010349D01*
X004328Y010399D01*
X004353Y010424D01*
X004353Y010471D02*
X004328Y010496D01*
X004328Y010546D01*
X004353Y010571D01*
X004453Y010471D01*
X004478Y010496D01*
X004478Y010546D01*
X004453Y010571D01*
X004353Y010571D01*
X004328Y010619D02*
X004478Y010619D01*
X004428Y010619D02*
X004378Y010694D01*
X004428Y010619D02*
X004478Y010694D01*
X004453Y010471D02*
X004353Y010471D01*
X003374Y010452D02*
X003374Y010402D01*
X003349Y010377D01*
X003249Y010477D01*
X003349Y010477D01*
X003374Y010452D01*
X003349Y010524D02*
X003249Y010624D01*
X003349Y010624D01*
X003374Y010599D01*
X003374Y010549D01*
X003349Y010524D01*
X003249Y010524D01*
X003223Y010549D01*
X003223Y010599D01*
X003249Y010624D01*
X003223Y010672D02*
X003374Y010672D01*
X003324Y010672D02*
X003274Y010747D01*
X003324Y010672D02*
X003374Y010747D01*
X003249Y010477D02*
X003223Y010452D01*
X003223Y010402D01*
X003249Y010377D01*
X003349Y010377D01*
X003374Y010330D02*
X003374Y010230D01*
X003274Y010330D01*
X003249Y010330D01*
X003223Y010305D01*
X003223Y010255D01*
X003249Y010230D01*
X006392Y013201D02*
X006542Y013201D01*
X006542Y013151D02*
X006542Y013251D01*
X006517Y013299D02*
X006542Y013324D01*
X006542Y013399D01*
X006442Y013399D01*
X006467Y013446D02*
X006467Y013496D01*
X006542Y013446D02*
X006392Y013446D01*
X006392Y013546D01*
X006442Y013299D02*
X006517Y013299D01*
X006392Y013201D02*
X006442Y013151D01*
X006517Y013103D02*
X006542Y013103D01*
X006542Y013078D01*
X006517Y013078D01*
X006517Y013103D01*
X007289Y012171D02*
X007289Y012021D01*
X007239Y012021D02*
X007339Y012021D01*
X007387Y012046D02*
X007412Y012021D01*
X007487Y012021D01*
X007487Y012121D01*
X007534Y012096D02*
X007584Y012096D01*
X007534Y012021D02*
X007534Y012171D01*
X007634Y012171D01*
X007387Y012121D02*
X007387Y012046D01*
X007289Y012171D02*
X007239Y012121D01*
X008352Y011027D02*
X008402Y011077D01*
X008402Y010927D01*
X008352Y010927D02*
X008452Y010927D01*
X008499Y010952D02*
X008600Y011052D01*
X008600Y010952D01*
X008575Y010927D01*
X008524Y010927D01*
X008499Y010952D01*
X008499Y011052D01*
X008524Y011077D01*
X008575Y011077D01*
X008600Y011052D01*
X008647Y011027D02*
X008647Y010952D01*
X008672Y010927D01*
X008747Y010927D01*
X008747Y011027D01*
X008794Y011002D02*
X008844Y011002D01*
X008794Y010927D02*
X008794Y011077D01*
X008894Y011077D01*
X009460Y012900D02*
X009485Y012900D01*
X009485Y012925D01*
X009460Y012925D01*
X009460Y012900D01*
X009534Y012900D02*
X009634Y012900D01*
X009584Y012900D02*
X009584Y013050D01*
X009534Y013000D01*
X009681Y013000D02*
X009681Y012925D01*
X009706Y012900D01*
X009781Y012900D01*
X009781Y013000D01*
X009828Y012975D02*
X009878Y012975D01*
X009828Y012900D02*
X009828Y013050D01*
X009928Y013050D01*
X012393Y015349D02*
X012493Y015449D01*
X012493Y015474D01*
X012468Y015499D01*
X012418Y015499D01*
X012393Y015474D01*
X012393Y015349D02*
X012493Y015349D01*
X012540Y015349D02*
X012565Y015349D01*
X012565Y015374D01*
X012540Y015374D01*
X012540Y015349D01*
X012614Y015349D02*
X012714Y015449D01*
X012714Y015474D01*
X012689Y015499D01*
X012639Y015499D01*
X012614Y015474D01*
X012614Y015349D02*
X012714Y015349D01*
X012761Y015349D02*
X012761Y015449D01*
X012836Y015449D01*
X012861Y015424D01*
X012861Y015349D01*
X012909Y015349D02*
X012909Y015499D01*
X013009Y015499D01*
X012959Y015424D02*
X012909Y015424D01*
X008011Y016265D02*
X007936Y016315D01*
X008011Y016365D01*
X007936Y016415D02*
X007936Y016265D01*
X007889Y016265D02*
X007789Y016265D01*
X007889Y016365D01*
X007889Y016390D01*
X007864Y016415D01*
X007814Y016415D01*
X007789Y016390D01*
X007043Y014549D02*
X006943Y014549D01*
X006943Y014399D01*
X006896Y014399D02*
X006896Y014499D01*
X006943Y014474D02*
X006993Y014474D01*
X006896Y014399D02*
X006821Y014399D01*
X006796Y014424D01*
X006796Y014499D01*
X006699Y014549D02*
X006699Y014399D01*
X006649Y014399D02*
X006749Y014399D01*
X006649Y014499D02*
X006699Y014549D01*
X006600Y014424D02*
X006600Y014399D01*
X006575Y014399D01*
X006575Y014424D01*
X006600Y014424D01*
X003428Y017723D02*
X003327Y017823D01*
X003302Y017823D01*
X003277Y017798D01*
X003277Y017748D01*
X003302Y017723D01*
X003428Y017723D02*
X003428Y017823D01*
X003403Y017871D02*
X003302Y017971D01*
X003403Y017971D01*
X003428Y017946D01*
X003428Y017896D01*
X003403Y017871D01*
X003302Y017871D01*
X003277Y017896D01*
X003277Y017946D01*
X003302Y017971D01*
X003302Y018018D02*
X003277Y018043D01*
X003277Y018093D01*
X003302Y018118D01*
X003403Y018018D01*
X003428Y018043D01*
X003428Y018093D01*
X003403Y018118D01*
X003302Y018118D01*
X003277Y018165D02*
X003428Y018165D01*
X003377Y018165D02*
X003327Y018240D01*
X003377Y018165D02*
X003428Y018240D01*
X003403Y018018D02*
X003302Y018018D01*
X017842Y005553D02*
X017873Y005571D01*
X017944Y005448D01*
X017974Y005466D01*
X017987Y005514D01*
X017970Y005545D01*
X017873Y005571D01*
X017842Y005553D02*
X017829Y005505D01*
X017847Y005474D01*
X017944Y005448D01*
X017932Y005402D02*
X017949Y005372D01*
X017936Y005323D01*
X017906Y005306D01*
X017835Y005428D01*
X017932Y005402D01*
X017906Y005306D02*
X017809Y005332D01*
X017791Y005362D01*
X017804Y005411D01*
X017835Y005428D01*
X017918Y005254D02*
X017892Y005157D01*
X017905Y005205D02*
X017760Y005244D01*
X017795Y005183D01*
X019622Y008478D02*
X019597Y008503D01*
X019597Y008553D01*
X019622Y008579D01*
X019722Y008478D01*
X019747Y008503D01*
X019747Y008553D01*
X019722Y008579D01*
X019622Y008579D01*
X019622Y008478D02*
X019722Y008478D01*
X019722Y008626D02*
X019722Y008651D01*
X019747Y008651D01*
X019747Y008626D01*
X019722Y008626D01*
X019747Y008699D02*
X019747Y008799D01*
X019747Y008749D02*
X019597Y008749D01*
X019647Y008699D01*
X019647Y008847D02*
X019722Y008847D01*
X019747Y008872D01*
X019747Y008947D01*
X019647Y008947D01*
X019672Y008994D02*
X019672Y009044D01*
X019597Y008994D02*
X019597Y009094D01*
X019597Y008994D02*
X019747Y008994D01*
D18*
X016107Y015795D02*
X016107Y016465D01*
X015611Y016465D02*
X015611Y015795D01*
X006894Y015756D02*
X006894Y016425D01*
X006398Y016425D02*
X006398Y015756D01*
D19*
X006410Y016248D02*
X006883Y016248D01*
X015623Y016288D02*
X016095Y016288D01*
M02*
