<?xml version="1.0" encoding="UTF-8" standalone="no"?>
<!-- Created with Inkscape (http://www.inkscape.org/) -->

<svg
   xmlns:dc="http://purl.org/dc/elements/1.1/"
   xmlns:cc="http://creativecommons.org/ns#"
   xmlns:rdf="http://www.w3.org/1999/02/22-rdf-syntax-ns#"
   xmlns:svg="http://www.w3.org/2000/svg"
   xmlns="http://www.w3.org/2000/svg"
   xmlns:sodipodi="http://sodipodi.sourceforge.net/DTD/sodipodi-0.dtd"
   xmlns:inkscape="http://www.inkscape.org/namespaces/inkscape"
   id="svg4225"
   version="1.1"
   inkscape:version="0.48.0 r9654"
   width="240"
   height="231.25"
   xml:space="preserve"
   sodipodi:docname="Passthrough Meter.svg"><metadata
     id="metadata4231"><rdf:RDF><cc:Work
         rdf:about=""><dc:format>image/svg+xml</dc:format><dc:type
           rdf:resource="http://purl.org/dc/dcmitype/StillImage" /><dc:title></dc:title></cc:Work></rdf:RDF></metadata><defs
     id="defs4229" /><sodipodi:namedview
     pagecolor="#ffffff"
     bordercolor="#666666"
     borderopacity="1"
     objecttolerance="10"
     gridtolerance="10"
     guidetolerance="10"
     inkscape:pageopacity="0"
     inkscape:pageshadow="2"
     inkscape:window-width="1062"
     inkscape:window-height="671"
     id="namedview4227"
     showgrid="false"
     inkscape:zoom="2.2572973"
     inkscape:cx="119.2947"
     inkscape:cy="102.16493"
     inkscape:window-x="0"
     inkscape:window-y="0"
     inkscape:window-maximized="0"
     inkscape:current-layer="g4233" /><g
     id="g4233"
     inkscape:groupmode="layer"
     inkscape:label="Passthrough Meter"
     transform="matrix(1.25,0,0,-1.25,0,231.25)"><g
       id="g4519"><path
         d="m 137.86625,44.35255 0.8455,0 0,2.9079 -0.8455,0 0,-2.9079 z"
         style="fill:#000000;fill-opacity:1;fill-rule:nonzero;stroke:none"
         id="path4237"
         inkscape:connector-curvature="0" /><path
         d="m 135.59638,44.35255 0.85025,0 0,2.9079 -0.85025,0 0,-2.9079 z"
         style="fill:#000000;fill-opacity:1;fill-rule:nonzero;stroke:none"
         id="path4239"
         inkscape:connector-curvature="0" /><path
         d="m 140.13138,44.35255 0.85025,0 0,2.9079 -0.85025,0 0,-2.9079 z"
         style="fill:#000000;fill-opacity:1;fill-rule:nonzero;stroke:none"
         id="path4241"
         inkscape:connector-curvature="0" /><path
         d="m 142.40127,44.35255 0.84645,0 0,2.9079 -0.84645,0 0,-2.9079 z"
         style="fill:#000000;fill-opacity:1;fill-rule:nonzero;stroke:none"
         id="path4243"
         inkscape:connector-curvature="0" /><path
         d="m 144.66735,44.35255 0.8493,0 0,2.9079 -0.8493,0 0,-2.9079 z"
         style="fill:#000000;fill-opacity:1;fill-rule:nonzero;stroke:none"
         id="path4245"
         inkscape:connector-curvature="0" /><path
         d="m 133.32735,44.35255 0.8493,0 0,2.9079 -0.8493,0 0,-2.9079 z"
         style="fill:#000000;fill-opacity:1;fill-rule:nonzero;stroke:none"
         id="path4247"
         inkscape:connector-curvature="0" /><path
         d="m 131.06127,44.35255 0.84645,0 0,2.9079 -0.84645,0 0,-2.9079 z"
         style="fill:#000000;fill-opacity:1;fill-rule:nonzero;stroke:none"
         id="path4249"
         inkscape:connector-curvature="0" /><path
         d="m 128.79235,44.35255 0.8493,0 0,2.9079 -0.8493,0 0,-2.9079 z"
         style="fill:#000000;fill-opacity:1;fill-rule:nonzero;stroke:none"
         id="path4251"
         inkscape:connector-curvature="0" /><path
         d="m 148.17445,58.9881 2.9051,0 0,0.8478 -2.9051,0 0,-0.8478 z"
         style="fill:#000000;fill-opacity:1;fill-rule:nonzero;stroke:none"
         id="path4253"
         inkscape:connector-curvature="0" /><path
         d="m 148.17445,56.71925 2.9051,0 0,0.8505 -2.9051,0 0,-0.8505 z"
         style="fill:#000000;fill-opacity:1;fill-rule:nonzero;stroke:none"
         id="path4255"
         inkscape:connector-curvature="0" /><path
         d="m 148.17445,61.25805 2.9051,0 0,0.8469 -2.9051,0 0,-0.8469 z"
         style="fill:#000000;fill-opacity:1;fill-rule:nonzero;stroke:none"
         id="path4257"
         inkscape:connector-curvature="0" /><path
         d="m 148.17445,63.52405 2.9051,0 0,0.8469 -2.9051,0 0,-0.8469 z"
         style="fill:#000000;fill-opacity:1;fill-rule:nonzero;stroke:none"
         id="path4259"
         inkscape:connector-curvature="0" /><path
         d="m 148.17445,65.7931 2.9051,0 0,0.8478 -2.9051,0 0,-0.8478 z"
         style="fill:#000000;fill-opacity:1;fill-rule:nonzero;stroke:none"
         id="path4261"
         inkscape:connector-curvature="0" /><path
         d="m 148.17445,54.4531 2.9051,0 0,0.8478 -2.9051,0 0,-0.8478 z"
         style="fill:#000000;fill-opacity:1;fill-rule:nonzero;stroke:none"
         id="path4263"
         inkscape:connector-curvature="0" /><path
         d="m 148.17445,52.18805 2.9051,0 0,0.8469 -2.9051,0 0,-0.8469 z"
         style="fill:#000000;fill-opacity:1;fill-rule:nonzero;stroke:none"
         id="path4265"
         inkscape:connector-curvature="0" /><path
         d="m 148.17445,49.9181 2.9051,0 0,0.8478 -2.9051,0 0,-0.8478 z"
         style="fill:#000000;fill-opacity:1;fill-rule:nonzero;stroke:none"
         id="path4267"
         inkscape:connector-curvature="0" /><path
         d="m 123.22858,56.71925 2.90985,0 0,0.8505 -2.90985,0 0,-0.8505 z"
         style="fill:#000000;fill-opacity:1;fill-rule:nonzero;stroke:none"
         id="path4269"
         inkscape:connector-curvature="0" /><path
         d="m 123.22858,58.9881 2.90985,0 0,0.8478 -2.90985,0 0,-0.8478 z"
         style="fill:#000000;fill-opacity:1;fill-rule:nonzero;stroke:none"
         id="path4271"
         inkscape:connector-curvature="0" /><path
         d="m 123.22858,54.4531 2.90985,0 0,0.8478 -2.90985,0 0,-0.8478 z"
         style="fill:#000000;fill-opacity:1;fill-rule:nonzero;stroke:none"
         id="path4273"
         inkscape:connector-curvature="0" /><path
         d="m 123.22858,52.18805 2.90985,0 0,0.8469 -2.90985,0 0,-0.8469 z"
         style="fill:#000000;fill-opacity:1;fill-rule:nonzero;stroke:none"
         id="path4275"
         inkscape:connector-curvature="0" /><path
         d="m 123.22858,49.9181 2.90985,0 0,0.8478 -2.90985,0 0,-0.8478 z"
         style="fill:#000000;fill-opacity:1;fill-rule:nonzero;stroke:none"
         id="path4277"
         inkscape:connector-curvature="0" /><path
         d="m 123.22858,61.25805 2.90985,0 0,0.8469 -2.90985,0 0,-0.8469 z"
         style="fill:#000000;fill-opacity:1;fill-rule:nonzero;stroke:none"
         id="path4279"
         inkscape:connector-curvature="0" /><path
         d="m 123.22858,63.52405 2.90985,0 0,0.8469 -2.90985,0 0,-0.8469 z"
         style="fill:#000000;fill-opacity:1;fill-rule:nonzero;stroke:none"
         id="path4281"
         inkscape:connector-curvature="0" /><path
         d="m 123.22858,65.7931 2.90985,0 0,0.8478 -2.90985,0 0,-0.8478 z"
         style="fill:#000000;fill-opacity:1;fill-rule:nonzero;stroke:none"
         id="path4283"
         inkscape:connector-curvature="0" /><path
         d="m 135.59638,69.2985 0.85025,0 0,2.907 -0.85025,0 0,-2.907 z"
         style="fill:#000000;fill-opacity:1;fill-rule:nonzero;stroke:none"
         id="path4285"
         inkscape:connector-curvature="0" /><path
         d="m 137.86625,69.2985 0.8455,0 0,2.907 -0.8455,0 0,-2.907 z"
         style="fill:#000000;fill-opacity:1;fill-rule:nonzero;stroke:none"
         id="path4287"
         inkscape:connector-curvature="0" /><path
         d="m 133.32735,69.2985 0.8493,0 0,2.907 -0.8493,0 0,-2.907 z"
         style="fill:#000000;fill-opacity:1;fill-rule:nonzero;stroke:none"
         id="path4289"
         inkscape:connector-curvature="0" /><path
         d="m 131.06127,69.2985 0.84645,0 0,2.907 -0.84645,0 0,-2.907 z"
         style="fill:#000000;fill-opacity:1;fill-rule:nonzero;stroke:none"
         id="path4291"
         inkscape:connector-curvature="0" /><path
         d="m 128.79235,69.2985 0.8493,0 0,2.907 -0.8493,0 0,-2.907 z"
         style="fill:#000000;fill-opacity:1;fill-rule:nonzero;stroke:none"
         id="path4293"
         inkscape:connector-curvature="0" /><path
         d="m 140.13138,69.2985 0.85025,0 0,2.907 -0.85025,0 0,-2.907 z"
         style="fill:#000000;fill-opacity:1;fill-rule:nonzero;stroke:none"
         id="path4295"
         inkscape:connector-curvature="0" /><path
         d="m 142.40127,69.2985 0.84645,0 0,2.907 -0.84645,0 0,-2.907 z"
         style="fill:#000000;fill-opacity:1;fill-rule:nonzero;stroke:none"
         id="path4297"
         inkscape:connector-curvature="0" /><path
         d="m 144.66735,69.2985 0.8493,0 0,2.907 -0.8493,0 0,-2.907 z"
         style="fill:#000000;fill-opacity:1;fill-rule:nonzero;stroke:none"
         id="path4299"
         inkscape:connector-curvature="0" /><path
         d="m 84.57975,55.37 2.4225,0 0,3.15 -2.4225,0 0,-3.15 z"
         style="fill:#000000;fill-opacity:1;fill-rule:nonzero;stroke:none"
         id="path4301"
         inkscape:connector-curvature="0" /><path
         d="m 84.57975,60.757 2.4225,0 0,3.15 -2.4225,0 0,-3.15 z"
         style="fill:#000000;fill-opacity:1;fill-rule:nonzero;stroke:none"
         id="path4303"
         inkscape:connector-curvature="0" /><path
         d="m 84.633875,48.144 2.42725,0 0,3.15 -2.42725,0 0,-3.15 z"
         style="fill:#000000;fill-opacity:1;fill-rule:nonzero;stroke:none"
         id="path4305"
         inkscape:connector-curvature="0" /><path
         d="m 84.633875,42.757 2.42725,0 0,3.15 -2.42725,0 0,-3.15 z"
         style="fill:#000000;fill-opacity:1;fill-rule:nonzero;stroke:none"
         id="path4307"
         inkscape:connector-curvature="0" /><path
         d="m 109.67855,60.36855 2.9089,0 0,2.9079 -2.9089,0 0,-2.9079 z"
         style="fill:#000000;fill-opacity:1;fill-rule:nonzero;stroke:none"
         id="path4309"
         inkscape:connector-curvature="0" /><path
         d="m 109.67855,54.70055 2.9089,0 0,2.9079 -2.9089,0 0,-2.9079 z"
         style="fill:#000000;fill-opacity:1;fill-rule:nonzero;stroke:none"
         id="path4311"
         inkscape:connector-curvature="0" /><path
         d="m 116.19758,63.5137 2.90985,0 0,2.9106 -2.90985,0 0,-2.9106 z"
         style="fill:#000000;fill-opacity:1;fill-rule:nonzero;stroke:none"
         id="path4313"
         inkscape:connector-curvature="0" /><path
         d="m 116.19758,57.8455 2.90985,0 0,2.907 -2.90985,0 0,-2.907 z"
         style="fill:#000000;fill-opacity:1;fill-rule:nonzero;stroke:none"
         id="path4315"
         inkscape:connector-curvature="0" /><path
         d="m 155.59958,61.27455 2.90984,0 0,2.9079 -2.90984,0 0,-2.9079 z"
         style="fill:#000000;fill-opacity:1;fill-rule:nonzero;stroke:none"
         id="path4317"
         inkscape:connector-curvature="0" /><path
         d="m 155.59958,55.60655 2.90984,0 0,2.9079 -2.90984,0 0,-2.9079 z"
         style="fill:#000000;fill-opacity:1;fill-rule:nonzero;stroke:none"
         id="path4319"
         inkscape:connector-curvature="0" /><path
         d="m 70.4235,89.5798 0.969,0 0,2.4264 -0.969,0 0,-2.4264 z"
         style="fill:#000000;fill-opacity:1;fill-rule:nonzero;stroke:none"
         id="path4321"
         inkscape:connector-curvature="0" /><path
         d="m 67.7325,89.5798 0.969,0 0,2.4264 -0.969,0 0,-2.4264 z"
         style="fill:#000000;fill-opacity:1;fill-rule:nonzero;stroke:none"
         id="path4323"
         inkscape:connector-curvature="0" /><path
         d="m 73.115575,89.5798 0.97185,0 0,2.4264 -0.97185,0 0,-2.4264 z"
         style="fill:#000000;fill-opacity:1;fill-rule:nonzero;stroke:none"
         id="path4325"
         inkscape:connector-curvature="0" /><path
         d="m 73.115575,96.38455 0.97185,0 0,2.4219 -0.97185,0 0,-2.4219 z"
         style="fill:#000000;fill-opacity:1;fill-rule:nonzero;stroke:none"
         id="path4327"
         inkscape:connector-curvature="0" /><path
         d="m 70.4235,96.38455 0.969,0 0,2.4219 -0.969,0 0,-2.4219 z"
         style="fill:#000000;fill-opacity:1;fill-rule:nonzero;stroke:none"
         id="path4329"
         inkscape:connector-curvature="0" /><path
         d="m 67.7325,96.38455 0.969,0 0,2.4219 -0.969,0 0,-2.4219 z"
         style="fill:#000000;fill-opacity:1;fill-rule:nonzero;stroke:none"
         id="path4331"
         inkscape:connector-curvature="0" /><path
         d="m 79.01545,94.62175 7.9971,0 0,6.0615 -7.9971,0 0,-6.0615 z"
         style="fill:#000000;fill-opacity:1;fill-rule:nonzero;stroke:none"
         id="path4333"
         inkscape:connector-curvature="0" /><path
         d="m 79.167925,91.132 0.60515,0 0,1.818 -0.60515,0 0,-1.818 z"
         style="fill:#000000;fill-opacity:1;fill-rule:nonzero;stroke:none"
         id="path4335"
         inkscape:connector-curvature="0" /><path
         d="m 80.585925,91.132 0.60515,0 0,1.818 -0.60515,0 0,-1.818 z"
         style="fill:#000000;fill-opacity:1;fill-rule:nonzero;stroke:none"
         id="path4337"
         inkscape:connector-curvature="0" /><path
         d="m 81.999925,91.132 0.60515,0 0,1.818 -0.60515,0 0,-1.818 z"
         style="fill:#000000;fill-opacity:1;fill-rule:nonzero;stroke:none"
         id="path4339"
         inkscape:connector-curvature="0" /><path
         d="m 83.417925,91.132 0.60515,0 0,1.818 -0.60515,0 0,-1.818 z"
         style="fill:#000000;fill-opacity:1;fill-rule:nonzero;stroke:none"
         id="path4341"
         inkscape:connector-curvature="0" /><path
         d="m 84.835925,91.132 0.60515,0 0,1.818 -0.60515,0 0,-1.818 z"
         style="fill:#000000;fill-opacity:1;fill-rule:nonzero;stroke:none"
         id="path4343"
         inkscape:connector-curvature="0" /><path
         d="m 86.253925,91.132 0.60515,0 0,1.818 -0.60515,0 0,-1.818 z"
         style="fill:#000000;fill-opacity:1;fill-rule:nonzero;stroke:none"
         id="path4345"
         inkscape:connector-curvature="0" /><path
         d="m 79.167925,102.35495 0.60515,0 0,1.8171 -0.60515,0 0,-1.8171 z"
         style="fill:#000000;fill-opacity:1;fill-rule:nonzero;stroke:none"
         id="path4347"
         inkscape:connector-curvature="0" /><path
         d="m 80.585925,102.35495 0.60515,0 0,1.8171 -0.60515,0 0,-1.8171 z"
         style="fill:#000000;fill-opacity:1;fill-rule:nonzero;stroke:none"
         id="path4349"
         inkscape:connector-curvature="0" /><path
         d="m 81.999925,102.35495 0.60515,0 0,1.8171 -0.60515,0 0,-1.8171 z"
         style="fill:#000000;fill-opacity:1;fill-rule:nonzero;stroke:none"
         id="path4351"
         inkscape:connector-curvature="0" /><path
         d="m 83.417925,102.35495 0.60515,0 0,1.8171 -0.60515,0 0,-1.8171 z"
         style="fill:#000000;fill-opacity:1;fill-rule:nonzero;stroke:none"
         id="path4353"
         inkscape:connector-curvature="0" /><path
         d="m 84.835925,102.35495 0.60515,0 0,1.8171 -0.60515,0 0,-1.8171 z"
         style="fill:#000000;fill-opacity:1;fill-rule:nonzero;stroke:none"
         id="path4355"
         inkscape:connector-curvature="0" /><path
         d="m 86.253925,102.35495 0.60515,0 0,1.8171 -0.60515,0 0,-1.8171 z"
         style="fill:#000000;fill-opacity:1;fill-rule:nonzero;stroke:none"
         id="path4357"
         inkscape:connector-curvature="0" /><path
         d="m 60.75255,88.3457 2.9089,0 0,2.9106 -2.9089,0 0,-2.9106 z"
         style="fill:#000000;fill-opacity:1;fill-rule:nonzero;stroke:none"
         id="path4359"
         inkscape:connector-curvature="0" /><path
         d="m 60.75255,94.01655 2.9089,0 0,2.9079 -2.9089,0 0,-2.9079 z"
         style="fill:#000000;fill-opacity:1;fill-rule:nonzero;stroke:none"
         id="path4361"
         inkscape:connector-curvature="0" /><path
         d="m 60.244475,83.10255 2.90605,0 0,2.9079 -2.90605,0 0,-2.9079 z"
         style="fill:#000000;fill-opacity:1;fill-rule:nonzero;stroke:none"
         id="path4363"
         inkscape:connector-curvature="0" /><path
         d="m 54.572575,83.10255 2.90985,0 0,2.9079 -2.90985,0 0,-2.9079 z"
         style="fill:#000000;fill-opacity:1;fill-rule:nonzero;stroke:none"
         id="path4365"
         inkscape:connector-curvature="0" /><path
         d="m 89.46755,83.8377 2.9089,0 0,2.9106 -2.9089,0 0,-2.9106 z"
         style="fill:#000000;fill-opacity:1;fill-rule:nonzero;stroke:none"
         id="path4367"
         inkscape:connector-curvature="0" /><path
         d="m 95.13555,83.8377 2.9089,0 0,2.9106 -2.9089,0 0,-2.9106 z"
         style="fill:#000000;fill-opacity:1;fill-rule:nonzero;stroke:none"
         id="path4369"
         inkscape:connector-curvature="0" /><path
         d="m 36.99855,92.85255 2.9089,0 0,2.9079 -2.9089,0 0,-2.9079 z"
         style="fill:#000000;fill-opacity:1;fill-rule:nonzero;stroke:none"
         id="path4371"
         inkscape:connector-curvature="0" /><path
         d="m 36.99855,98.52075 2.9089,0 0,2.9115 -2.9089,0 0,-2.9115 z"
         style="fill:#000000;fill-opacity:1;fill-rule:nonzero;stroke:none"
         id="path4373"
         inkscape:connector-curvature="0" /><path
         d="m 44.650575,92.82555 2.90985,0 0,2.9079 -2.90985,0 0,-2.9079 z"
         style="fill:#000000;fill-opacity:1;fill-rule:nonzero;stroke:none"
         id="path4375"
         inkscape:connector-curvature="0" /><path
         d="m 44.650575,98.49355 2.90985,0 0,2.9079 -2.90985,0 0,-2.9079 z"
         style="fill:#000000;fill-opacity:1;fill-rule:nonzero;stroke:none"
         id="path4377"
         inkscape:connector-curvature="0" /><path
         d="m 52.87345,92.7947 2.9051,0 0,2.9106 -2.9051,0 0,-2.9106 z"
         style="fill:#000000;fill-opacity:1;fill-rule:nonzero;stroke:none"
         id="path4379"
         inkscape:connector-curvature="0" /><path
         d="m 52.87345,98.4665 2.9051,0 0,2.907 -2.9051,0 0,-2.907 z"
         style="fill:#000000;fill-opacity:1;fill-rule:nonzero;stroke:none"
         id="path4381"
         inkscape:connector-curvature="0" /><path
         d="m 140.74455,79.36055 2.9089,0 0,2.9079 -2.9089,0 0,-2.9079 z"
         style="fill:#000000;fill-opacity:1;fill-rule:nonzero;stroke:none"
         id="path4383"
         inkscape:connector-curvature="0" /><path
         d="m 140.74455,85.02855 2.9089,0 0,2.9079 -2.9089,0 0,-2.9079 z"
         style="fill:#000000;fill-opacity:1;fill-rule:nonzero;stroke:none"
         id="path4385"
         inkscape:connector-curvature="0" /><path
         d="m 135.13545,85.0567 2.9051,0 0,2.9106 -2.9051,0 0,-2.9106 z"
         style="fill:#000000;fill-opacity:1;fill-rule:nonzero;stroke:none"
         id="path4387"
         inkscape:connector-curvature="0" /><path
         d="m 135.13545,79.3885 2.9051,0 0,2.907 -2.9051,0 0,-2.907 z"
         style="fill:#000000;fill-opacity:1;fill-rule:nonzero;stroke:none"
         id="path4389"
         inkscape:connector-curvature="0" /><path
         d="m 54.5257,34.5244 3.6366,0 0,3.8772 -3.6366,0 0,-3.8772 z"
         style="fill:#000000;fill-opacity:1;fill-rule:nonzero;stroke:none"
         id="path4391"
         inkscape:connector-curvature="0" /><path
         d="m 45.537475,38.1265 2.90605,0 0,2.907 -2.90605,0 0,-2.907 z"
         style="fill:#000000;fill-opacity:1;fill-rule:nonzero;stroke:none"
         id="path4393"
         inkscape:connector-curvature="0" /><path
         d="m 45.537475,32.4585 2.90605,0 0,2.907 -2.90605,0 0,-2.907 z"
         style="fill:#000000;fill-opacity:1;fill-rule:nonzero;stroke:none"
         id="path4395"
         inkscape:connector-curvature="0" /><path
         d="m 142.2773,34.80215 -0.74955,-2.8089 2.80915,-0.7524 0.75335,2.8089"
         style="fill:#000000;fill-opacity:1;fill-rule:nonzero;stroke:none"
         id="path4397"
         inkscape:connector-curvature="0" /><path
         d="m 143.7452,40.27915 -0.74955,-2.8098 2.80535,-0.7515 0.75335,2.8089"
         style="fill:#000000;fill-opacity:1;fill-rule:nonzero;stroke:none"
         id="path4399"
         inkscape:connector-curvature="0" /><path
         d="m 61.48255,75.1014 4.8469,0 0,4.3632 -4.8469,0 0,-4.3632 z"
         style="fill:#000000;fill-opacity:1;fill-rule:nonzero;stroke:none"
         id="path4401"
         inkscape:connector-curvature="0" /><path
         d="m 52.41255,75.1014 4.8469,0 0,4.3632 -4.8469,0 0,-4.3632 z"
         style="fill:#000000;fill-opacity:1;fill-rule:nonzero;stroke:none"
         id="path4403"
         inkscape:connector-curvature="0" /><path
         d="m 60.07655,46.04735 4.8469,0 0,4.3623 -4.8469,0 0,-4.3623 z"
         style="fill:#000000;fill-opacity:1;fill-rule:nonzero;stroke:none"
         id="path4405"
         inkscape:connector-curvature="0" /><path
         d="m 51.006525,46.04735 4.84595,0 0,4.3623 -4.84595,0 0,-4.3623 z"
         style="fill:#000000;fill-opacity:1;fill-rule:nonzero;stroke:none"
         id="path4407"
         inkscape:connector-curvature="0" /><path
         d="m 76.568575,78.5095 2.90985,0 0,2.907 -2.90985,0 0,-2.907 z"
         style="fill:#000000;fill-opacity:1;fill-rule:nonzero;stroke:none"
         id="path4409"
         inkscape:connector-curvature="0" /><path
         d="m 70.900575,78.5095 2.90985,0 0,2.907 -2.90985,0 0,-2.907 z"
         style="fill:#000000;fill-opacity:1;fill-rule:nonzero;stroke:none"
         id="path4411"
         inkscape:connector-curvature="0" /><path
         d="m 104.34947,70.2905 2.90606,0 0,2.907 -2.90606,0 0,-2.907 z"
         style="fill:#000000;fill-opacity:1;fill-rule:nonzero;stroke:none"
         id="path4413"
         inkscape:connector-curvature="0" /><path
         d="m 110.01758,70.2905 2.90985,0 0,2.907 -2.90985,0 0,-2.907 z"
         style="fill:#000000;fill-opacity:1;fill-rule:nonzero;stroke:none"
         id="path4415"
         inkscape:connector-curvature="0" /><path
         d="m 48.5917,61.8039 5.5746,0 0,2.3022 -5.5746,0 0,-2.3022 z"
         style="fill:#000000;fill-opacity:1;fill-rule:nonzero;stroke:none"
         id="path4417"
         inkscape:connector-curvature="0" /><path
         d="m 48.5917,68.32295 5.5746,0 0,2.3031 -5.5746,0 0,-2.3031 z"
         style="fill:#000000;fill-opacity:1;fill-rule:nonzero;stroke:none"
         id="path4419"
         inkscape:connector-curvature="0" /><path
         d="m 48.5917,55.28395 5.5746,0 0,2.3031 -5.5746,0 0,-2.3031 z"
         style="fill:#000000;fill-opacity:1;fill-rule:nonzero;stroke:none"
         id="path4421"
         inkscape:connector-curvature="0" /><path
         d="m 65.314675,59.0157 5.57365,0 0,7.8786 -5.57365,0 0,-7.8786 z"
         style="fill:#000000;fill-opacity:1;fill-rule:nonzero;stroke:none"
         id="path4423"
         inkscape:connector-curvature="0" /></g></g></svg>