G75*
G70*
%OFA0B0*%
%FSLAX24Y24*%
%IPPOS*%
%LPD*%
%AMOC8*
5,1,8,0,0,1.08239X$1,22.5*
%
%ADD10C,0.0000*%
%ADD11C,0.0660*%
%ADD12C,0.1000*%
%ADD13C,0.0740*%
%ADD14C,0.1500*%
%ADD15C,0.0160*%
%ADD16C,0.0413*%
%ADD17C,0.0317*%
%ADD18C,0.0356*%
%ADD19C,0.0100*%
%ADD20C,0.3150*%
D10*
X002631Y002862D02*
X002631Y022429D01*
X020662Y022429D01*
X020662Y010421D01*
X021686Y009398D01*
X021686Y002862D01*
X002631Y002862D01*
X002847Y008532D02*
X002849Y008563D01*
X002855Y008594D01*
X002864Y008624D01*
X002877Y008653D01*
X002894Y008680D01*
X002914Y008704D01*
X002936Y008726D01*
X002962Y008745D01*
X002989Y008761D01*
X003018Y008773D01*
X003048Y008782D01*
X003079Y008787D01*
X003111Y008788D01*
X003142Y008785D01*
X003173Y008778D01*
X003203Y008768D01*
X003231Y008754D01*
X003257Y008736D01*
X003281Y008716D01*
X003302Y008692D01*
X003321Y008667D01*
X003336Y008639D01*
X003347Y008610D01*
X003355Y008579D01*
X003359Y008548D01*
X003359Y008516D01*
X003355Y008485D01*
X003347Y008454D01*
X003336Y008425D01*
X003321Y008397D01*
X003302Y008372D01*
X003281Y008348D01*
X003257Y008328D01*
X003231Y008310D01*
X003203Y008296D01*
X003173Y008286D01*
X003142Y008279D01*
X003111Y008276D01*
X003079Y008277D01*
X003048Y008282D01*
X003018Y008291D01*
X002989Y008303D01*
X002962Y008319D01*
X002936Y008338D01*
X002914Y008360D01*
X002894Y008384D01*
X002877Y008411D01*
X002864Y008440D01*
X002855Y008470D01*
X002849Y008501D01*
X002847Y008532D01*
X002847Y009595D02*
X002849Y009626D01*
X002855Y009657D01*
X002864Y009687D01*
X002877Y009716D01*
X002894Y009743D01*
X002914Y009767D01*
X002936Y009789D01*
X002962Y009808D01*
X002989Y009824D01*
X003018Y009836D01*
X003048Y009845D01*
X003079Y009850D01*
X003111Y009851D01*
X003142Y009848D01*
X003173Y009841D01*
X003203Y009831D01*
X003231Y009817D01*
X003257Y009799D01*
X003281Y009779D01*
X003302Y009755D01*
X003321Y009730D01*
X003336Y009702D01*
X003347Y009673D01*
X003355Y009642D01*
X003359Y009611D01*
X003359Y009579D01*
X003355Y009548D01*
X003347Y009517D01*
X003336Y009488D01*
X003321Y009460D01*
X003302Y009435D01*
X003281Y009411D01*
X003257Y009391D01*
X003231Y009373D01*
X003203Y009359D01*
X003173Y009349D01*
X003142Y009342D01*
X003111Y009339D01*
X003079Y009340D01*
X003048Y009345D01*
X003018Y009354D01*
X002989Y009366D01*
X002962Y009382D01*
X002936Y009401D01*
X002914Y009423D01*
X002894Y009447D01*
X002877Y009474D01*
X002864Y009503D01*
X002855Y009533D01*
X002849Y009564D01*
X002847Y009595D01*
X003359Y011917D02*
X003361Y011967D01*
X003367Y012017D01*
X003377Y012067D01*
X003390Y012115D01*
X003407Y012163D01*
X003428Y012209D01*
X003452Y012253D01*
X003480Y012295D01*
X003511Y012335D01*
X003545Y012372D01*
X003582Y012407D01*
X003621Y012438D01*
X003662Y012467D01*
X003706Y012492D01*
X003752Y012514D01*
X003799Y012532D01*
X003847Y012546D01*
X003896Y012557D01*
X003946Y012564D01*
X003996Y012567D01*
X004047Y012566D01*
X004097Y012561D01*
X004147Y012552D01*
X004195Y012540D01*
X004243Y012523D01*
X004289Y012503D01*
X004334Y012480D01*
X004377Y012453D01*
X004417Y012423D01*
X004455Y012390D01*
X004490Y012354D01*
X004523Y012315D01*
X004552Y012274D01*
X004578Y012231D01*
X004601Y012186D01*
X004620Y012139D01*
X004635Y012091D01*
X004647Y012042D01*
X004655Y011992D01*
X004659Y011942D01*
X004659Y011892D01*
X004655Y011842D01*
X004647Y011792D01*
X004635Y011743D01*
X004620Y011695D01*
X004601Y011648D01*
X004578Y011603D01*
X004552Y011560D01*
X004523Y011519D01*
X004490Y011480D01*
X004455Y011444D01*
X004417Y011411D01*
X004377Y011381D01*
X004334Y011354D01*
X004289Y011331D01*
X004243Y011311D01*
X004195Y011294D01*
X004147Y011282D01*
X004097Y011273D01*
X004047Y011268D01*
X003996Y011267D01*
X003946Y011270D01*
X003896Y011277D01*
X003847Y011288D01*
X003799Y011302D01*
X003752Y011320D01*
X003706Y011342D01*
X003662Y011367D01*
X003621Y011396D01*
X003582Y011427D01*
X003545Y011462D01*
X003511Y011499D01*
X003480Y011539D01*
X003452Y011581D01*
X003428Y011625D01*
X003407Y011671D01*
X003390Y011719D01*
X003377Y011767D01*
X003367Y011817D01*
X003361Y011867D01*
X003359Y011917D01*
X016981Y020973D02*
X016983Y021023D01*
X016989Y021073D01*
X016999Y021123D01*
X017012Y021171D01*
X017029Y021219D01*
X017050Y021265D01*
X017074Y021309D01*
X017102Y021351D01*
X017133Y021391D01*
X017167Y021428D01*
X017204Y021463D01*
X017243Y021494D01*
X017284Y021523D01*
X017328Y021548D01*
X017374Y021570D01*
X017421Y021588D01*
X017469Y021602D01*
X017518Y021613D01*
X017568Y021620D01*
X017618Y021623D01*
X017669Y021622D01*
X017719Y021617D01*
X017769Y021608D01*
X017817Y021596D01*
X017865Y021579D01*
X017911Y021559D01*
X017956Y021536D01*
X017999Y021509D01*
X018039Y021479D01*
X018077Y021446D01*
X018112Y021410D01*
X018145Y021371D01*
X018174Y021330D01*
X018200Y021287D01*
X018223Y021242D01*
X018242Y021195D01*
X018257Y021147D01*
X018269Y021098D01*
X018277Y021048D01*
X018281Y020998D01*
X018281Y020948D01*
X018277Y020898D01*
X018269Y020848D01*
X018257Y020799D01*
X018242Y020751D01*
X018223Y020704D01*
X018200Y020659D01*
X018174Y020616D01*
X018145Y020575D01*
X018112Y020536D01*
X018077Y020500D01*
X018039Y020467D01*
X017999Y020437D01*
X017956Y020410D01*
X017911Y020387D01*
X017865Y020367D01*
X017817Y020350D01*
X017769Y020338D01*
X017719Y020329D01*
X017669Y020324D01*
X017618Y020323D01*
X017568Y020326D01*
X017518Y020333D01*
X017469Y020344D01*
X017421Y020358D01*
X017374Y020376D01*
X017328Y020398D01*
X017284Y020423D01*
X017243Y020452D01*
X017204Y020483D01*
X017167Y020518D01*
X017133Y020555D01*
X017102Y020595D01*
X017074Y020637D01*
X017050Y020681D01*
X017029Y020727D01*
X017012Y020775D01*
X016999Y020823D01*
X016989Y020873D01*
X016983Y020923D01*
X016981Y020973D01*
D11*
X012009Y008795D03*
X012009Y006874D03*
D12*
X015386Y017666D03*
X007394Y017666D03*
D13*
X013103Y014802D03*
X014103Y014702D03*
X015103Y014802D03*
X016103Y014702D03*
X017103Y014802D03*
X018103Y014702D03*
X019982Y014288D03*
X020082Y015288D03*
X019982Y016288D03*
X020082Y017288D03*
X019982Y018288D03*
X020082Y019288D03*
X019982Y020288D03*
X020082Y021288D03*
X019962Y007185D03*
X020062Y006185D03*
X020966Y007185D03*
X021066Y006185D03*
X020966Y005185D03*
X019962Y005185D03*
X018926Y004015D03*
X017926Y004115D03*
X016926Y004015D03*
X015926Y004115D03*
X014926Y004015D03*
X013926Y004115D03*
X012926Y004015D03*
X011926Y004115D03*
X010929Y004015D03*
X009929Y004115D03*
X008929Y004015D03*
X007929Y004115D03*
X006929Y004015D03*
X005929Y004115D03*
X004929Y004015D03*
X003929Y004115D03*
X004077Y008507D03*
X004077Y009647D03*
D14*
X006410Y017666D03*
X010780Y020225D03*
X011961Y020225D03*
X016371Y017666D03*
D15*
X017001Y015312D02*
X016814Y015234D01*
X016671Y015091D01*
X016593Y014904D01*
X016593Y014852D01*
X016535Y014991D01*
X016392Y015134D01*
X016204Y015212D01*
X016001Y015212D01*
X015814Y015134D01*
X015671Y014991D01*
X015613Y014852D01*
X015613Y014904D01*
X015535Y015091D01*
X015392Y015234D01*
X015204Y015312D01*
X015001Y015312D01*
X014814Y015234D01*
X014671Y015091D01*
X014593Y014904D01*
X014593Y014852D01*
X014535Y014991D01*
X014392Y015134D01*
X014204Y015212D01*
X014001Y015212D01*
X013814Y015134D01*
X013671Y014991D01*
X013613Y014852D01*
X013613Y014904D01*
X013535Y015091D01*
X013392Y015234D01*
X013204Y015312D01*
X013001Y015312D01*
X012814Y015234D01*
X012671Y015091D01*
X012593Y014904D01*
X012593Y014701D01*
X012671Y014513D01*
X012814Y014370D01*
X012983Y014300D01*
X013012Y013796D01*
X012993Y013473D01*
X012993Y013472D01*
X012974Y013285D01*
X013022Y012911D01*
X013126Y012635D01*
X013100Y012571D01*
X013100Y012445D01*
X013148Y012328D01*
X013238Y012238D01*
X013355Y012190D01*
X013481Y012190D01*
X013598Y012238D01*
X013634Y012274D01*
X013660Y012210D01*
X013750Y012120D01*
X013866Y012072D01*
X013993Y012072D01*
X014110Y012120D01*
X014199Y012210D01*
X014248Y012327D01*
X014248Y012453D01*
X014199Y012570D01*
X014138Y012632D01*
X014149Y012784D01*
X014138Y012935D01*
X014199Y012997D01*
X014248Y013114D01*
X014248Y013178D01*
X014290Y013076D01*
X014379Y012986D01*
X014496Y012938D01*
X014623Y012938D01*
X014740Y012986D01*
X014829Y013076D01*
X014858Y013145D01*
X016530Y013631D01*
X016545Y013616D01*
X016662Y013568D01*
X016788Y013568D01*
X016905Y013616D01*
X016995Y013706D01*
X017043Y013823D01*
X017043Y013949D01*
X016995Y014066D01*
X016905Y014156D01*
X016788Y014204D01*
X016662Y014204D01*
X016545Y014156D01*
X016455Y014066D01*
X016427Y013997D01*
X014755Y013511D01*
X014740Y013526D01*
X014623Y013574D01*
X014496Y013574D01*
X014379Y013526D01*
X014290Y013436D01*
X014242Y013319D01*
X014242Y013256D01*
X014199Y013357D01*
X014110Y013447D01*
X013993Y013495D01*
X013866Y013495D01*
X013750Y013447D01*
X013660Y013357D01*
X013612Y013241D01*
X013612Y013114D01*
X013660Y012997D01*
X013750Y012908D01*
X013754Y012784D01*
X013750Y012659D01*
X013714Y012624D01*
X013688Y012688D01*
X013598Y012778D01*
X013481Y012826D01*
X013469Y012826D01*
X013402Y013006D01*
X013364Y013290D01*
X013371Y013434D01*
X013371Y013438D01*
X013379Y013512D01*
X013379Y013512D01*
X013406Y013787D01*
X013373Y014362D01*
X013392Y014370D01*
X013535Y014513D01*
X013593Y014653D01*
X013593Y014601D01*
X013671Y014413D01*
X013814Y014270D01*
X014001Y014192D01*
X014204Y014192D01*
X014392Y014270D01*
X014535Y014413D01*
X014613Y014601D01*
X014613Y014653D01*
X014671Y014513D01*
X014814Y014370D01*
X015001Y014292D01*
X015204Y014292D01*
X015392Y014370D01*
X015535Y014513D01*
X015593Y014653D01*
X015593Y014601D01*
X015671Y014413D01*
X015814Y014270D01*
X016001Y014192D01*
X016204Y014192D01*
X016392Y014270D01*
X016535Y014413D01*
X016613Y014601D01*
X016613Y014653D01*
X016671Y014513D01*
X016814Y014370D01*
X017001Y014292D01*
X017204Y014292D01*
X017392Y014370D01*
X017535Y014513D01*
X017613Y014701D01*
X017613Y014904D01*
X017535Y015091D01*
X017392Y015234D01*
X017204Y015312D01*
X017001Y015312D01*
X016808Y015229D02*
X015398Y015229D01*
X015544Y015070D02*
X015750Y015070D01*
X015638Y014912D02*
X015610Y014912D01*
X015595Y014595D02*
X015569Y014595D01*
X015661Y014436D02*
X015458Y014436D01*
X015806Y014277D02*
X014400Y014277D01*
X014545Y014436D02*
X014748Y014436D01*
X014637Y014595D02*
X014610Y014595D01*
X014596Y014912D02*
X014568Y014912D01*
X014662Y015070D02*
X014456Y015070D01*
X014808Y015229D02*
X013398Y015229D01*
X013544Y015070D02*
X013750Y015070D01*
X013638Y014912D02*
X013610Y014912D01*
X013595Y014595D02*
X013569Y014595D01*
X013661Y014436D02*
X013458Y014436D01*
X013378Y014277D02*
X013806Y014277D01*
X013387Y014119D02*
X016508Y014119D01*
X016400Y014277D02*
X020482Y014277D01*
X020482Y014119D02*
X016942Y014119D01*
X017039Y013960D02*
X020482Y013960D01*
X020482Y013802D02*
X017034Y013802D01*
X016932Y013643D02*
X020482Y013643D01*
X020482Y013485D02*
X016026Y013485D01*
X015756Y013802D02*
X013406Y013802D01*
X013406Y013787D02*
X013406Y013787D01*
X013392Y013643D02*
X015211Y013643D01*
X015481Y013326D02*
X020482Y013326D01*
X020482Y013168D02*
X014936Y013168D01*
X014763Y013009D02*
X020482Y013009D01*
X020482Y012851D02*
X014144Y012851D01*
X014149Y012784D02*
X014149Y012784D01*
X014142Y012692D02*
X016538Y012692D01*
X016495Y012649D02*
X016584Y012738D01*
X016701Y012787D01*
X016828Y012787D01*
X016945Y012738D01*
X017034Y012649D01*
X017082Y012532D01*
X017082Y012405D01*
X017034Y012288D01*
X016945Y012199D01*
X016828Y012151D01*
X016701Y012151D01*
X016584Y012199D01*
X016548Y012235D01*
X016188Y012118D01*
X015827Y011914D01*
X015545Y011670D01*
X015547Y011666D01*
X015547Y011539D01*
X015499Y011422D01*
X015409Y011333D01*
X015292Y011284D01*
X015166Y011284D01*
X015049Y011333D01*
X014959Y011422D01*
X014911Y011539D01*
X014911Y011666D01*
X014959Y011783D01*
X015049Y011872D01*
X015166Y011921D01*
X015238Y011921D01*
X015602Y012235D01*
X015602Y012235D01*
X016030Y012477D01*
X016030Y012477D01*
X016485Y012625D01*
X016495Y012649D01*
X016205Y012534D02*
X014215Y012534D01*
X014248Y012375D02*
X015850Y012375D01*
X015580Y012216D02*
X014202Y012216D01*
X014339Y011724D02*
X014222Y011675D01*
X014133Y011586D01*
X014084Y011469D01*
X014084Y011342D01*
X014133Y011225D01*
X014222Y011136D01*
X014339Y011088D01*
X014465Y011088D01*
X014496Y011100D01*
X014567Y011048D01*
X014635Y010991D01*
X014635Y010909D01*
X014684Y010792D01*
X014773Y010703D01*
X014786Y010698D01*
X014648Y010665D01*
X014622Y010691D01*
X014505Y010739D01*
X014378Y010739D01*
X014261Y010691D01*
X014172Y010602D01*
X014123Y010485D01*
X014123Y010358D01*
X014172Y010241D01*
X014261Y010152D01*
X014378Y010103D01*
X014505Y010103D01*
X014622Y010152D01*
X014711Y010241D01*
X014733Y010295D01*
X016913Y010808D01*
X016939Y010782D01*
X017055Y010733D01*
X017182Y010733D01*
X017299Y010782D01*
X017388Y010871D01*
X017437Y010988D01*
X017437Y011115D01*
X017388Y011231D01*
X017299Y011321D01*
X017182Y011369D01*
X017055Y011369D01*
X016939Y011321D01*
X016849Y011231D01*
X016827Y011178D01*
X015227Y010801D01*
X015271Y010909D01*
X015271Y011036D01*
X015223Y011153D01*
X015134Y011242D01*
X015017Y011291D01*
X014890Y011291D01*
X014885Y011288D01*
X014809Y011356D01*
X014809Y011356D01*
X014720Y011417D01*
X014720Y011469D01*
X014672Y011586D01*
X014582Y011675D01*
X014465Y011724D01*
X014339Y011724D01*
X014131Y011582D02*
X009911Y011582D01*
X009947Y011619D02*
X009858Y011530D01*
X009741Y011481D01*
X009614Y011481D01*
X009498Y011530D01*
X009408Y011619D01*
X009360Y011736D01*
X009360Y011863D01*
X009406Y011974D01*
X009241Y012395D01*
X009143Y012435D01*
X009054Y012525D01*
X009005Y012642D01*
X009005Y012768D01*
X009054Y012885D01*
X009143Y012975D01*
X009260Y013023D01*
X009387Y013023D01*
X009504Y012975D01*
X009593Y012885D01*
X009612Y012839D01*
X009644Y012917D01*
X009734Y013006D01*
X009851Y013054D01*
X009977Y013054D01*
X010094Y013006D01*
X010139Y012961D01*
X010498Y013013D01*
X010510Y013043D01*
X010600Y013132D01*
X010717Y013180D01*
X010843Y013180D01*
X010960Y013132D01*
X011050Y013043D01*
X011098Y012926D01*
X011098Y012799D01*
X011050Y012682D01*
X010960Y012593D01*
X010843Y012544D01*
X010717Y012544D01*
X010600Y012593D01*
X010555Y012638D01*
X010196Y012585D01*
X010184Y012556D01*
X010094Y012467D01*
X009977Y012418D01*
X009851Y012418D01*
X009734Y012467D01*
X009644Y012556D01*
X009625Y012602D01*
X009596Y012531D01*
X009760Y012109D01*
X009858Y012069D01*
X009947Y011980D01*
X009996Y011863D01*
X009996Y011736D01*
X009947Y011619D01*
X009996Y011741D02*
X014942Y011741D01*
X014911Y011582D02*
X014673Y011582D01*
X014720Y011424D02*
X014959Y011424D01*
X015078Y011265D02*
X016883Y011265D01*
X016524Y011107D02*
X015242Y011107D01*
X015271Y010948D02*
X015851Y010948D01*
X016162Y010631D02*
X020482Y010631D01*
X020482Y010790D02*
X017307Y010790D01*
X017420Y010948D02*
X020482Y010948D01*
X020482Y011107D02*
X017437Y011107D01*
X017355Y011265D02*
X020102Y011265D01*
X020109Y011249D02*
X020198Y011160D01*
X020315Y011111D01*
X020442Y011111D01*
X020482Y011128D01*
X020482Y010347D01*
X020587Y010241D01*
X020588Y010241D01*
X021506Y009323D01*
X021506Y006457D01*
X021499Y006474D01*
X021355Y006618D01*
X021168Y006695D01*
X021116Y006695D01*
X021255Y006753D01*
X021399Y006896D01*
X021476Y007084D01*
X021476Y007287D01*
X021399Y007474D01*
X021255Y007618D01*
X021068Y007695D01*
X020865Y007695D01*
X020677Y007618D01*
X020534Y007474D01*
X020464Y007306D01*
X020394Y007474D01*
X020251Y007618D01*
X020064Y007695D01*
X019861Y007695D01*
X019673Y007618D01*
X019530Y007474D01*
X019521Y007452D01*
X018792Y007632D01*
X018644Y007683D01*
X018609Y007767D01*
X018519Y007856D01*
X018402Y007905D01*
X018276Y007905D01*
X018159Y007856D01*
X018070Y007767D01*
X018021Y007650D01*
X018021Y007523D01*
X018070Y007407D01*
X018159Y007317D01*
X018276Y007269D01*
X018402Y007269D01*
X018518Y007317D01*
X018675Y007258D01*
X018675Y007258D01*
X019461Y007063D01*
X019530Y006896D01*
X019673Y006753D01*
X019861Y006675D01*
X019913Y006675D01*
X019773Y006618D01*
X019630Y006474D01*
X019552Y006287D01*
X019552Y006084D01*
X019630Y005896D01*
X019773Y005753D01*
X019913Y005695D01*
X019861Y005695D01*
X019673Y005618D01*
X019530Y005474D01*
X019452Y005287D01*
X019452Y005084D01*
X019530Y004896D01*
X019673Y004753D01*
X019861Y004675D01*
X020064Y004675D01*
X020251Y004753D01*
X020394Y004896D01*
X020472Y005084D01*
X020472Y005287D01*
X020394Y005474D01*
X020251Y005618D01*
X020112Y005675D01*
X020164Y005675D01*
X020351Y005753D01*
X020494Y005896D01*
X020564Y006065D01*
X020634Y005896D01*
X020777Y005753D01*
X020965Y005675D01*
X021168Y005675D01*
X021355Y005753D01*
X021499Y005896D01*
X021506Y005913D01*
X021506Y003042D01*
X002811Y003042D01*
X002811Y008208D01*
X002856Y008162D01*
X003016Y008096D01*
X003190Y008096D01*
X003350Y008162D01*
X003473Y008285D01*
X003539Y008445D01*
X003539Y008618D01*
X003473Y008779D01*
X003350Y008901D01*
X003190Y008968D01*
X003016Y008968D01*
X002856Y008901D01*
X002811Y008856D01*
X002811Y009271D01*
X002856Y009225D01*
X003016Y009159D01*
X003190Y009159D01*
X003350Y009225D01*
X003473Y009348D01*
X003539Y009508D01*
X003539Y009681D01*
X003473Y009842D01*
X003350Y009964D01*
X003190Y010031D01*
X003016Y010031D01*
X002856Y009964D01*
X002811Y009919D01*
X002811Y022249D01*
X020482Y022249D01*
X020482Y021609D01*
X020371Y021720D01*
X020184Y021798D01*
X019981Y021798D01*
X019793Y021720D01*
X019650Y021576D01*
X019572Y021389D01*
X019572Y021186D01*
X019650Y020999D01*
X019793Y020855D01*
X019981Y020778D01*
X020184Y020778D01*
X020482Y020778D01*
X020371Y020855D02*
X020482Y020966D01*
X020482Y019609D01*
X020371Y019720D01*
X020184Y019798D01*
X019981Y019798D01*
X019793Y019720D01*
X019650Y019576D01*
X019572Y019389D01*
X019572Y019186D01*
X019650Y018999D01*
X019793Y018855D01*
X019981Y018778D01*
X020184Y018778D01*
X020371Y018855D01*
X020482Y018966D01*
X020482Y017609D01*
X020371Y017720D01*
X020184Y017798D01*
X019981Y017798D01*
X019793Y017720D01*
X019650Y017576D01*
X019572Y017389D01*
X019572Y017186D01*
X019650Y016999D01*
X019793Y016855D01*
X019981Y016778D01*
X020184Y016778D01*
X020371Y016855D01*
X020482Y016966D01*
X020482Y015609D01*
X020371Y015720D01*
X020184Y015798D01*
X019981Y015798D01*
X019793Y015720D01*
X019650Y015576D01*
X019572Y015389D01*
X019572Y015186D01*
X019650Y014999D01*
X019793Y014855D01*
X019981Y014778D01*
X020184Y014778D01*
X020371Y014855D01*
X020482Y014966D01*
X020482Y011731D01*
X020442Y011747D01*
X020315Y011747D01*
X020268Y011728D01*
X020044Y011874D01*
X019130Y012381D01*
X018894Y012491D01*
X018894Y012493D01*
X018845Y012609D01*
X018756Y012699D01*
X018639Y012747D01*
X018512Y012747D01*
X018395Y012699D01*
X018306Y012609D01*
X018257Y012493D01*
X018257Y012366D01*
X018306Y012249D01*
X018395Y012160D01*
X018512Y012111D01*
X018639Y012111D01*
X018723Y012146D01*
X018953Y012034D01*
X019844Y011541D01*
X020060Y011405D01*
X020060Y011366D01*
X020109Y011249D01*
X020030Y011424D02*
X015499Y011424D01*
X015547Y011582D02*
X019768Y011582D01*
X019482Y011741D02*
X015627Y011741D01*
X015810Y011899D02*
X019197Y011899D01*
X018953Y012034D02*
X018953Y012034D01*
X018905Y012058D02*
X016082Y012058D01*
X016491Y012216D02*
X016567Y012216D01*
X016962Y012216D02*
X018338Y012216D01*
X018257Y012375D02*
X017070Y012375D01*
X017082Y012534D02*
X018274Y012534D01*
X018388Y012692D02*
X016991Y012692D01*
X016301Y013960D02*
X013396Y013960D01*
X013003Y013960D02*
X002811Y013960D01*
X002811Y013802D02*
X013012Y013802D01*
X013003Y013643D02*
X002811Y013643D01*
X002811Y013485D02*
X012994Y013485D01*
X012978Y013326D02*
X002811Y013326D01*
X002811Y013168D02*
X010686Y013168D01*
X010874Y013168D02*
X012989Y013168D01*
X012974Y013285D02*
X012974Y013285D01*
X013010Y013009D02*
X011064Y013009D01*
X011098Y012851D02*
X013045Y012851D01*
X013022Y012911D02*
X013022Y012911D01*
X013105Y012692D02*
X011054Y012692D01*
X010470Y013009D02*
X010087Y013009D01*
X009741Y013009D02*
X009420Y013009D01*
X009227Y013009D02*
X002811Y013009D01*
X002811Y012851D02*
X009040Y012851D01*
X009005Y012692D02*
X004359Y012692D01*
X004490Y012638D02*
X004178Y012767D01*
X004058Y012767D01*
X004058Y012767D01*
X004009Y012767D01*
X004006Y012767D01*
X003959Y012767D01*
X003839Y012767D01*
X003527Y012638D01*
X003288Y012399D01*
X003288Y012399D01*
X003159Y012087D01*
X003159Y012086D01*
X003159Y011748D01*
X003288Y011436D01*
X003527Y011197D01*
X003839Y011068D01*
X003839Y011068D01*
X003959Y011068D01*
X003959Y011067D01*
X004009Y011067D01*
X004026Y011067D01*
X004058Y011067D01*
X004058Y011068D02*
X004178Y011068D01*
X004490Y011197D01*
X004729Y011436D01*
X004729Y011436D01*
X004858Y011748D01*
X004858Y011748D01*
X004858Y012086D01*
X004858Y012087D02*
X004729Y012399D01*
X004490Y012638D01*
X004490Y012638D01*
X004594Y012534D02*
X009050Y012534D01*
X009249Y012375D02*
X004739Y012375D01*
X004729Y012399D02*
X004729Y012399D01*
X004805Y012216D02*
X009311Y012216D01*
X009373Y012058D02*
X004858Y012058D01*
X004858Y012086D02*
X004858Y012087D01*
X004858Y011899D02*
X009375Y011899D01*
X009360Y011741D02*
X004855Y011741D01*
X004790Y011582D02*
X009445Y011582D01*
X009981Y011899D02*
X015114Y011899D01*
X015397Y012058D02*
X009869Y012058D01*
X009719Y012216D02*
X013291Y012216D01*
X013129Y012375D02*
X009657Y012375D01*
X009667Y012534D02*
X009597Y012534D01*
X009607Y012851D02*
X009617Y012851D01*
X010161Y012534D02*
X013100Y012534D01*
X013460Y012851D02*
X013752Y012851D01*
X013751Y012692D02*
X013684Y012692D01*
X013655Y013009D02*
X013401Y013009D01*
X013381Y013168D02*
X013612Y013168D01*
X013647Y013326D02*
X013366Y013326D01*
X013371Y013434D02*
X013371Y013434D01*
X013376Y013485D02*
X013841Y013485D01*
X014019Y013485D02*
X014339Y013485D01*
X014244Y013326D02*
X014212Y013326D01*
X014248Y013168D02*
X014252Y013168D01*
X014204Y013009D02*
X014357Y013009D01*
X013657Y012216D02*
X013545Y012216D01*
X014084Y011424D02*
X004717Y011424D01*
X004558Y011265D02*
X014116Y011265D01*
X014293Y011107D02*
X004272Y011107D01*
X004178Y011068D02*
X004178Y011068D01*
X004058Y011067D02*
X004058Y011068D01*
X003745Y011107D02*
X002811Y011107D01*
X002811Y011265D02*
X003459Y011265D01*
X003527Y011197D02*
X003527Y011197D01*
X003300Y011424D02*
X002811Y011424D01*
X002811Y011582D02*
X003227Y011582D01*
X003288Y011436D02*
X003288Y011436D01*
X003162Y011741D02*
X002811Y011741D01*
X002811Y011899D02*
X003159Y011899D01*
X003159Y011748D02*
X003159Y011748D01*
X003159Y012058D02*
X002811Y012058D01*
X002811Y012216D02*
X003212Y012216D01*
X003278Y012375D02*
X002811Y012375D01*
X002811Y012534D02*
X003423Y012534D01*
X003527Y012638D02*
X003527Y012638D01*
X003658Y012692D02*
X002811Y012692D01*
X003839Y012767D02*
X003839Y012767D01*
X003959Y012767D02*
X003959Y012767D01*
X002811Y014119D02*
X007661Y014119D01*
X007620Y014136D02*
X007737Y014088D01*
X007863Y014088D01*
X007980Y014136D01*
X008069Y014225D01*
X008118Y014342D01*
X008118Y014356D01*
X009774Y015214D01*
X009851Y015182D01*
X009977Y015182D01*
X010094Y015230D01*
X010184Y015320D01*
X010232Y015437D01*
X010232Y015563D01*
X010184Y015680D01*
X010094Y015770D01*
X009977Y015818D01*
X009851Y015818D01*
X009734Y015770D01*
X009644Y015680D01*
X009596Y015563D01*
X009596Y015549D01*
X007940Y014692D01*
X007863Y014724D01*
X007737Y014724D01*
X007620Y014675D01*
X007530Y014586D01*
X007482Y014469D01*
X007482Y014342D01*
X007530Y014225D01*
X007620Y014136D01*
X007509Y014277D02*
X002811Y014277D01*
X002811Y014436D02*
X007482Y014436D01*
X007539Y014595D02*
X002811Y014595D01*
X002811Y014753D02*
X008058Y014753D01*
X008364Y014912D02*
X002811Y014912D01*
X002811Y015070D02*
X008670Y015070D01*
X008977Y015229D02*
X002811Y015229D01*
X002811Y015387D02*
X009283Y015387D01*
X009589Y015546D02*
X002811Y015546D01*
X002811Y015704D02*
X009668Y015704D01*
X010090Y015229D02*
X012808Y015229D01*
X012662Y015070D02*
X009497Y015070D01*
X009190Y014912D02*
X012596Y014912D01*
X012593Y014753D02*
X008884Y014753D01*
X008578Y014595D02*
X012637Y014595D01*
X012748Y014436D02*
X008272Y014436D01*
X008091Y014277D02*
X012984Y014277D01*
X012994Y014119D02*
X007939Y014119D01*
X007620Y015951D02*
X006184Y015951D01*
X005748Y016068D01*
X005357Y016293D01*
X005038Y016613D01*
X004812Y017004D01*
X004695Y017440D01*
X004695Y017891D01*
X004812Y018327D01*
X005038Y018718D01*
X005357Y019038D01*
X005748Y019263D01*
X006184Y019380D01*
X007620Y019380D01*
X008056Y019263D01*
X008447Y019038D01*
X008766Y018718D01*
X008992Y018327D01*
X009109Y017891D01*
X009109Y017440D01*
X008992Y017004D01*
X008766Y016613D01*
X008447Y016293D01*
X008056Y016068D01*
X007620Y015951D01*
X007884Y016021D02*
X020482Y016021D01*
X020482Y015863D02*
X002811Y015863D01*
X002811Y016021D02*
X005920Y016021D01*
X005553Y016180D02*
X002811Y016180D01*
X002811Y016339D02*
X005312Y016339D01*
X005153Y016497D02*
X002811Y016497D01*
X002811Y016656D02*
X005013Y016656D01*
X004921Y016814D02*
X002811Y016814D01*
X002811Y016973D02*
X004830Y016973D01*
X004778Y017131D02*
X002811Y017131D01*
X002811Y017290D02*
X004735Y017290D01*
X004695Y017448D02*
X002811Y017448D01*
X002811Y017607D02*
X004695Y017607D01*
X004695Y017765D02*
X002811Y017765D01*
X002811Y017924D02*
X004704Y017924D01*
X004747Y018083D02*
X002811Y018083D01*
X002811Y018241D02*
X004789Y018241D01*
X004854Y018400D02*
X002811Y018400D01*
X002811Y018558D02*
X004945Y018558D01*
X005037Y018717D02*
X002811Y018717D01*
X002811Y018875D02*
X005195Y018875D01*
X005353Y019034D02*
X002811Y019034D01*
X002811Y019192D02*
X005625Y019192D01*
X006075Y019351D02*
X002811Y019351D01*
X002811Y019509D02*
X009213Y019509D01*
X009182Y019563D02*
X009408Y019172D01*
X009727Y018852D01*
X010118Y018627D01*
X010554Y018510D01*
X012187Y018510D01*
X012623Y018627D01*
X013014Y018852D01*
X013333Y019172D01*
X013559Y019563D01*
X013676Y019999D01*
X013676Y020450D01*
X013559Y020886D01*
X013333Y021277D01*
X013014Y021597D01*
X012623Y021822D01*
X012187Y021939D01*
X010554Y021939D01*
X010118Y021822D01*
X009727Y021597D01*
X009408Y021277D01*
X009182Y020886D01*
X009065Y020450D01*
X009065Y019999D01*
X009182Y019563D01*
X009154Y019668D02*
X002811Y019668D01*
X002811Y019826D02*
X009111Y019826D01*
X009069Y019985D02*
X002811Y019985D01*
X002811Y020144D02*
X009065Y020144D01*
X009065Y020302D02*
X002811Y020302D01*
X002811Y020461D02*
X009068Y020461D01*
X009111Y020619D02*
X002811Y020619D01*
X002811Y020778D02*
X009153Y020778D01*
X009211Y020936D02*
X002811Y020936D01*
X002811Y021095D02*
X009303Y021095D01*
X009394Y021253D02*
X002811Y021253D01*
X002811Y021412D02*
X009542Y021412D01*
X009701Y021570D02*
X002811Y021570D01*
X002811Y021729D02*
X009956Y021729D01*
X010361Y021888D02*
X002811Y021888D01*
X002811Y022046D02*
X020482Y022046D01*
X020482Y021888D02*
X012380Y021888D01*
X012785Y021729D02*
X017236Y021729D01*
X017149Y021693D02*
X016910Y021454D01*
X016781Y021142D01*
X016781Y021142D01*
X016781Y020804D01*
X016781Y020804D01*
X016910Y020491D01*
X017149Y020252D01*
X017149Y020252D01*
X017461Y020123D01*
X017581Y020123D01*
X017581Y020123D01*
X017631Y020123D01*
X017651Y020123D01*
X017680Y020123D01*
X017800Y020123D01*
X018112Y020252D01*
X018351Y020491D01*
X018351Y020491D01*
X018480Y020804D01*
X018480Y021142D01*
X018351Y021454D01*
X018112Y021693D01*
X017800Y021823D01*
X017800Y021823D01*
X017680Y021823D01*
X017631Y021823D01*
X017630Y021823D01*
X017581Y021823D01*
X017581Y021823D01*
X017461Y021823D01*
X017149Y021693D01*
X017149Y021693D01*
X017026Y021570D02*
X013040Y021570D01*
X013199Y021412D02*
X016893Y021412D01*
X016910Y021454D02*
X016910Y021454D01*
X016827Y021253D02*
X013347Y021253D01*
X013439Y021095D02*
X016781Y021095D01*
X016781Y020936D02*
X013530Y020936D01*
X013588Y020778D02*
X016791Y020778D01*
X016857Y020619D02*
X013631Y020619D01*
X013673Y020461D02*
X016940Y020461D01*
X016910Y020491D02*
X016910Y020491D01*
X017099Y020302D02*
X013676Y020302D01*
X013676Y020144D02*
X017411Y020144D01*
X017680Y020123D02*
X017680Y020123D01*
X017800Y020123D02*
X017800Y020123D01*
X017850Y020144D02*
X020482Y020144D01*
X020482Y020302D02*
X018162Y020302D01*
X018112Y020252D02*
X018112Y020252D01*
X018321Y020461D02*
X020482Y020461D01*
X020482Y020619D02*
X018404Y020619D01*
X018470Y020778D02*
X019980Y020778D01*
X020184Y020778D02*
X020371Y020855D01*
X020452Y020936D02*
X020482Y020936D01*
X019712Y020936D02*
X018480Y020936D01*
X018480Y020804D02*
X018480Y020804D01*
X018480Y021095D02*
X019610Y021095D01*
X019572Y021253D02*
X018434Y021253D01*
X018480Y021142D02*
X018480Y021142D01*
X018369Y021412D02*
X019582Y021412D01*
X019647Y021570D02*
X018235Y021570D01*
X018351Y021454D02*
X018351Y021454D01*
X018112Y021693D02*
X018112Y021693D01*
X018025Y021729D02*
X019815Y021729D01*
X020349Y021729D02*
X020482Y021729D01*
X020482Y022205D02*
X002811Y022205D01*
X007730Y019351D02*
X009304Y019351D01*
X009396Y019192D02*
X008179Y019192D01*
X008451Y019034D02*
X009546Y019034D01*
X009704Y018875D02*
X008610Y018875D01*
X008767Y018717D02*
X009962Y018717D01*
X010374Y018558D02*
X008859Y018558D01*
X008951Y018400D02*
X020482Y018400D01*
X020482Y018558D02*
X012368Y018558D01*
X012779Y018717D02*
X020482Y018717D01*
X020482Y018875D02*
X020391Y018875D01*
X019773Y018875D02*
X013037Y018875D01*
X013196Y019034D02*
X019635Y019034D01*
X019572Y019192D02*
X013345Y019192D01*
X013437Y019351D02*
X019572Y019351D01*
X019622Y019509D02*
X013528Y019509D01*
X013587Y019668D02*
X019741Y019668D01*
X020423Y019668D02*
X020482Y019668D01*
X020482Y019826D02*
X013630Y019826D01*
X013672Y019985D02*
X020482Y019985D01*
X020482Y018241D02*
X009015Y018241D01*
X009058Y018083D02*
X020482Y018083D01*
X020482Y017924D02*
X009100Y017924D01*
X009109Y017765D02*
X019903Y017765D01*
X019680Y017607D02*
X009109Y017607D01*
X009109Y017448D02*
X019597Y017448D01*
X019572Y017290D02*
X009069Y017290D01*
X009026Y017131D02*
X019595Y017131D01*
X019676Y016973D02*
X008974Y016973D01*
X008883Y016814D02*
X019892Y016814D01*
X020272Y016814D02*
X020482Y016814D01*
X020482Y016656D02*
X008791Y016656D01*
X008651Y016497D02*
X020482Y016497D01*
X020482Y016339D02*
X008492Y016339D01*
X008251Y016180D02*
X020482Y016180D01*
X020482Y015704D02*
X020386Y015704D01*
X019778Y015704D02*
X010160Y015704D01*
X010232Y015546D02*
X019637Y015546D01*
X019572Y015387D02*
X010212Y015387D01*
X014635Y010948D02*
X002811Y010948D01*
X002811Y010790D02*
X014687Y010790D01*
X014814Y010314D02*
X020515Y010314D01*
X020482Y010472D02*
X015488Y010472D01*
X014625Y010155D02*
X020674Y010155D01*
X020832Y009997D02*
X003271Y009997D01*
X003474Y009838D02*
X020991Y009838D01*
X021149Y009680D02*
X017523Y009680D01*
X017496Y009707D02*
X017379Y009755D01*
X017252Y009755D01*
X017135Y009707D01*
X017046Y009617D01*
X016997Y009500D01*
X016997Y009374D01*
X017046Y009257D01*
X017135Y009167D01*
X017195Y009143D01*
X017225Y009027D01*
X017244Y008910D01*
X017203Y008869D01*
X017155Y008752D01*
X017155Y008626D01*
X017203Y008509D01*
X017293Y008419D01*
X017410Y008371D01*
X017536Y008371D01*
X017653Y008419D01*
X017743Y008509D01*
X017791Y008626D01*
X017791Y008752D01*
X017743Y008869D01*
X017653Y008959D01*
X017631Y008968D01*
X017614Y009109D01*
X017573Y009244D01*
X017585Y009257D01*
X017634Y009374D01*
X017634Y009500D01*
X017585Y009617D01*
X017496Y009707D01*
X017625Y009521D02*
X021308Y009521D01*
X021466Y009363D02*
X017629Y009363D01*
X017585Y009204D02*
X021506Y009204D01*
X021506Y009046D02*
X017621Y009046D01*
X017725Y008887D02*
X021506Y008887D01*
X021506Y008728D02*
X017791Y008728D01*
X017768Y008570D02*
X021506Y008570D01*
X021506Y008411D02*
X017634Y008411D01*
X017312Y008411D02*
X012289Y008411D01*
X012275Y008397D02*
X012407Y008529D01*
X012478Y008702D01*
X012478Y008889D01*
X012407Y009062D01*
X012275Y009194D01*
X012102Y009265D01*
X011915Y009265D01*
X011742Y009194D01*
X011610Y009062D01*
X011539Y008889D01*
X011539Y008702D01*
X011610Y008529D01*
X011742Y008397D01*
X011915Y008325D01*
X012102Y008325D01*
X012275Y008397D01*
X012424Y008570D02*
X017178Y008570D01*
X017155Y008728D02*
X012478Y008728D01*
X012478Y008887D02*
X017221Y008887D01*
X017220Y009046D02*
X012414Y009046D01*
X012250Y009204D02*
X017099Y009204D01*
X017002Y009363D02*
X003479Y009363D01*
X003539Y009521D02*
X017006Y009521D01*
X017108Y009680D02*
X003539Y009680D01*
X003299Y009204D02*
X011767Y009204D01*
X011603Y009046D02*
X002811Y009046D01*
X002811Y009204D02*
X002907Y009204D01*
X002842Y008887D02*
X002811Y008887D01*
X003364Y008887D02*
X003735Y008887D01*
X003788Y008940D02*
X003645Y008796D01*
X003567Y008609D01*
X003567Y008406D01*
X003645Y008218D01*
X003788Y008075D01*
X003976Y007997D01*
X004178Y007997D01*
X004366Y008075D01*
X004509Y008218D01*
X004587Y008406D01*
X004587Y008609D01*
X004509Y008796D01*
X004366Y008940D01*
X004178Y009017D01*
X003976Y009017D01*
X003788Y008940D01*
X003617Y008728D02*
X003493Y008728D01*
X003539Y008570D02*
X003567Y008570D01*
X003567Y008411D02*
X003525Y008411D01*
X003441Y008253D02*
X003630Y008253D01*
X003769Y008094D02*
X002811Y008094D01*
X002811Y007936D02*
X021506Y007936D01*
X021506Y008094D02*
X004385Y008094D01*
X004524Y008253D02*
X021506Y008253D01*
X021506Y007777D02*
X018599Y007777D01*
X018847Y007619D02*
X019676Y007619D01*
X019524Y007460D02*
X019488Y007460D01*
X019493Y006984D02*
X012471Y006984D01*
X012478Y006968D02*
X012407Y007140D01*
X012275Y007273D01*
X012102Y007344D01*
X011915Y007344D01*
X011742Y007273D01*
X011610Y007140D01*
X011539Y006968D01*
X011539Y006781D01*
X011610Y006608D01*
X011742Y006476D01*
X011915Y006404D01*
X012102Y006404D01*
X012275Y006476D01*
X012407Y006608D01*
X012478Y006781D01*
X012478Y006968D01*
X012478Y006826D02*
X019600Y006826D01*
X019665Y006509D02*
X012308Y006509D01*
X012432Y006667D02*
X019894Y006667D01*
X019579Y006350D02*
X002811Y006350D01*
X002811Y006192D02*
X019552Y006192D01*
X019573Y006033D02*
X002811Y006033D01*
X002811Y005875D02*
X019651Y005875D01*
X019862Y005716D02*
X002811Y005716D01*
X002811Y005558D02*
X019613Y005558D01*
X019499Y005399D02*
X002811Y005399D01*
X002811Y005241D02*
X019452Y005241D01*
X019453Y005082D02*
X002811Y005082D01*
X002811Y004923D02*
X019519Y004923D01*
X019661Y004765D02*
X002811Y004765D01*
X002811Y004606D02*
X005782Y004606D01*
X005828Y004625D02*
X005641Y004548D01*
X005497Y004404D01*
X005419Y004217D01*
X005419Y004165D01*
X005362Y004304D01*
X005218Y004448D01*
X005541Y004448D01*
X005450Y004289D02*
X005368Y004289D01*
X005218Y004448D02*
X005031Y004525D01*
X004828Y004525D01*
X004641Y004448D01*
X002811Y004448D01*
X002811Y004289D02*
X004491Y004289D01*
X004497Y004304D02*
X004419Y004117D01*
X004419Y003914D01*
X004497Y003726D01*
X004641Y003583D01*
X004828Y003505D01*
X005031Y003505D01*
X005218Y003583D01*
X005362Y003726D01*
X005439Y003914D01*
X005439Y003966D01*
X005497Y003826D01*
X005641Y003683D01*
X005828Y003605D01*
X006031Y003605D01*
X006218Y003683D01*
X006362Y003826D01*
X006419Y003966D01*
X006419Y003914D01*
X006497Y003726D01*
X006641Y003583D01*
X006828Y003505D01*
X007031Y003505D01*
X007218Y003583D01*
X007362Y003726D01*
X007439Y003914D01*
X007439Y003966D01*
X007497Y003826D01*
X007641Y003683D01*
X007828Y003605D01*
X008031Y003605D01*
X008218Y003683D01*
X008362Y003826D01*
X008419Y003966D01*
X008419Y003914D01*
X008497Y003726D01*
X008641Y003583D01*
X008828Y003505D01*
X009031Y003505D01*
X009218Y003583D01*
X009362Y003726D01*
X009439Y003914D01*
X009439Y003966D01*
X009497Y003826D01*
X009641Y003683D01*
X009828Y003605D01*
X010031Y003605D01*
X010218Y003683D01*
X010362Y003826D01*
X010419Y003966D01*
X010419Y003914D01*
X010497Y003726D01*
X010641Y003583D01*
X010828Y003505D01*
X011031Y003505D01*
X011218Y003583D01*
X011362Y003726D01*
X011439Y003914D01*
X011439Y003958D01*
X011494Y003826D01*
X011637Y003683D01*
X011825Y003605D01*
X012028Y003605D01*
X012215Y003683D01*
X012359Y003826D01*
X012416Y003965D01*
X012416Y003913D01*
X012494Y003726D01*
X012637Y003583D01*
X012825Y003505D01*
X013028Y003505D01*
X013215Y003583D01*
X013359Y003726D01*
X013436Y003913D01*
X013436Y003965D01*
X013494Y003826D01*
X013637Y003683D01*
X013825Y003605D01*
X014028Y003605D01*
X014215Y003683D01*
X014359Y003826D01*
X014416Y003965D01*
X014416Y003913D01*
X014494Y003726D01*
X014637Y003583D01*
X014825Y003505D01*
X015028Y003505D01*
X015215Y003583D01*
X015359Y003726D01*
X015436Y003913D01*
X015436Y003965D01*
X015494Y003826D01*
X015637Y003683D01*
X015825Y003605D01*
X016028Y003605D01*
X016215Y003683D01*
X016359Y003826D01*
X016416Y003965D01*
X016416Y003913D01*
X016494Y003726D01*
X016637Y003583D01*
X016825Y003505D01*
X017028Y003505D01*
X017215Y003583D01*
X017359Y003726D01*
X017436Y003913D01*
X017436Y003965D01*
X017494Y003826D01*
X017637Y003683D01*
X017825Y003605D01*
X018028Y003605D01*
X018215Y003683D01*
X018359Y003826D01*
X018436Y004013D01*
X018436Y004216D01*
X018359Y004404D01*
X018215Y004547D01*
X018028Y004625D01*
X017825Y004625D01*
X017637Y004547D01*
X017494Y004404D01*
X017416Y004216D01*
X017416Y004165D01*
X017359Y004304D01*
X017215Y004447D01*
X017028Y004525D01*
X016825Y004525D01*
X016637Y004447D01*
X016494Y004304D01*
X016436Y004165D01*
X016436Y004216D01*
X016359Y004404D01*
X016215Y004547D01*
X016028Y004625D01*
X015825Y004625D01*
X015637Y004547D01*
X015494Y004404D01*
X015416Y004216D01*
X015416Y004165D01*
X015359Y004304D01*
X015215Y004447D01*
X015028Y004525D01*
X014825Y004525D01*
X014637Y004447D01*
X014494Y004304D01*
X014436Y004165D01*
X014436Y004216D01*
X014359Y004404D01*
X014215Y004547D01*
X014028Y004625D01*
X013825Y004625D01*
X013637Y004547D01*
X013494Y004404D01*
X013416Y004216D01*
X013416Y004165D01*
X013359Y004304D01*
X013215Y004447D01*
X013028Y004525D01*
X012825Y004525D01*
X012637Y004447D01*
X012494Y004304D01*
X012436Y004165D01*
X012436Y004216D01*
X012359Y004404D01*
X012215Y004547D01*
X012028Y004625D01*
X011825Y004625D01*
X011637Y004547D01*
X011494Y004404D01*
X011416Y004216D01*
X011416Y004172D01*
X011362Y004304D01*
X011218Y004448D01*
X011538Y004448D01*
X011447Y004289D02*
X011368Y004289D01*
X011218Y004448D02*
X011031Y004525D01*
X010828Y004525D01*
X010641Y004448D01*
X010318Y004448D01*
X010362Y004404D02*
X010218Y004548D01*
X010031Y004625D01*
X009828Y004625D01*
X009641Y004548D01*
X009497Y004404D01*
X009419Y004217D01*
X009419Y004165D01*
X009362Y004304D01*
X009218Y004448D01*
X009541Y004448D01*
X009450Y004289D02*
X009368Y004289D01*
X009218Y004448D02*
X009031Y004525D01*
X008828Y004525D01*
X008641Y004448D01*
X008318Y004448D01*
X008362Y004404D02*
X008218Y004548D01*
X008031Y004625D01*
X007828Y004625D01*
X007641Y004548D01*
X007497Y004404D01*
X007419Y004217D01*
X007419Y004165D01*
X007362Y004304D01*
X007218Y004448D01*
X007541Y004448D01*
X007450Y004289D02*
X007368Y004289D01*
X007218Y004448D02*
X007031Y004525D01*
X006828Y004525D01*
X006641Y004448D01*
X006318Y004448D01*
X006362Y004404D02*
X006218Y004548D01*
X006031Y004625D01*
X005828Y004625D01*
X006077Y004606D02*
X007782Y004606D01*
X008077Y004606D02*
X009782Y004606D01*
X010077Y004606D02*
X011780Y004606D01*
X012073Y004606D02*
X013780Y004606D01*
X013538Y004448D02*
X013214Y004448D01*
X013365Y004289D02*
X013447Y004289D01*
X013395Y003814D02*
X013506Y003814D01*
X013704Y003655D02*
X013288Y003655D01*
X012565Y003655D02*
X012149Y003655D01*
X012346Y003814D02*
X012458Y003814D01*
X012488Y004289D02*
X012406Y004289D01*
X012315Y004448D02*
X012639Y004448D01*
X011704Y003655D02*
X011290Y003655D01*
X011398Y003814D02*
X011506Y003814D01*
X010568Y003655D02*
X010151Y003655D01*
X010349Y003814D02*
X010461Y003814D01*
X010439Y004165D02*
X010439Y004217D01*
X010362Y004404D01*
X010409Y004289D02*
X010491Y004289D01*
X010497Y004304D02*
X010439Y004165D01*
X010497Y004304D02*
X010641Y004448D01*
X009708Y003655D02*
X009290Y003655D01*
X009398Y003814D02*
X009510Y003814D01*
X008568Y003655D02*
X008151Y003655D01*
X008349Y003814D02*
X008461Y003814D01*
X008439Y004165D02*
X008439Y004217D01*
X008362Y004404D01*
X008409Y004289D02*
X008491Y004289D01*
X008497Y004304D02*
X008439Y004165D01*
X008497Y004304D02*
X008641Y004448D01*
X007708Y003655D02*
X007290Y003655D01*
X007398Y003814D02*
X007510Y003814D01*
X006568Y003655D02*
X006151Y003655D01*
X006349Y003814D02*
X006461Y003814D01*
X006439Y004165D02*
X006439Y004217D01*
X006362Y004404D01*
X006409Y004289D02*
X006491Y004289D01*
X006497Y004304D02*
X006439Y004165D01*
X006497Y004304D02*
X006641Y004448D01*
X005708Y003655D02*
X005290Y003655D01*
X005398Y003814D02*
X005510Y003814D01*
X004568Y003655D02*
X002811Y003655D01*
X002811Y003497D02*
X021506Y003497D01*
X021506Y003655D02*
X018149Y003655D01*
X018346Y003814D02*
X021506Y003814D01*
X021506Y003972D02*
X018419Y003972D01*
X018436Y004131D02*
X021506Y004131D01*
X021506Y004289D02*
X018406Y004289D01*
X018315Y004448D02*
X021506Y004448D01*
X021506Y004606D02*
X018073Y004606D01*
X017780Y004606D02*
X016073Y004606D01*
X016315Y004448D02*
X016639Y004448D01*
X016488Y004289D02*
X016406Y004289D01*
X016458Y003814D02*
X016346Y003814D01*
X016149Y003655D02*
X016565Y003655D01*
X017288Y003655D02*
X017704Y003655D01*
X017506Y003814D02*
X017395Y003814D01*
X017365Y004289D02*
X017447Y004289D01*
X017538Y004448D02*
X017214Y004448D01*
X015780Y004606D02*
X014073Y004606D01*
X014315Y004448D02*
X014639Y004448D01*
X014488Y004289D02*
X014406Y004289D01*
X014458Y003814D02*
X014346Y003814D01*
X014149Y003655D02*
X014565Y003655D01*
X015288Y003655D02*
X015704Y003655D01*
X015506Y003814D02*
X015395Y003814D01*
X015365Y004289D02*
X015447Y004289D01*
X015538Y004448D02*
X015214Y004448D01*
X012404Y007143D02*
X019138Y007143D01*
X018558Y007302D02*
X018482Y007302D01*
X018196Y007302D02*
X012205Y007302D01*
X011812Y007302D02*
X002811Y007302D01*
X002811Y007460D02*
X018047Y007460D01*
X018021Y007619D02*
X002811Y007619D01*
X002811Y007777D02*
X018080Y007777D01*
X020248Y007619D02*
X020680Y007619D01*
X020528Y007460D02*
X020400Y007460D01*
X021252Y007619D02*
X021506Y007619D01*
X021506Y007460D02*
X021404Y007460D01*
X021470Y007302D02*
X021506Y007302D01*
X021506Y007143D02*
X021476Y007143D01*
X021506Y006984D02*
X021435Y006984D01*
X021506Y006826D02*
X021328Y006826D01*
X021235Y006667D02*
X021506Y006667D01*
X021506Y006509D02*
X021464Y006509D01*
X021477Y005875D02*
X021506Y005875D01*
X021506Y005716D02*
X021267Y005716D01*
X021506Y005558D02*
X020311Y005558D01*
X020262Y005716D02*
X020866Y005716D01*
X020656Y005875D02*
X020473Y005875D01*
X020551Y006033D02*
X020577Y006033D01*
X020426Y005399D02*
X021506Y005399D01*
X021506Y005241D02*
X020472Y005241D01*
X020471Y005082D02*
X021506Y005082D01*
X021506Y004923D02*
X020406Y004923D01*
X020263Y004765D02*
X021506Y004765D01*
X021506Y003338D02*
X002811Y003338D01*
X002811Y003179D02*
X021506Y003179D01*
X014258Y010155D02*
X002811Y010155D01*
X002811Y009997D02*
X002935Y009997D01*
X002811Y010314D02*
X014142Y010314D01*
X014123Y010472D02*
X002811Y010472D01*
X002811Y010631D02*
X014201Y010631D01*
X011728Y008411D02*
X004587Y008411D01*
X004587Y008570D02*
X011593Y008570D01*
X011539Y008728D02*
X004537Y008728D01*
X004419Y008887D02*
X011539Y008887D01*
X011613Y007143D02*
X002811Y007143D01*
X002811Y006984D02*
X011546Y006984D01*
X011539Y006826D02*
X002811Y006826D01*
X002811Y006667D02*
X011585Y006667D01*
X011709Y006509D02*
X002811Y006509D01*
X004641Y004448D02*
X004497Y004304D01*
X004425Y004131D02*
X002811Y004131D01*
X002811Y003972D02*
X004419Y003972D01*
X004461Y003814D02*
X002811Y003814D01*
X004490Y011197D02*
X004490Y011197D01*
X016456Y015070D02*
X016662Y015070D01*
X016596Y014912D02*
X016568Y014912D01*
X016610Y014595D02*
X016637Y014595D01*
X016545Y014436D02*
X016748Y014436D01*
X017458Y014436D02*
X020482Y014436D01*
X020482Y014595D02*
X017569Y014595D01*
X017613Y014753D02*
X020482Y014753D01*
X020482Y014912D02*
X020427Y014912D01*
X019737Y014912D02*
X017610Y014912D01*
X017544Y015070D02*
X019620Y015070D01*
X019572Y015229D02*
X017398Y015229D01*
X018762Y012692D02*
X020482Y012692D01*
X020482Y012534D02*
X018877Y012534D01*
X019141Y012375D02*
X020482Y012375D01*
X020482Y012216D02*
X019427Y012216D01*
X019713Y012058D02*
X020482Y012058D01*
X020482Y011899D02*
X019999Y011899D01*
X020044Y011874D02*
X020044Y011874D01*
X020249Y011741D02*
X020299Y011741D01*
X020458Y011741D02*
X020482Y011741D01*
X016931Y010790D02*
X016836Y010790D01*
X020261Y017765D02*
X020482Y017765D01*
X017680Y021823D02*
X017680Y021823D01*
X017461Y021823D02*
X017461Y021823D01*
D16*
X007827Y007114D03*
D17*
X010229Y007823D03*
X013772Y009477D03*
X015032Y009870D03*
X016253Y008925D03*
X016213Y008374D03*
X018457Y008689D03*
X020150Y009634D03*
X012237Y012272D03*
X010190Y013729D03*
X010150Y014162D03*
X009560Y014162D03*
X009560Y013729D03*
X006961Y014240D03*
X005859Y012980D03*
X005583Y012154D03*
X005308Y011169D03*
X007867Y011524D03*
D18*
X009323Y012705D03*
X009914Y012736D03*
X010780Y012862D03*
X009678Y011799D03*
X007800Y014406D03*
X009914Y015500D03*
X013418Y012508D03*
X013930Y012390D03*
X013930Y013177D03*
X014560Y013256D03*
X015229Y011603D03*
X014953Y010973D03*
X014402Y011406D03*
X014442Y010421D03*
X016764Y012469D03*
X016725Y013886D03*
X018575Y012429D03*
X017119Y011051D03*
X017316Y009437D03*
X017473Y008689D03*
X018339Y007587D03*
X020379Y011429D03*
D19*
X019962Y007185D02*
X019631Y007235D01*
X019302Y007300D01*
X018977Y007380D01*
X018656Y007476D01*
X018339Y007586D01*
X015228Y011603D02*
X015295Y011685D01*
X015366Y011765D01*
X015441Y011841D01*
X015519Y011913D01*
X015600Y011982D01*
X015685Y012047D01*
X015772Y012107D01*
X015863Y012164D01*
X015955Y012216D01*
X016051Y012264D01*
X016148Y012308D01*
X016247Y012346D01*
X016348Y012381D01*
X016450Y012410D01*
X016554Y012434D01*
X016659Y012454D01*
X016764Y012469D01*
X016725Y013886D02*
X014560Y013256D01*
X013418Y012508D02*
X013380Y012568D01*
X013345Y012630D01*
X013313Y012693D01*
X013285Y012758D01*
X013259Y012824D01*
X013237Y012891D01*
X013218Y012960D01*
X013202Y013029D01*
X013190Y013099D01*
X013182Y013169D01*
X013177Y013240D01*
X013175Y013311D01*
X013177Y013382D01*
X013182Y013453D01*
X010780Y012862D02*
X009914Y012736D01*
X009323Y012705D02*
X009678Y011799D01*
X013930Y012390D02*
X013942Y012653D01*
X013942Y012915D01*
X013930Y013178D01*
X014442Y010421D02*
X017119Y011051D01*
X017315Y009437D02*
X017366Y009253D01*
X017410Y009067D01*
X017445Y008879D01*
X017472Y008689D01*
X014954Y010973D02*
X014776Y011125D01*
X014592Y011270D01*
X014402Y011406D01*
X009914Y015500D02*
X007800Y014406D01*
X013103Y014802D02*
X013140Y014612D01*
X013169Y014420D01*
X013189Y014227D01*
X013200Y014033D01*
X013203Y013840D01*
X013196Y013646D01*
X013181Y013453D01*
X018576Y012429D02*
X019193Y012125D01*
X019794Y011791D01*
X020379Y011429D01*
D20*
X011961Y020225D02*
X010780Y020225D01*
X007394Y017666D02*
X006410Y017666D01*
M02*
