<?xml version="1.0" encoding="UTF-8" standalone="no"?>
<!-- Created with Inkscape (http://www.inkscape.org/) -->

<svg
   xmlns:dc="http://purl.org/dc/elements/1.1/"
   xmlns:cc="http://creativecommons.org/ns#"
   xmlns:rdf="http://www.w3.org/1999/02/22-rdf-syntax-ns#"
   xmlns:svg="http://www.w3.org/2000/svg"
   xmlns="http://www.w3.org/2000/svg"
   xmlns:sodipodi="http://sodipodi.sourceforge.net/DTD/sodipodi-0.dtd"
   xmlns:inkscape="http://www.inkscape.org/namespaces/inkscape"
   id="svg3710"
   version="1.1"
   inkscape:version="0.48.2 r9819"
   width="141.25"
   height="108.75"
   xml:space="preserve"
   sodipodi:docname="Passthrough Meter_cream.eps"><metadata
     id="metadata3716"><rdf:RDF><cc:Work
         rdf:about=""><dc:format>image/svg+xml</dc:format><dc:type
           rdf:resource="http://purl.org/dc/dcmitype/StillImage" /><dc:title></dc:title></cc:Work></rdf:RDF></metadata><defs
     id="defs3714" /><sodipodi:namedview
     pagecolor="#ffffff"
     bordercolor="#666666"
     borderopacity="1"
     objecttolerance="10"
     gridtolerance="10"
     guidetolerance="10"
     inkscape:pageopacity="0"
     inkscape:pageshadow="2"
     inkscape:window-width="906"
     inkscape:window-height="660"
     id="namedview3712"
     showgrid="false"
     inkscape:zoom="4.3402299"
     inkscape:cx="95.96928"
     inkscape:cy="53.914195"
     inkscape:window-x="0"
     inkscape:window-y="0"
     inkscape:window-maximized="0"
     inkscape:current-layer="g3718" /><g
     id="g3718"
     inkscape:groupmode="layer"
     inkscape:label="ink_ext_XXXXXX"
     transform="matrix(1.25,0,0,-1.25,0,108.75)"><path
       inkscape:connector-curvature="0"
       id="path3722"
       style="fill:#000000;fill-opacity:1;fill-rule:nonzero;stroke:none"
       d="m 92.495735,13.289918 0.669374,0 0,2.740504 -0.669374,0 0,-2.740504 z" /><path
       inkscape:connector-curvature="0"
       id="path3724"
       style="fill:#000000;fill-opacity:1;fill-rule:nonzero;stroke:none"
       d="m 90.225835,13.289918 0.669374,0 0,2.740504 -0.669374,0 0,-2.740504 z" /><path
       inkscape:connector-curvature="0"
       id="path3726"
       style="fill:#000000;fill-opacity:1;fill-rule:nonzero;stroke:none"
       d="m 94.760549,13.289918 0.669936,0 0,2.740504 -0.669936,0 0,-2.740504 z" /><path
       inkscape:connector-curvature="0"
       id="path3728"
       style="fill:#000000;fill-opacity:1;fill-rule:nonzero;stroke:none"
       d="m 97.030449,13.289918 0.669936,0 0,2.740504 -0.669936,0 0,-2.740504 z" /><path
       inkscape:connector-curvature="0"
       id="path3730"
       style="fill:#000000;fill-opacity:1;fill-rule:nonzero;stroke:none"
       d="m 99.299649,13.289918 0.669936,0 0,2.740504 -0.669936,0 0,-2.740504 z" /><path
       inkscape:connector-curvature="0"
       id="path3732"
       style="fill:#000000;fill-opacity:1;fill-rule:nonzero;stroke:none"
       d="m 87.960549,13.289918 0.669936,0 0,2.740504 -0.669936,0 0,-2.740504 z" /><path
       inkscape:connector-curvature="0"
       id="path3734"
       style="fill:#000000;fill-opacity:1;fill-rule:nonzero;stroke:none"
       d="m 85.690735,13.289918 0.669374,0 0,2.740504 -0.669374,0 0,-2.740504 z" /><path
       inkscape:connector-curvature="0"
       id="path3736"
       style="fill:#000000;fill-opacity:1;fill-rule:nonzero;stroke:none"
       d="m 83.424649,13.289918 0.669936,0 0,2.740504 -0.669936,0 0,-2.740504 z" /><path
       inkscape:connector-curvature="0"
       id="path3738"
       style="fill:#000000;fill-opacity:1;fill-rule:nonzero;stroke:none"
       d="m 102.7923,28.097657 2.74724,0 0,0.336024 -2.74724,0 0,-0.336024 z" /><path
       inkscape:connector-curvature="0"
       id="path3740"
       style="fill:#000000;fill-opacity:1;fill-rule:nonzero;stroke:none"
       d="m 102.7923,25.828457 2.74724,0 0,0.336024 -2.74724,0 0,-0.336024 z" /><path
       inkscape:connector-curvature="0"
       id="path3742"
       style="fill:#000000;fill-opacity:1;fill-rule:nonzero;stroke:none"
       d="m 102.7923,30.364186 2.74724,0 0,0.338872 -2.74724,0 0,-0.338872 z" /><path
       inkscape:connector-curvature="0"
       id="path3744"
       style="fill:#000000;fill-opacity:1;fill-rule:nonzero;stroke:none"
       d="m 102.7923,32.628986 2.74724,0 0,0.338872 -2.74724,0 0,-0.338872 z" /><path
       inkscape:connector-curvature="0"
       id="path3746"
       style="fill:#000000;fill-opacity:1;fill-rule:nonzero;stroke:none"
       d="m 102.7923,34.898939 2.74724,0 0,0.339155 -2.74724,0 0,-0.339155 z" /><path
       inkscape:connector-curvature="0"
       id="path3748"
       style="fill:#000000;fill-opacity:1;fill-rule:nonzero;stroke:none"
       d="m 102.7923,23.562457 2.74724,0 0,0.336024 -2.74724,0 0,-0.336024 z" /><path
       inkscape:connector-curvature="0"
       id="path3750"
       style="fill:#000000;fill-opacity:1;fill-rule:nonzero;stroke:none"
       d="m 102.7923,21.289186 2.74724,0 0,0.338872 -2.74724,0 0,-0.338872 z" /><path
       inkscape:connector-curvature="0"
       id="path3752"
       style="fill:#000000;fill-opacity:1;fill-rule:nonzero;stroke:none"
       d="m 102.7923,19.02731 2.74724,0 0,0.336308 -2.74724,0 0,-0.336308 z" /><path
       inkscape:connector-curvature="0"
       id="path3754"
       style="fill:#000000;fill-opacity:1;fill-rule:nonzero;stroke:none"
       d="m 77.852818,25.828457 2.740504,0 0,0.336024 -2.740504,0 0,-0.336024 z" /><path
       inkscape:connector-curvature="0"
       id="path3756"
       style="fill:#000000;fill-opacity:1;fill-rule:nonzero;stroke:none"
       d="m 77.852818,28.097657 2.740504,0 0,0.336024 -2.740504,0 0,-0.336024 z" /><path
       inkscape:connector-curvature="0"
       id="path3758"
       style="fill:#000000;fill-opacity:1;fill-rule:nonzero;stroke:none"
       d="m 77.852818,23.562457 2.740504,0 0,0.336024 -2.740504,0 0,-0.336024 z" /><path
       inkscape:connector-curvature="0"
       id="path3760"
       style="fill:#000000;fill-opacity:1;fill-rule:nonzero;stroke:none"
       d="m 77.852818,21.289186 2.740504,0 0,0.338872 -2.740504,0 0,-0.338872 z" /><path
       inkscape:connector-curvature="0"
       id="path3762"
       style="fill:#000000;fill-opacity:1;fill-rule:nonzero;stroke:none"
       d="m 77.852818,19.02731 2.740504,0 0,0.336308 -2.740504,0 0,-0.336308 z" /><path
       inkscape:connector-curvature="0"
       id="path3764"
       style="fill:#000000;fill-opacity:1;fill-rule:nonzero;stroke:none"
       d="m 77.852818,30.364186 2.740504,0 0,0.338872 -2.740504,0 0,-0.338872 z" /><path
       inkscape:connector-curvature="0"
       id="path3766"
       style="fill:#000000;fill-opacity:1;fill-rule:nonzero;stroke:none"
       d="m 77.852818,32.628986 2.740504,0 0,0.338872 -2.740504,0 0,-0.338872 z" /><path
       inkscape:connector-curvature="0"
       id="path3768"
       style="fill:#000000;fill-opacity:1;fill-rule:nonzero;stroke:none"
       d="m 77.852818,34.898939 2.740504,0 0,0.339155 -2.740504,0 0,-0.339155 z" /><path
       inkscape:connector-curvature="0"
       id="path3770"
       style="fill:#000000;fill-opacity:1;fill-rule:nonzero;stroke:none"
       d="m 90.225835,38.231718 0.669374,0 0,2.740504 -0.669374,0 0,-2.740504 z" /><path
       inkscape:connector-curvature="0"
       id="path3772"
       style="fill:#000000;fill-opacity:1;fill-rule:nonzero;stroke:none"
       d="m 92.495735,38.231718 0.669374,0 0,2.740504 -0.669374,0 0,-2.740504 z" /><path
       inkscape:connector-curvature="0"
       id="path3774"
       style="fill:#000000;fill-opacity:1;fill-rule:nonzero;stroke:none"
       d="m 87.960549,38.231718 0.669936,0 0,2.740504 -0.669936,0 0,-2.740504 z" /><path
       inkscape:connector-curvature="0"
       id="path3776"
       style="fill:#000000;fill-opacity:1;fill-rule:nonzero;stroke:none"
       d="m 85.690735,38.231718 0.669374,0 0,2.740504 -0.669374,0 0,-2.740504 z" /><path
       inkscape:connector-curvature="0"
       id="path3778"
       style="fill:#000000;fill-opacity:1;fill-rule:nonzero;stroke:none"
       d="m 83.424649,38.231718 0.669936,0 0,2.740504 -0.669936,0 0,-2.740504 z" /><path
       inkscape:connector-curvature="0"
       id="path3780"
       style="fill:#000000;fill-opacity:1;fill-rule:nonzero;stroke:none"
       d="m 94.760549,38.231718 0.669936,0 0,2.740504 -0.669936,0 0,-2.740504 z" /><path
       inkscape:connector-curvature="0"
       id="path3782"
       style="fill:#000000;fill-opacity:1;fill-rule:nonzero;stroke:none"
       d="m 97.030449,38.231718 0.669936,0 0,2.740504 -0.669936,0 0,-2.740504 z" /><path
       inkscape:connector-curvature="0"
       id="path3784"
       style="fill:#000000;fill-opacity:1;fill-rule:nonzero;stroke:none"
       d="m 99.299649,38.231718 0.669936,0 0,2.740504 -0.669936,0 0,-2.740504 z" /><path
       inkscape:connector-curvature="0"
       id="path3786"
       style="fill:#000000;fill-opacity:1;fill-rule:nonzero;stroke:none"
       d="m 39.309,24.473 2.04297,0 0,2.65195 -2.04297,0 0,-2.65195 z" /><path
       inkscape:connector-curvature="0"
       id="path3788"
       style="fill:#000000;fill-opacity:1;fill-rule:nonzero;stroke:none"
       d="m 39.309,29.8559 2.04297,0 0,2.65195 -2.04297,0 0,-2.65195 z" /><path
       inkscape:connector-curvature="0"
       id="path3790"
       style="fill:#000000;fill-opacity:1;fill-rule:nonzero;stroke:none"
       d="m 39.3672,17.2422 2.04297,0 0,2.65586 -2.04297,0 0,-2.65586 z" /><path
       inkscape:connector-curvature="0"
       id="path3792"
       style="fill:#000000;fill-opacity:1;fill-rule:nonzero;stroke:none"
       d="m 39.3672,11.8559 2.04297,0 0,2.65195 -2.04297,0 0,-2.65195 z" /><path
       inkscape:connector-curvature="0"
       id="path3794"
       style="fill:#000000;fill-opacity:1;fill-rule:nonzero;stroke:none"
       d="m 64.4488,29.4488 2.44922,0 0,2.44922 -2.44922,0 0,-2.44922 z" /><path
       inkscape:connector-curvature="0"
       id="path3796"
       style="fill:#000000;fill-opacity:1;fill-rule:nonzero;stroke:none"
       d="m 64.4488,23.777 2.44922,0 0,2.45313 -2.44922,0 0,-2.45313 z" /><path
       inkscape:connector-curvature="0"
       id="path3798"
       style="fill:#000000;fill-opacity:1;fill-rule:nonzero;stroke:none"
       d="m 70.9691,32.598 2.44883,0 0,2.44883 -2.44883,0 0,-2.44883 z" /><path
       inkscape:connector-curvature="0"
       id="path3800"
       style="fill:#000000;fill-opacity:1;fill-rule:nonzero;stroke:none"
       d="m 70.9691,26.9301 2.44883,0 0,2.44492 -2.44883,0 0,-2.44492 z" /><path
       inkscape:connector-curvature="0"
       id="path3802"
       style="fill:#000000;fill-opacity:1;fill-rule:nonzero;stroke:none"
       d="m 110.371,30.3602 2.44883,0 0,2.44492 -2.44883,0 0,-2.44492 z" /><path
       inkscape:connector-curvature="0"
       id="path3804"
       style="fill:#000000;fill-opacity:1;fill-rule:nonzero;stroke:none"
       d="m 110.371,24.6879 2.44883,0 0,2.44922 -2.44883,0 0,-2.44922 z" /><path
       inkscape:connector-curvature="0"
       id="path3806"
       style="fill:#000000;fill-opacity:1;fill-rule:nonzero;stroke:none"
       d="m 25.173978,58.323093 0.557828,0 0,2.643754 -0.557828,0 0,-2.643754 z" /><path
       inkscape:connector-curvature="0"
       id="path3808"
       style="fill:#000000;fill-opacity:1;fill-rule:nonzero;stroke:none"
       d="m 22.479078,58.323093 0.557828,0 0,2.643754 -0.557828,0 0,-2.643754 z" /><path
       inkscape:connector-curvature="0"
       id="path3810"
       style="fill:#000000;fill-opacity:1;fill-rule:nonzero;stroke:none"
       d="m 27.865078,58.323093 0.557828,0 0,2.643754 -0.557828,0 0,-2.643754 z" /><path
       inkscape:connector-curvature="0"
       id="path3812"
       style="fill:#000000;fill-opacity:1;fill-rule:nonzero;stroke:none"
       d="m 27.865078,65.123093 0.557828,0 0,2.643754 -0.557828,0 0,-2.643754 z" /><path
       inkscape:connector-curvature="0"
       id="path3814"
       style="fill:#000000;fill-opacity:1;fill-rule:nonzero;stroke:none"
       d="m 25.173978,65.123093 0.557828,0 0,2.643754 -0.557828,0 0,-2.643754 z" /><path
       inkscape:connector-curvature="0"
       id="path3816"
       style="fill:#000000;fill-opacity:1;fill-rule:nonzero;stroke:none"
       d="m 22.479078,65.123093 0.557828,0 0,2.643754 -0.557828,0 0,-2.643754 z" /><path
       inkscape:connector-curvature="0"
       id="path3818"
       style="fill:#000000;fill-opacity:1;fill-rule:nonzero;stroke:none"
       d="m 15.609,58.223 2.44883,0 0,2.44883 -2.44883,0 0,-2.44883 z" /><path
       inkscape:connector-curvature="0"
       id="path3820"
       style="fill:#000000;fill-opacity:1;fill-rule:nonzero;stroke:none"
       d="m 15.609,63.891 2.44883,0 0,2.44883 -2.44883,0 0,-2.44883 z" /><path
       inkscape:connector-curvature="0"
       id="path3822"
       style="fill:#000000;fill-opacity:1;fill-rule:nonzero;stroke:none"
       d="m 14.898,53.434 2.45313,0 0,2.44492 -2.45313,0 0,-2.44492 z" /><path
       inkscape:connector-curvature="0"
       id="path3824"
       style="fill:#000000;fill-opacity:1;fill-rule:nonzero;stroke:none"
       d="m 9.22695,53.434 2.45313,0 0,2.44492 -2.45313,0 0,-2.44492 z" /><path
       inkscape:connector-curvature="0"
       id="path3826"
       style="fill:#000000;fill-opacity:1;fill-rule:nonzero;stroke:none"
       d="m 34.598,61.4262 2.45313,0 0,2.44883 -2.45313,0 0,-2.44883 z" /><path
       inkscape:connector-curvature="0"
       id="path3828"
       style="fill:#000000;fill-opacity:1;fill-rule:nonzero;stroke:none"
       d="m 40.2699,61.4262 2.44922,0 0,2.44883 -2.44922,0 0,-2.44883 z" /><path
       inkscape:connector-curvature="0"
       id="path3830"
       style="fill:#000000;fill-opacity:1;fill-rule:nonzero;stroke:none"
       d="m 24.9922,78.3211 2.44883,0 0,2.44883 -2.44883,0 0,-2.44883 z" /><path
       inkscape:connector-curvature="0"
       id="path3832"
       style="fill:#000000;fill-opacity:1;fill-rule:nonzero;stroke:none"
       d="m 19.3238,78.3211 2.44922,0 0,2.44883 -2.44922,0 0,-2.44883 z" /><path
       inkscape:connector-curvature="0"
       id="path3834"
       style="fill:#000000;fill-opacity:1;fill-rule:nonzero;stroke:none"
       d="m 95.516,48.4379 2.45313,0 0,2.45313 -2.45313,0 0,-2.45313 z" /><path
       inkscape:connector-curvature="0"
       id="path3836"
       style="fill:#000000;fill-opacity:1;fill-rule:nonzero;stroke:none"
       d="m 95.516,54.1102 2.45313,0 0,2.44883 -2.45313,0 0,-2.44883 z" /><path
       inkscape:connector-curvature="0"
       id="path3838"
       style="fill:#000000;fill-opacity:1;fill-rule:nonzero;stroke:none"
       d="m 89.902,54.141 2.45313,0 0,2.44883 -2.45313,0 0,-2.44883 z" /><path
       inkscape:connector-curvature="0"
       id="path3840"
       style="fill:#000000;fill-opacity:1;fill-rule:nonzero;stroke:none"
       d="m 89.902,48.4691 2.45313,0 0,2.44883 -2.45313,0 0,-2.44883 z" /><path
       inkscape:connector-curvature="0"
       id="path3842"
       style="fill:#000000;fill-opacity:1;fill-rule:nonzero;stroke:none"
       d="m 9.35508,3.68281 3.05898,0 0,3.26602 -3.05898,0 0,-3.26602 z" /><path
       inkscape:connector-curvature="0"
       id="path3844"
       style="fill:#000000;fill-opacity:1;fill-rule:nonzero;stroke:none"
       d="m 0.305078,7.21094 2.45273,0 0,2.44922 -2.45273,0 0,-2.44922 z" /><path
       inkscape:connector-curvature="0"
       id="path3846"
       style="fill:#000000;fill-opacity:1;fill-rule:nonzero;stroke:none"
       d="m 0.305078,1.53906 2.45273,0 0,2.44883 -2.45273,0 0,-2.44883 z" /><path
       inkscape:connector-curvature="0"
       id="path3848"
       style="fill:#000000;fill-opacity:1;fill-rule:nonzero;stroke:none"
       d="M 96.9801,3.375 96.348,1.00781 98.7148,0.375 99.348,2.74219" /><path
       inkscape:connector-curvature="0"
       id="path3850"
       style="fill:#000000;fill-opacity:1;fill-rule:nonzero;stroke:none"
       d="M 98.4488,8.84805 97.816,6.48398 100.18,5.84805 100.816,8.21484" /><path
       inkscape:connector-curvature="0"
       id="path3852"
       style="fill:#000000;fill-opacity:1;fill-rule:nonzero;stroke:none"
       d="m 20.8629,43.0621 3.67227,0 0,3.30508 -3.67227,0 0,-3.30508 z" /><path
       inkscape:connector-curvature="0"
       id="path3854"
       style="fill:#000000;fill-opacity:1;fill-rule:nonzero;stroke:none"
       d="m 11.793,43.0621 3.67188,0 0,3.30508 -3.67188,0 0,-3.30508 z" /><path
       inkscape:connector-curvature="0"
       id="path3856"
       style="fill:#000000;fill-opacity:1;fill-rule:nonzero;stroke:none"
       d="m 19.457,14.5738 3.67188,0 0,3.30508 -3.67188,0 0,-3.30508 z" /><path
       inkscape:connector-curvature="0"
       id="path3858"
       style="fill:#000000;fill-opacity:1;fill-rule:nonzero;stroke:none"
       d="m 10.3871,14.5738 3.67188,0 0,3.30508 -3.67188,0 0,-3.30508 z" /><path
       inkscape:connector-curvature="0"
       id="path3860"
       style="fill:#000000;fill-opacity:1;fill-rule:nonzero;stroke:none"
       d="m 22.2699,71.9691 2.44922,0 0,2.44883 -2.44922,0 0,-2.44883 z" /><path
       inkscape:connector-curvature="0"
       id="path3862"
       style="fill:#000000;fill-opacity:1;fill-rule:nonzero;stroke:none"
       d="m 16.598,71.9691 2.45313,0 0,2.44883 -2.45313,0 0,-2.44883 z" /><path
       inkscape:connector-curvature="0"
       id="path3864"
       style="fill:#000000;fill-opacity:1;fill-rule:nonzero;stroke:none"
       d="m 59.1211,39.3711 2.44883,0 0,2.44883 -2.44883,0 0,-2.44883 z" /><path
       inkscape:connector-curvature="0"
       id="path3866"
       style="fill:#000000;fill-opacity:1;fill-rule:nonzero;stroke:none"
       d="m 64.7852,39.3711 2.45273,0 0,2.44883 -2.45273,0 0,-2.44883 z" /><path
       inkscape:connector-curvature="0"
       id="path3868"
       style="fill:#000000;fill-opacity:1;fill-rule:nonzero;stroke:none"
       d="m 7.82383,29.9879 4.69531,0 0,1.93828 -4.69531,0 0,-1.93828 z" /><path
       inkscape:connector-curvature="0"
       id="path3870"
       style="fill:#000000;fill-opacity:1;fill-rule:nonzero;stroke:none"
       d="m 7.82383,36.507 4.69531,0 0,1.93789 -4.69531,0 0,-1.93789 z" /><path
       inkscape:connector-curvature="0"
       id="path3872"
       style="fill:#000000;fill-opacity:1;fill-rule:nonzero;stroke:none"
       d="m 7.82383,23.468 4.69531,0 0,1.93789 -4.69531,0 0,-1.93789 z" /><path
       inkscape:connector-curvature="0"
       id="path3874"
       style="fill:#000000;fill-opacity:1;fill-rule:nonzero;stroke:none"
       d="m 24.5469,27.6398 4.69531,0 0,6.6332 -4.69531,0 0,-6.6332 z" /><path
       inkscape:connector-curvature="0"
       id="path3876"
       style="fill:#000000;fill-opacity:1;fill-rule:nonzero;stroke:none"
       d="m 35.7109,68.8789 4.13711,0 0,5.45703 -4.13711,0 0,-5.45703 z" /><path
       inkscape:connector-curvature="0"
       id="path3878"
       style="fill:#000000;fill-opacity:1;fill-rule:nonzero;stroke:none"
       d="m 31.310743,75.029608 1.714502,0 0,0.238918 -1.714502,0 0,-0.238918 z" /><path
       inkscape:connector-curvature="0"
       id="path3880"
       style="fill:#000000;fill-opacity:1;fill-rule:nonzero;stroke:none"
       d="m 31.310743,73.611608 1.714502,0 0,0.238918 -1.714502,0 0,-0.238918 z" /><path
       inkscape:connector-curvature="0"
       id="path3882"
       style="fill:#000000;fill-opacity:1;fill-rule:nonzero;stroke:none"
       d="m 31.310743,72.19299 1.714502,0 0,0.242051 -1.714502,0 0,-0.242051 z" /><path
       inkscape:connector-curvature="0"
       id="path3884"
       style="fill:#000000;fill-opacity:1;fill-rule:nonzero;stroke:none"
       d="m 31.310743,70.77589 1.714502,0 0,0.242051 -1.714502,0 0,-0.242051 z" /><path
       inkscape:connector-curvature="0"
       id="path3886"
       style="fill:#000000;fill-opacity:1;fill-rule:nonzero;stroke:none"
       d="m 31.310743,69.361608 1.714502,0 0,0.238918 -1.714502,0 0,-0.238918 z" /><path
       inkscape:connector-curvature="0"
       id="path3888"
       style="fill:#000000;fill-opacity:1;fill-rule:nonzero;stroke:none"
       d="m 31.310743,67.943261 1.714502,0 0,0.239203 -1.714502,0 0,-0.239203 z" /><path
       inkscape:connector-curvature="0"
       id="path3890"
       style="fill:#000000;fill-opacity:1;fill-rule:nonzero;stroke:none"
       d="m 42.532323,75.029608 1.721248,0 0,0.238918 -1.721248,0 0,-0.238918 z" /><path
       inkscape:connector-curvature="0"
       id="path3892"
       style="fill:#000000;fill-opacity:1;fill-rule:nonzero;stroke:none"
       d="m 42.532323,73.611608 1.721248,0 0,0.238918 -1.721248,0 0,-0.238918 z" /><path
       inkscape:connector-curvature="0"
       id="path3894"
       style="fill:#000000;fill-opacity:1;fill-rule:nonzero;stroke:none"
       d="m 42.532323,72.19299 1.721248,0 0,0.242051 -1.721248,0 0,-0.242051 z" /><path
       inkscape:connector-curvature="0"
       id="path3896"
       style="fill:#000000;fill-opacity:1;fill-rule:nonzero;stroke:none"
       d="m 42.532323,70.77589 1.721248,0 0,0.242051 -1.721248,0 0,-0.242051 z" /><path
       inkscape:connector-curvature="0"
       id="path3898"
       style="fill:#000000;fill-opacity:1;fill-rule:nonzero;stroke:none"
       d="m 42.532323,69.361608 1.721248,0 0,0.238918 -1.721248,0 0,-0.238918 z" /><path
       inkscape:connector-curvature="0"
       id="path3900"
       style="fill:#000000;fill-opacity:1;fill-rule:nonzero;stroke:none"
       d="m 42.532323,67.943261 1.721248,0 0,0.239203 -1.721248,0 0,-0.239203 z" /><path
       inkscape:connector-curvature="0"
       id="path3902"
       style="fill:#000000;fill-opacity:1;fill-rule:nonzero;stroke:none"
       d="m 13.5039,84.2809 1.83594,0 0,1.6332 -1.83594,0 0,-1.6332 z" /><path
       inkscape:connector-curvature="0"
       id="path3904"
       style="fill:#000000;fill-opacity:1;fill-rule:nonzero;stroke:none"
       d="m 13.5039,77.4801 1.83594,0 0,1.63281 -1.83594,0 0,-1.63281 z" /><path
       inkscape:connector-curvature="0"
       id="path3906"
       style="fill:#000000;fill-opacity:1;fill-rule:nonzero;stroke:none"
       d="m 79.8359,84.566 1.83594,0 0,1.63281 -1.83594,0 0,-1.63281 z" /><path
       inkscape:connector-curvature="0"
       id="path3908"
       style="fill:#000000;fill-opacity:1;fill-rule:nonzero;stroke:none"
       d="m 79.8359,77.766 1.83594,0 0,1.62891 -1.83594,0 0,-1.62891 z" /><path
       inkscape:connector-curvature="0"
       id="path3910"
       style="fill:#000000;fill-opacity:1;fill-rule:nonzero;stroke:none"
       d="m 53.734,79.625 2.44883,0 0,2.44492 -2.44883,0 0,-2.44492 z" /><path
       inkscape:connector-curvature="0"
       id="path3912"
       style="fill:#000000;fill-opacity:1;fill-rule:nonzero;stroke:none"
       d="m 59.402,79.625 2.45313,0 0,2.44492 -2.45313,0 0,-2.44492 z" /></g></svg>