G75*
G70*
%OFA0B0*%
%FSLAX24Y24*%
%IPPOS*%
%LPD*%
%AMOC8*
5,1,8,0,0,1.08239X$1,22.5*
%
%ADD10C,0.0000*%
%ADD11R,0.0138X0.0472*%
%ADD12R,0.0472X0.0138*%
%ADD13C,0.0660*%
%ADD14R,0.0394X0.0512*%
%ADD15R,0.0472X0.0472*%
%ADD16R,0.0157X0.0394*%
%ADD17C,0.1000*%
%ADD18C,0.0515*%
%ADD19C,0.0740*%
%ADD20R,0.0591X0.0630*%
%ADD21R,0.0472X0.0472*%
%ADD22R,0.0787X0.0709*%
%ADD23C,0.1500*%
%ADD24R,0.0906X0.0374*%
%ADD25R,0.0906X0.1280*%
%ADD26R,0.0984X0.1299*%
%ADD27R,0.0295X0.0098*%
%ADD28R,0.0354X0.0315*%
%ADD29C,0.0413*%
%ADD30C,0.0317*%
%ADD31C,0.0100*%
%ADD32C,0.0320*%
%ADD33C,0.0160*%
%ADD34C,0.0080*%
%ADD35C,0.0356*%
%ADD36C,0.0400*%
%ADD37C,0.3150*%
D10*
X002631Y002862D02*
X002631Y022429D01*
X020662Y022429D01*
X020662Y010421D01*
X021686Y009398D01*
X021686Y002862D01*
X002631Y002862D01*
X002847Y006917D02*
X002849Y006948D01*
X002855Y006979D01*
X002864Y007009D01*
X002877Y007038D01*
X002894Y007065D01*
X002914Y007089D01*
X002936Y007111D01*
X002962Y007130D01*
X002989Y007146D01*
X003018Y007158D01*
X003048Y007167D01*
X003079Y007172D01*
X003111Y007173D01*
X003142Y007170D01*
X003173Y007163D01*
X003203Y007153D01*
X003231Y007139D01*
X003257Y007121D01*
X003281Y007101D01*
X003302Y007077D01*
X003321Y007052D01*
X003336Y007024D01*
X003347Y006995D01*
X003355Y006964D01*
X003359Y006933D01*
X003359Y006901D01*
X003355Y006870D01*
X003347Y006839D01*
X003336Y006810D01*
X003321Y006782D01*
X003302Y006757D01*
X003281Y006733D01*
X003257Y006713D01*
X003231Y006695D01*
X003203Y006681D01*
X003173Y006671D01*
X003142Y006664D01*
X003111Y006661D01*
X003079Y006662D01*
X003048Y006667D01*
X003018Y006676D01*
X002989Y006688D01*
X002962Y006704D01*
X002936Y006723D01*
X002914Y006745D01*
X002894Y006769D01*
X002877Y006796D01*
X002864Y006825D01*
X002855Y006855D01*
X002849Y006886D01*
X002847Y006917D01*
X002847Y007980D02*
X002849Y008011D01*
X002855Y008042D01*
X002864Y008072D01*
X002877Y008101D01*
X002894Y008128D01*
X002914Y008152D01*
X002936Y008174D01*
X002962Y008193D01*
X002989Y008209D01*
X003018Y008221D01*
X003048Y008230D01*
X003079Y008235D01*
X003111Y008236D01*
X003142Y008233D01*
X003173Y008226D01*
X003203Y008216D01*
X003231Y008202D01*
X003257Y008184D01*
X003281Y008164D01*
X003302Y008140D01*
X003321Y008115D01*
X003336Y008087D01*
X003347Y008058D01*
X003355Y008027D01*
X003359Y007996D01*
X003359Y007964D01*
X003355Y007933D01*
X003347Y007902D01*
X003336Y007873D01*
X003321Y007845D01*
X003302Y007820D01*
X003281Y007796D01*
X003257Y007776D01*
X003231Y007758D01*
X003203Y007744D01*
X003173Y007734D01*
X003142Y007727D01*
X003111Y007724D01*
X003079Y007725D01*
X003048Y007730D01*
X003018Y007739D01*
X002989Y007751D01*
X002962Y007767D01*
X002936Y007786D01*
X002914Y007808D01*
X002894Y007832D01*
X002877Y007859D01*
X002864Y007888D01*
X002855Y007918D01*
X002849Y007949D01*
X002847Y007980D01*
X003319Y021012D02*
X003321Y021062D01*
X003327Y021112D01*
X003337Y021162D01*
X003350Y021210D01*
X003367Y021258D01*
X003388Y021304D01*
X003412Y021348D01*
X003440Y021390D01*
X003471Y021430D01*
X003505Y021467D01*
X003542Y021502D01*
X003581Y021533D01*
X003622Y021562D01*
X003666Y021587D01*
X003712Y021609D01*
X003759Y021627D01*
X003807Y021641D01*
X003856Y021652D01*
X003906Y021659D01*
X003956Y021662D01*
X004007Y021661D01*
X004057Y021656D01*
X004107Y021647D01*
X004155Y021635D01*
X004203Y021618D01*
X004249Y021598D01*
X004294Y021575D01*
X004337Y021548D01*
X004377Y021518D01*
X004415Y021485D01*
X004450Y021449D01*
X004483Y021410D01*
X004512Y021369D01*
X004538Y021326D01*
X004561Y021281D01*
X004580Y021234D01*
X004595Y021186D01*
X004607Y021137D01*
X004615Y021087D01*
X004619Y021037D01*
X004619Y020987D01*
X004615Y020937D01*
X004607Y020887D01*
X004595Y020838D01*
X004580Y020790D01*
X004561Y020743D01*
X004538Y020698D01*
X004512Y020655D01*
X004483Y020614D01*
X004450Y020575D01*
X004415Y020539D01*
X004377Y020506D01*
X004337Y020476D01*
X004294Y020449D01*
X004249Y020426D01*
X004203Y020406D01*
X004155Y020389D01*
X004107Y020377D01*
X004057Y020368D01*
X004007Y020363D01*
X003956Y020362D01*
X003906Y020365D01*
X003856Y020372D01*
X003807Y020383D01*
X003759Y020397D01*
X003712Y020415D01*
X003666Y020437D01*
X003622Y020462D01*
X003581Y020491D01*
X003542Y020522D01*
X003505Y020557D01*
X003471Y020594D01*
X003440Y020634D01*
X003412Y020676D01*
X003388Y020720D01*
X003367Y020766D01*
X003350Y020814D01*
X003337Y020862D01*
X003327Y020912D01*
X003321Y020962D01*
X003319Y021012D01*
X016981Y020973D02*
X016983Y021023D01*
X016989Y021073D01*
X016999Y021123D01*
X017012Y021171D01*
X017029Y021219D01*
X017050Y021265D01*
X017074Y021309D01*
X017102Y021351D01*
X017133Y021391D01*
X017167Y021428D01*
X017204Y021463D01*
X017243Y021494D01*
X017284Y021523D01*
X017328Y021548D01*
X017374Y021570D01*
X017421Y021588D01*
X017469Y021602D01*
X017518Y021613D01*
X017568Y021620D01*
X017618Y021623D01*
X017669Y021622D01*
X017719Y021617D01*
X017769Y021608D01*
X017817Y021596D01*
X017865Y021579D01*
X017911Y021559D01*
X017956Y021536D01*
X017999Y021509D01*
X018039Y021479D01*
X018077Y021446D01*
X018112Y021410D01*
X018145Y021371D01*
X018174Y021330D01*
X018200Y021287D01*
X018223Y021242D01*
X018242Y021195D01*
X018257Y021147D01*
X018269Y021098D01*
X018277Y021048D01*
X018281Y020998D01*
X018281Y020948D01*
X018277Y020898D01*
X018269Y020848D01*
X018257Y020799D01*
X018242Y020751D01*
X018223Y020704D01*
X018200Y020659D01*
X018174Y020616D01*
X018145Y020575D01*
X018112Y020536D01*
X018077Y020500D01*
X018039Y020467D01*
X017999Y020437D01*
X017956Y020410D01*
X017911Y020387D01*
X017865Y020367D01*
X017817Y020350D01*
X017769Y020338D01*
X017719Y020329D01*
X017669Y020324D01*
X017618Y020323D01*
X017568Y020326D01*
X017518Y020333D01*
X017469Y020344D01*
X017421Y020358D01*
X017374Y020376D01*
X017328Y020398D01*
X017284Y020423D01*
X017243Y020452D01*
X017204Y020483D01*
X017167Y020518D01*
X017133Y020555D01*
X017102Y020595D01*
X017074Y020637D01*
X017050Y020681D01*
X017029Y020727D01*
X017012Y020775D01*
X016999Y020823D01*
X016989Y020873D01*
X016983Y020923D01*
X016981Y020973D01*
D11*
X016906Y010244D03*
X016591Y010244D03*
X016276Y010244D03*
X017221Y010244D03*
X017536Y010244D03*
X017851Y010244D03*
X018166Y010244D03*
X018481Y010244D03*
X018481Y006780D03*
X018166Y006780D03*
X017851Y006780D03*
X017536Y006780D03*
X017221Y006780D03*
X016906Y006780D03*
X016591Y006780D03*
X016276Y006780D03*
D12*
X015646Y007410D03*
X015646Y007725D03*
X015646Y008040D03*
X015646Y008354D03*
X015646Y008669D03*
X015646Y008984D03*
X015646Y009299D03*
X015646Y009614D03*
X019111Y009614D03*
X019111Y009299D03*
X019111Y008984D03*
X019111Y008669D03*
X019111Y008354D03*
X019111Y008040D03*
X019111Y007725D03*
X019111Y007410D03*
D13*
X012009Y006874D03*
X012009Y008795D03*
D14*
X010245Y009075D03*
X010245Y008327D03*
X010253Y007323D03*
X010253Y006575D03*
D15*
X013764Y008217D03*
X013764Y009004D03*
X014670Y008654D03*
X014670Y009441D03*
X013812Y010382D03*
X013024Y010382D03*
X010406Y013445D03*
X009619Y013445D03*
X007906Y014910D03*
X007119Y014910D03*
X007497Y015791D03*
X008284Y015791D03*
X006981Y013788D03*
X006981Y013000D03*
X006883Y012335D03*
X006095Y012335D03*
X012276Y015973D03*
X013064Y015973D03*
X017300Y012433D03*
X018079Y012429D03*
X018079Y011642D03*
X017300Y011646D03*
X020142Y009130D03*
X020142Y008343D03*
X004856Y005915D03*
X004856Y005128D03*
D16*
X007804Y013028D03*
X008178Y013028D03*
X008552Y013028D03*
X008552Y013973D03*
X008178Y013973D03*
X007804Y013973D03*
D17*
X006843Y018610D03*
X014835Y018610D03*
D18*
X004560Y012547D03*
X003418Y012547D03*
X003512Y015874D03*
X003512Y019339D03*
X003418Y009083D03*
X004560Y009083D03*
D19*
X004097Y008005D03*
X004097Y006865D03*
X003929Y004115D03*
X004929Y004015D03*
X005929Y004115D03*
X006929Y004015D03*
X007929Y004115D03*
X008929Y004015D03*
X009929Y004115D03*
X010929Y004015D03*
X011926Y004115D03*
X012926Y004015D03*
X013926Y004115D03*
X014926Y004015D03*
X015926Y004115D03*
X016926Y004015D03*
X017926Y004115D03*
X018926Y004015D03*
X019962Y005185D03*
X020966Y005185D03*
X021066Y006185D03*
X020966Y007185D03*
X020062Y006185D03*
X019962Y007185D03*
X019982Y014288D03*
X020082Y015288D03*
X019982Y016288D03*
X020082Y017288D03*
X019982Y018288D03*
X020082Y019288D03*
X019982Y020288D03*
X020082Y021288D03*
X018103Y014702D03*
X017103Y014802D03*
X016103Y014702D03*
X015103Y014802D03*
X014103Y014702D03*
X013103Y014802D03*
D20*
X006155Y005482D03*
D21*
G36*
X018522Y005170D02*
X018399Y004715D01*
X017944Y004838D01*
X018067Y005293D01*
X018522Y005170D01*
G37*
G36*
X018726Y005931D02*
X018603Y005476D01*
X018148Y005599D01*
X018271Y006054D01*
X018726Y005931D01*
G37*
D22*
X007796Y010954D03*
X006536Y010954D03*
X006341Y006998D03*
X007601Y006998D03*
D23*
X005859Y018610D03*
X010229Y020736D03*
X011410Y020736D03*
X015820Y018610D03*
D24*
X006056Y009949D03*
X006056Y009043D03*
X006056Y008138D03*
D25*
X008379Y009043D03*
D26*
X009890Y014689D03*
D27*
X009111Y014591D03*
X009111Y014788D03*
X009111Y014984D03*
X009111Y015181D03*
X009111Y014394D03*
X009111Y014197D03*
X010670Y014197D03*
X010670Y014394D03*
X010670Y014591D03*
X010670Y014788D03*
X010670Y014984D03*
X010670Y015181D03*
D28*
X006646Y015618D03*
X006646Y016563D03*
X015859Y016603D03*
X015859Y015658D03*
D29*
X008418Y006996D03*
D30*
X010229Y007823D03*
X013772Y009477D03*
X015032Y009870D03*
X016253Y008925D03*
X016213Y008374D03*
X018457Y008689D03*
X020150Y009634D03*
X016253Y015618D03*
X013575Y015973D03*
X010190Y015146D03*
X009875Y014673D03*
X009599Y014240D03*
X010190Y014240D03*
X009599Y015146D03*
X010190Y012941D03*
X006509Y013776D03*
X006091Y012788D03*
X005898Y010973D03*
X006607Y014870D03*
X006646Y015264D03*
D31*
X007631Y016917D02*
X010584Y016051D01*
X011567Y015579D02*
X011562Y015515D01*
X011553Y015451D01*
X011540Y015388D01*
X011523Y015325D01*
X011502Y015264D01*
X011477Y015204D01*
X011449Y015146D01*
X011450Y015146D02*
X011433Y015117D01*
X011413Y015090D01*
X011389Y015066D01*
X011363Y015045D01*
X011335Y015027D01*
X011305Y015012D01*
X011274Y015000D01*
X011241Y014993D01*
X011208Y014989D01*
X011174Y014988D01*
X010670Y014984D01*
X010670Y014788D02*
X011371Y014791D01*
X011607Y014595D02*
X010670Y014591D01*
X011173Y015618D02*
X011137Y015668D01*
X011097Y015716D01*
X011055Y015762D01*
X011011Y015805D01*
X010964Y015846D01*
X010915Y015884D01*
X010864Y015920D01*
X010811Y015952D01*
X010756Y015981D01*
X010700Y016008D01*
X010642Y016031D01*
X010583Y016051D01*
X010071Y015933D02*
X007394Y016721D01*
X007351Y016735D01*
X007309Y016753D01*
X007268Y016774D01*
X007230Y016798D01*
X007193Y016825D01*
X007159Y016856D01*
X007128Y016889D01*
X007100Y016924D01*
X007075Y016962D01*
X007053Y017002D01*
X007034Y017043D01*
X007019Y017086D01*
X007008Y017131D01*
X007000Y017175D01*
X006996Y017221D01*
X006997Y017266D01*
X007000Y017312D01*
X006646Y016563D02*
X007497Y015791D01*
X007591Y015500D01*
X007595Y015478D01*
X007602Y015457D01*
X007612Y015437D01*
X007626Y015420D01*
X007643Y015405D01*
X007662Y015393D01*
X007682Y015385D01*
X007704Y015380D01*
X007726Y015379D01*
X007748Y015382D01*
X007749Y015382D02*
X008064Y015382D01*
X008339Y021012D02*
X008068Y021026D01*
X007797Y021028D01*
X007525Y021017D01*
X007255Y020993D01*
X006986Y020957D01*
X006719Y020908D01*
X006454Y020846D01*
X006193Y020772D01*
X005935Y020686D01*
X005682Y020588D01*
X005434Y020479D01*
X005191Y020357D01*
X004954Y020225D01*
X006292Y016564D02*
X006363Y016558D01*
X006434Y016554D01*
X006504Y016554D01*
X006575Y016558D01*
X006646Y016564D01*
X006292Y016563D02*
X003512Y015874D01*
X007001Y017311D02*
X007015Y017430D01*
X007023Y017550D01*
X007025Y017671D01*
X007022Y017791D01*
X007013Y017911D01*
X006998Y018030D01*
X006978Y018149D01*
X006953Y018266D01*
X006922Y018383D01*
X006886Y018497D01*
X006844Y018610D01*
X006922Y017744D02*
X006935Y017682D01*
X006951Y017620D01*
X006971Y017560D01*
X006995Y017501D01*
X007022Y017444D01*
X007052Y017388D01*
X007086Y017334D01*
X007123Y017282D01*
X007163Y017233D01*
X007205Y017186D01*
X007251Y017142D01*
X007299Y017100D01*
X007349Y017062D01*
X007402Y017026D01*
X007457Y016994D01*
X007513Y016965D01*
X007571Y016939D01*
X007631Y016917D01*
X007906Y014909D02*
X008010Y014879D01*
X008116Y014853D01*
X008222Y014831D01*
X008329Y014815D01*
X008437Y014802D01*
X008546Y014794D01*
X008654Y014791D01*
X009111Y014788D01*
X009111Y014591D02*
X008914Y014595D01*
X008913Y014579D01*
X008909Y014564D01*
X008902Y014550D01*
X008892Y014539D01*
X008880Y014529D01*
X008866Y014523D01*
X008851Y014519D01*
X009111Y014591D02*
X009296Y014591D01*
X009209Y014197D02*
X009111Y014197D01*
X009012Y014197D01*
X008851Y014519D02*
X008816Y014512D01*
X008783Y014502D01*
X008750Y014488D01*
X008719Y014471D01*
X008690Y014451D01*
X008663Y014428D01*
X008639Y014403D01*
X008617Y014375D01*
X008598Y014345D01*
X008582Y014314D01*
X008569Y014281D01*
X008560Y014247D01*
X008554Y014212D01*
X008552Y014177D01*
X010583Y012705D02*
X010648Y012787D01*
X010708Y012872D01*
X010765Y012959D01*
X010818Y013050D01*
X010866Y013142D01*
X010910Y013237D01*
X010950Y013333D01*
X010986Y013432D01*
X011016Y013531D01*
X011016Y013532D02*
X011030Y013574D01*
X011048Y013615D01*
X011069Y013654D01*
X011094Y013692D01*
X011121Y013727D01*
X011152Y013759D01*
X011185Y013789D01*
X011221Y013816D01*
X011258Y013839D01*
X011298Y013859D01*
X011340Y013876D01*
X011382Y013889D01*
X011426Y013898D01*
X011470Y013903D01*
X011515Y013905D01*
X011559Y013903D01*
X011603Y013896D01*
X011647Y013886D01*
X010406Y013445D02*
X010190Y012941D01*
X009619Y013445D02*
X009209Y013729D01*
X009209Y014197D01*
X009209Y013729D02*
X009209Y013520D01*
X009210Y013478D01*
X009206Y013436D01*
X009199Y013394D01*
X009188Y013353D01*
X009174Y013313D01*
X009156Y013275D01*
X009134Y013239D01*
X009110Y013204D01*
X009082Y013172D01*
X009051Y013143D01*
X009018Y013117D01*
X008983Y013093D01*
X008946Y013073D01*
X008907Y013057D01*
X008866Y013044D01*
X008825Y013035D01*
X008783Y013030D01*
X008741Y013028D01*
X008552Y013028D01*
X007804Y013028D02*
X007804Y013973D01*
X007709Y014477D02*
X006961Y014477D01*
X007119Y014910D02*
X006607Y014870D01*
X006646Y015264D02*
X006646Y015618D01*
X007906Y014910D02*
X007906Y014634D01*
X007904Y014610D01*
X007899Y014587D01*
X007890Y014564D01*
X007878Y014543D01*
X007863Y014525D01*
X007846Y014508D01*
X007826Y014495D01*
X007804Y014484D01*
X007781Y014477D01*
X007757Y014473D01*
X007733Y014473D01*
X007710Y014477D01*
X008064Y015382D02*
X008097Y015380D01*
X008130Y015375D01*
X008162Y015367D01*
X008193Y015355D01*
X008223Y015340D01*
X008251Y015322D01*
X008277Y015301D01*
X008300Y015278D01*
X008321Y015252D01*
X008340Y015224D01*
X008497Y015539D02*
X008528Y015531D01*
X008558Y015520D01*
X008587Y015507D01*
X008614Y015490D01*
X008640Y015471D01*
X008663Y015449D01*
X008685Y015425D01*
X008703Y015399D01*
X008719Y015372D01*
X008733Y015342D01*
X008776Y014985D02*
X008733Y014986D01*
X008689Y014990D01*
X008647Y014998D01*
X008605Y015010D01*
X008564Y015026D01*
X008525Y015045D01*
X008488Y015068D01*
X008453Y015094D01*
X008420Y015123D01*
X008390Y015154D01*
X008363Y015189D01*
X008340Y015225D01*
X008497Y015540D02*
X008284Y015791D01*
X008497Y015815D01*
X008732Y015342D02*
X008740Y015314D01*
X008751Y015287D01*
X008765Y015262D01*
X008783Y015238D01*
X008803Y015218D01*
X008826Y015199D01*
X008851Y015184D01*
X008851Y015185D02*
X009111Y015181D01*
X009875Y014673D02*
X009882Y014676D01*
X009888Y014682D01*
X009891Y014689D01*
X010071Y015815D02*
X010084Y015821D01*
X010095Y015829D01*
X010104Y015840D01*
X010110Y015853D01*
X010114Y015867D01*
X010114Y015881D01*
X010110Y015895D01*
X010104Y015908D01*
X010095Y015919D01*
X010084Y015927D01*
X010071Y015933D01*
X010938Y015185D02*
X010970Y015186D01*
X011002Y015191D01*
X011033Y015199D01*
X011062Y015211D01*
X011091Y015226D01*
X011117Y015244D01*
X011141Y015265D01*
X011163Y015289D01*
X011181Y015315D01*
X011196Y015344D01*
X011208Y015373D01*
X011217Y015404D01*
X011222Y015436D01*
X011223Y015468D01*
X011220Y015500D01*
X011214Y015532D01*
X011204Y015562D01*
X011191Y015591D01*
X011174Y015619D01*
X011370Y014792D02*
X011423Y014800D01*
X011475Y014812D01*
X011525Y014828D01*
X011575Y014847D01*
X011623Y014870D01*
X011669Y014897D01*
X011712Y014927D01*
X011754Y014960D01*
X011793Y014996D01*
X011829Y015035D01*
X011862Y015077D01*
X011892Y015121D01*
X011918Y015167D01*
X011941Y015215D01*
X011961Y015264D01*
X012354Y014949D02*
X012324Y014904D01*
X012290Y014861D01*
X012253Y014821D01*
X012213Y014783D01*
X012171Y014749D01*
X012127Y014717D01*
X012080Y014688D01*
X012032Y014663D01*
X011982Y014642D01*
X011930Y014624D01*
X011878Y014609D01*
X011824Y014599D01*
X011770Y014592D01*
X011716Y014589D01*
X011661Y014590D01*
X011607Y014595D01*
X014363Y005658D02*
X013891Y005527D01*
X013413Y005420D01*
X012930Y005335D01*
X012445Y005273D01*
X011956Y005234D01*
X011467Y005217D01*
X010977Y005224D01*
X010253Y006575D02*
X012009Y006874D01*
X012866Y008334D02*
X012832Y008384D01*
X012796Y008431D01*
X012756Y008476D01*
X012714Y008518D01*
X012670Y008558D01*
X012623Y008595D01*
X012574Y008630D01*
X012523Y008661D01*
X012470Y008689D01*
X012416Y008714D01*
X012360Y008736D01*
X012303Y008755D01*
X012245Y008770D01*
X012187Y008781D01*
X012128Y008789D01*
X012068Y008794D01*
X012008Y008795D01*
X012009Y008795D02*
X010245Y009075D01*
X015663Y012390D02*
X015515Y012624D01*
X015358Y012851D01*
X015192Y013072D01*
X015016Y013286D01*
X014832Y013491D01*
X014639Y013689D01*
X014323Y013453D02*
X014560Y013256D01*
X013340Y017114D02*
X013129Y017069D01*
X012921Y017015D01*
X012716Y016951D01*
X012513Y016878D01*
X011647Y013886D02*
X011815Y013839D01*
X011986Y013800D01*
X012158Y013768D01*
X012355Y014949D02*
X012383Y015003D01*
X012413Y015056D01*
X012447Y015107D01*
X012483Y015156D01*
X012523Y015202D01*
X012565Y015246D01*
X012609Y015288D01*
X012656Y015327D01*
X012705Y015363D01*
X012757Y015395D01*
X012810Y015425D01*
X012865Y015452D01*
X012921Y015475D01*
X012979Y015495D01*
X013037Y015511D01*
X013097Y015524D01*
X013157Y015533D01*
X013218Y015539D01*
X013279Y015541D01*
X013340Y015539D01*
X012513Y016878D02*
X012445Y016850D01*
X012378Y016818D01*
X012313Y016783D01*
X012249Y016745D01*
X012188Y016704D01*
X012129Y016660D01*
X012072Y016613D01*
X012018Y016563D01*
X011966Y016510D01*
X011917Y016455D01*
X011870Y016398D01*
X011827Y016338D01*
X011787Y016276D01*
X011749Y016212D01*
X011715Y016147D01*
X011685Y016080D01*
X011657Y016011D01*
X011634Y015941D01*
X011613Y015870D01*
X011596Y015798D01*
X011583Y015726D01*
X011574Y015653D01*
X011568Y015579D01*
X011961Y015264D02*
X011962Y015321D01*
X011966Y015378D01*
X011974Y015435D01*
X011986Y015491D01*
X012001Y015546D01*
X012019Y015600D01*
X012040Y015653D01*
X012065Y015705D01*
X012093Y015754D01*
X012124Y015802D01*
X012158Y015849D01*
X012195Y015892D01*
X012234Y015934D01*
X012276Y015973D01*
X013064Y015973D02*
X013575Y015973D01*
X014363Y017272D02*
X014835Y018610D01*
X015820Y018610D02*
X015859Y016603D01*
X015859Y015658D02*
X016253Y015618D01*
X015103Y014802D02*
X015087Y014733D01*
X015074Y014663D01*
X015066Y014593D01*
X015061Y014522D01*
X015060Y014451D01*
X015063Y014380D01*
X015070Y014310D01*
X015081Y014240D01*
X015095Y014170D01*
X015114Y014102D01*
X015136Y014035D01*
X015161Y013968D01*
X015190Y013904D01*
X015223Y013841D01*
X015259Y013780D01*
X015298Y013721D01*
X015341Y013664D01*
X015386Y013610D01*
X014639Y013689D02*
X014583Y013732D01*
X014530Y013777D01*
X014480Y013825D01*
X014432Y013876D01*
X014387Y013929D01*
X014344Y013985D01*
X014305Y014043D01*
X014269Y014103D01*
X014237Y014164D01*
X014208Y014228D01*
X014182Y014293D01*
X014160Y014359D01*
X014141Y014426D01*
X014126Y014494D01*
X014115Y014563D01*
X014107Y014632D01*
X014103Y014702D01*
X014993Y015500D02*
X015041Y015497D01*
X015089Y015490D01*
X015136Y015480D01*
X015182Y015466D01*
X015227Y015449D01*
X015271Y015428D01*
X015313Y015405D01*
X015353Y015378D01*
X015391Y015349D01*
X015427Y015316D01*
X015461Y015282D01*
X015491Y015244D01*
X015519Y015205D01*
X015544Y015164D01*
X015566Y015121D01*
X015584Y015076D01*
X015599Y015030D01*
X015611Y014983D01*
X015619Y014936D01*
X015624Y014888D01*
X015625Y014840D01*
X015622Y014791D01*
X015647Y007725D02*
X015311Y007707D01*
X014975Y007704D01*
X014639Y007715D01*
X014303Y007742D01*
X013970Y007784D01*
X013764Y008217D02*
X013497Y008217D01*
X014166Y005068D02*
X014322Y005102D01*
X014476Y005144D01*
X014629Y005193D01*
X014778Y005249D01*
X014925Y005312D01*
X015069Y005381D01*
X015210Y005457D01*
X015347Y005540D01*
X003891Y005185D02*
X003892Y004828D01*
X003905Y004471D01*
X003930Y004115D01*
X004929Y004015D02*
X004856Y005128D01*
X004559Y005894D02*
X004509Y005889D01*
X004459Y005880D01*
X004409Y005867D01*
X004361Y005851D01*
X004314Y005832D01*
X004268Y005809D01*
X004224Y005783D01*
X004182Y005755D01*
X004142Y005723D01*
X004105Y005688D01*
X004070Y005651D01*
X004037Y005612D01*
X004008Y005570D01*
X003982Y005527D01*
X003958Y005481D01*
X003938Y005434D01*
X003922Y005386D01*
X003908Y005337D01*
X003899Y005287D01*
X003893Y005236D01*
X003890Y005186D01*
X016591Y010516D02*
X016387Y010998D01*
X016164Y011471D01*
X015922Y011936D01*
X015662Y012390D01*
X016606Y011996D02*
X016617Y011959D01*
X016631Y011923D01*
X016649Y011888D01*
X016670Y011856D01*
X016694Y011825D01*
X016720Y011797D01*
X016749Y011771D01*
X016781Y011748D01*
X016814Y011729D01*
X016849Y011712D01*
X016886Y011699D01*
X016923Y011689D01*
X016962Y011683D01*
X017000Y011681D01*
X017300Y011646D02*
X017512Y010540D01*
X017536Y010244D01*
X017221Y010244D02*
X017237Y010500D01*
X017119Y011051D01*
X019442Y010618D02*
X019427Y010517D01*
X019407Y010417D01*
X019383Y010317D01*
X019354Y010219D01*
X019321Y010122D01*
X019284Y010027D01*
X019284Y010028D02*
X019111Y009614D01*
X019418Y009299D02*
X019450Y009301D01*
X019481Y009307D01*
X019511Y009316D01*
X019540Y009329D01*
X019567Y009346D01*
X019592Y009365D01*
X019615Y009388D01*
X019634Y009413D01*
X019651Y009440D01*
X019663Y009469D01*
X019673Y009500D01*
X019678Y009531D01*
X019680Y009563D01*
X019678Y009594D01*
X019678Y009595D02*
X019678Y010067D01*
X017315Y009437D02*
X017287Y009535D01*
X017264Y009635D01*
X017246Y009735D01*
X017232Y009836D01*
X017222Y009938D01*
X017217Y010040D01*
X017216Y010142D01*
X017220Y010244D01*
X016906Y010244D02*
X016914Y010551D01*
X016591Y010516D02*
X016591Y010244D01*
X016915Y010551D02*
X016914Y010605D01*
X016911Y010658D01*
X016904Y010710D01*
X016893Y010762D01*
X016880Y010814D01*
X016863Y010864D01*
X016843Y010913D01*
X016820Y010961D01*
X016794Y011007D01*
X016765Y011052D01*
X018693Y010422D02*
X018752Y010473D01*
X018808Y010527D01*
X018862Y010583D01*
X018913Y010642D01*
X018961Y010703D01*
X019006Y010766D01*
X019049Y010831D01*
X019088Y010898D01*
X019124Y010967D01*
X019157Y011037D01*
X019187Y011109D01*
X019213Y011182D01*
X019236Y011257D01*
X019255Y011332D01*
X019271Y011408D01*
X019284Y011485D01*
X018969Y011485D02*
X018997Y011517D01*
X019022Y011551D01*
X019045Y011587D01*
X019064Y011625D01*
X019080Y011664D01*
X019092Y011704D01*
X019101Y011746D01*
X019107Y011788D01*
X018930Y012075D02*
X018929Y012035D01*
X018925Y011995D01*
X018916Y011955D01*
X018904Y011916D01*
X018888Y011879D01*
X018869Y011844D01*
X018846Y011810D01*
X018821Y011779D01*
X018792Y011750D01*
X018761Y011724D01*
X018727Y011702D01*
X018691Y011683D01*
X018654Y011667D01*
X018616Y011655D01*
X018576Y011646D01*
X018536Y011642D01*
X018079Y011642D02*
X017867Y010540D01*
X017851Y010244D01*
X018166Y010244D02*
X018186Y010528D01*
X018481Y010244D02*
X018694Y010421D01*
X018186Y010528D02*
X018191Y010568D01*
X018199Y010609D01*
X018210Y010648D01*
X018224Y010686D01*
X018241Y010724D01*
X018262Y010759D01*
X018285Y010793D01*
X018311Y010825D01*
X018340Y010854D01*
X018777Y008665D02*
X018860Y008661D01*
X018944Y008660D01*
X019028Y008663D01*
X019111Y008669D01*
X019111Y008354D02*
X018808Y008358D01*
X018807Y008358D02*
X018782Y008357D01*
X018757Y008352D01*
X018733Y008344D01*
X018710Y008333D01*
X018688Y008319D01*
X018669Y008302D01*
X018652Y008283D01*
X018638Y008261D01*
X018627Y008238D01*
X018619Y008214D01*
X018614Y008189D01*
X018613Y008164D01*
X018615Y008138D01*
X018615Y007980D01*
X018617Y007949D01*
X018623Y007918D01*
X018632Y007888D01*
X018645Y007859D01*
X018662Y007832D01*
X018682Y007808D01*
X018704Y007786D01*
X018730Y007767D01*
X018757Y007751D01*
X018786Y007739D01*
X018816Y007730D01*
X018847Y007725D01*
X018879Y007724D01*
X019111Y007410D02*
X019166Y006996D01*
X018811Y006957D02*
X018809Y006985D01*
X018804Y007013D01*
X018796Y007041D01*
X018784Y007067D01*
X018769Y007091D01*
X018752Y007113D01*
X018731Y007134D01*
X018709Y007151D01*
X018685Y007166D01*
X018659Y007178D01*
X018631Y007186D01*
X018603Y007191D01*
X018575Y007193D01*
X018339Y007193D01*
X018319Y007196D01*
X018299Y007196D01*
X018279Y007192D01*
X018260Y007186D01*
X018242Y007176D01*
X018225Y007164D01*
X018211Y007149D01*
X018200Y007133D01*
X018191Y007114D01*
X018185Y007095D01*
X018182Y007075D01*
X018166Y006780D01*
X018481Y006780D02*
X018437Y005765D01*
X019962Y005185D01*
X019284Y005776D02*
X019244Y005786D01*
X019204Y005799D01*
X019165Y005816D01*
X019128Y005836D01*
X019093Y005859D01*
X019059Y005885D01*
X019028Y005913D01*
X019000Y005944D01*
X018974Y005978D01*
X018951Y006013D01*
X018931Y006050D01*
X018914Y006089D01*
X018901Y006129D01*
X018891Y006169D01*
X017985Y006051D02*
X016926Y004015D01*
X015926Y004115D02*
X017670Y006130D01*
X017355Y006248D02*
X014926Y004015D01*
X013926Y004115D02*
X017079Y006327D01*
X017670Y006131D02*
X017703Y006172D01*
X017734Y006216D01*
X017762Y006262D01*
X017786Y006310D01*
X017808Y006359D01*
X017825Y006409D01*
X017840Y006461D01*
X017851Y006513D01*
X017858Y006567D01*
X017862Y006620D01*
X017862Y006674D01*
X017858Y006727D01*
X017851Y006780D01*
X017536Y006780D02*
X017542Y006735D01*
X017545Y006690D01*
X017544Y006645D01*
X017540Y006600D01*
X017532Y006556D01*
X017520Y006512D01*
X017506Y006470D01*
X017488Y006428D01*
X017467Y006388D01*
X017443Y006350D01*
X017417Y006314D01*
X017387Y006280D01*
X017355Y006248D01*
X017079Y006327D02*
X017110Y006351D01*
X017139Y006378D01*
X017164Y006408D01*
X017187Y006440D01*
X017205Y006474D01*
X017221Y006510D01*
X017233Y006548D01*
X017241Y006586D01*
X017244Y006625D01*
X017245Y006664D01*
X017241Y006703D01*
X017233Y006742D01*
X017221Y006779D01*
X018166Y006780D02*
X018164Y006704D01*
X018158Y006629D01*
X018148Y006554D01*
X018135Y006479D01*
X018119Y006405D01*
X018099Y006332D01*
X018075Y006260D01*
X018048Y006189D01*
X018018Y006120D01*
X017985Y006052D01*
X018233Y005004D02*
X017926Y004115D01*
X018879Y007724D02*
X018995Y007726D01*
X019111Y007724D01*
X019111Y008354D02*
X019596Y008348D01*
X020142Y008343D01*
X020966Y007185D01*
X020062Y006186D02*
X020003Y006189D01*
X019943Y006197D01*
X019885Y006208D01*
X019827Y006224D01*
X019770Y006242D01*
X019715Y006265D01*
X019661Y006291D01*
X019609Y006320D01*
X019559Y006352D01*
X019511Y006388D01*
X019466Y006427D01*
X019423Y006468D01*
X019382Y006512D01*
X019345Y006559D01*
X019311Y006608D01*
X019280Y006659D01*
X019252Y006712D01*
X019228Y006766D01*
X019207Y006822D01*
X019189Y006879D01*
X019176Y006938D01*
X019166Y006996D01*
X020425Y005697D02*
X020479Y005703D01*
X020531Y005712D01*
X020583Y005725D01*
X020634Y005741D01*
X020683Y005762D01*
X020731Y005786D01*
X020776Y005813D01*
X020820Y005844D01*
X020861Y005878D01*
X020900Y005915D01*
X020935Y005954D01*
X020968Y005997D01*
X020998Y006041D01*
X021024Y006087D01*
X021047Y006136D01*
X021066Y006186D01*
X018891Y006170D02*
X018862Y006326D01*
X018840Y006483D01*
X018825Y006640D01*
X018815Y006799D01*
X018812Y006957D01*
X018776Y008666D02*
X018457Y008689D01*
X017473Y008689D02*
X017483Y008619D01*
X017497Y008550D01*
X017514Y008482D01*
X017535Y008415D01*
X017559Y008350D01*
X017587Y008285D01*
X017618Y008222D01*
X017653Y008161D01*
X017690Y008102D01*
X017730Y008044D01*
X017774Y007989D01*
X017820Y007936D01*
X017869Y007886D01*
X017920Y007838D01*
X017974Y007793D01*
X018030Y007751D01*
X018088Y007712D01*
X018148Y007675D01*
X018210Y007642D01*
X018274Y007613D01*
X018339Y007586D01*
X016906Y006780D02*
X016913Y006743D01*
X016916Y006706D01*
X016915Y006669D01*
X016911Y006632D01*
X016903Y006596D01*
X016891Y006560D01*
X016877Y006526D01*
X016858Y006494D01*
X016837Y006463D01*
X016813Y006435D01*
X016786Y006410D01*
X016757Y006387D01*
X016725Y006367D01*
X016449Y006446D02*
X016477Y006463D01*
X016502Y006484D01*
X016524Y006507D01*
X016545Y006533D01*
X016562Y006560D01*
X016576Y006589D01*
X016587Y006620D01*
X016595Y006651D01*
X016599Y006683D01*
X016600Y006716D01*
X016597Y006748D01*
X016591Y006780D01*
X015646Y008670D02*
X015606Y008678D01*
X015566Y008682D01*
X015526Y008685D01*
X015486Y008685D01*
X015445Y008682D01*
X015446Y008681D02*
X014670Y008654D01*
X014670Y009441D02*
X015032Y009870D01*
X006292Y014162D02*
X006124Y013822D01*
X005971Y013475D01*
X005832Y013123D01*
X005708Y012765D01*
X005598Y012402D01*
X005504Y012036D01*
X006095Y012335D02*
X006091Y012788D01*
X006883Y012335D02*
X006883Y011957D01*
X006920Y011710D01*
X006883Y012335D02*
X006981Y013000D01*
X007383Y012929D01*
X007631Y012862D01*
X007631Y012863D02*
X007655Y012865D01*
X007678Y012870D01*
X007701Y012878D01*
X007722Y012889D01*
X007741Y012903D01*
X007759Y012919D01*
X007774Y012938D01*
X007786Y012959D01*
X007795Y012981D01*
X007801Y013004D01*
X007804Y013028D01*
X019284Y011485D02*
X019349Y012047D01*
X019388Y012612D01*
X019402Y013178D01*
X019678Y013335D02*
X019679Y013397D01*
X019676Y013459D01*
X019670Y013521D01*
X019659Y013582D01*
X019645Y013642D01*
X019627Y013702D01*
X019606Y013760D01*
X019581Y013817D01*
X019552Y013872D01*
X019520Y013925D01*
X019402Y014398D02*
X019402Y016406D01*
X019166Y016563D02*
X019127Y014358D01*
X019126Y014358D02*
X019124Y014301D01*
X019125Y014244D01*
X019129Y014187D01*
X019136Y014130D01*
X019147Y014074D01*
X019160Y014019D01*
X019177Y013964D01*
X019196Y013910D01*
X019219Y013858D01*
X019245Y013807D01*
X019001Y013614D02*
X018970Y013678D01*
X018942Y013743D01*
X018918Y013809D01*
X018898Y013876D01*
X018881Y013945D01*
X018867Y014014D01*
X018858Y014084D01*
X018852Y014154D01*
X018850Y014225D01*
X018852Y014295D01*
X018536Y011642D02*
X018384Y011636D01*
X018232Y011636D01*
X018080Y011642D01*
X018079Y012429D02*
X017300Y012433D01*
X019181Y012772D02*
X019184Y012851D01*
X019183Y012930D01*
X019178Y013009D01*
X019169Y013088D01*
X019156Y013166D01*
X019139Y013244D01*
X019119Y013321D01*
X019095Y013396D01*
X019067Y013470D01*
X019035Y013543D01*
X019000Y013614D01*
X019245Y013807D02*
X019274Y013749D01*
X019301Y013689D01*
X019324Y013628D01*
X019345Y013565D01*
X019362Y013502D01*
X019377Y013438D01*
X019388Y013373D01*
X019396Y013308D01*
X019400Y013243D01*
X019402Y013177D01*
X019521Y013926D02*
X019495Y013968D01*
X019473Y014012D01*
X019453Y014058D01*
X019436Y014105D01*
X019423Y014152D01*
X019412Y014201D01*
X019405Y014250D01*
X019401Y014299D01*
X019400Y014349D01*
X019402Y014398D01*
X020083Y015288D02*
X020123Y015283D01*
X020162Y015275D01*
X020201Y015264D01*
X020238Y015249D01*
X020274Y015231D01*
X020308Y015209D01*
X020341Y015185D01*
X020371Y015158D01*
X020398Y015128D01*
X020423Y015097D01*
X020444Y015063D01*
X020463Y015027D01*
X020478Y014989D01*
X020490Y014951D01*
X020499Y014912D01*
X020504Y014872D01*
X020505Y014831D01*
X016134Y012312D02*
X016214Y012090D01*
X016304Y011872D01*
X016404Y011659D01*
X016514Y011451D01*
X016635Y011248D01*
X016764Y011052D01*
X017000Y011682D02*
X017100Y011675D01*
X017200Y011663D01*
X017299Y011646D01*
X018929Y012626D02*
X018930Y012694D01*
X018926Y012761D01*
X018919Y012828D01*
X018908Y012895D01*
X018894Y012961D01*
X018876Y013026D01*
X018854Y013090D01*
X018829Y013152D01*
X018800Y013213D01*
X018768Y013273D01*
X018733Y013330D01*
X018695Y013386D01*
X018653Y013439D01*
X018609Y013490D01*
X018562Y013538D01*
X018513Y013584D01*
X018461Y013627D01*
X018406Y013667D01*
X018350Y013704D01*
X018292Y013738D01*
X018231Y013769D01*
X018170Y013796D01*
X018106Y013820D01*
X018042Y013840D01*
X017977Y013856D01*
X017910Y013869D01*
X017844Y013879D01*
X017776Y013884D01*
X017709Y013886D01*
X016725Y013886D01*
X020505Y013414D02*
X020503Y013246D01*
X020493Y013079D01*
X020476Y012912D01*
X020451Y012746D01*
X020419Y012582D01*
X020379Y012419D01*
X020332Y012259D01*
X020277Y012100D01*
X020216Y011944D01*
X020147Y011791D01*
X020072Y011642D01*
X020379Y011429D02*
X020465Y010382D01*
X020426Y005697D02*
X020235Y005690D01*
X020044Y005690D01*
X019852Y005699D01*
X019662Y005717D01*
X019472Y005742D01*
X019284Y005776D01*
X020142Y008343D02*
X020175Y008334D01*
X020209Y008329D01*
X020243Y008327D01*
X020277Y008329D01*
X020310Y008334D01*
X020343Y008344D01*
X020375Y008356D01*
X020405Y008372D01*
X020433Y008391D01*
X020459Y008413D01*
X020483Y008438D01*
X020503Y008465D01*
X020521Y008494D01*
X020536Y008524D01*
X020547Y008557D01*
X020554Y008590D01*
X020558Y008624D01*
X020559Y008658D01*
X020560Y008658D02*
X020560Y009776D01*
X020150Y009634D02*
X020142Y009130D01*
X019418Y009299D02*
X019111Y009299D01*
X016214Y008374D02*
X016161Y008363D01*
X016108Y008355D01*
X016055Y008351D01*
X016001Y008350D01*
X016001Y008351D02*
X015646Y008354D01*
X015997Y008989D02*
X016041Y008988D01*
X016085Y008983D01*
X016129Y008974D01*
X016171Y008961D01*
X016213Y008945D01*
X016253Y008926D01*
X015997Y008988D02*
X015646Y008984D01*
X015646Y008040D02*
X015539Y008030D01*
X015432Y008025D01*
X015325Y008024D01*
X015217Y008029D01*
X015110Y008038D01*
X015004Y008052D01*
X014898Y008070D01*
X014793Y008094D01*
X014690Y008122D01*
X014587Y008154D01*
X013764Y009004D02*
X013772Y009477D01*
X012866Y008335D02*
X012906Y008280D01*
X012948Y008227D01*
X012993Y008176D01*
X013041Y008128D01*
X013092Y008083D01*
X013144Y008040D01*
X013199Y008001D01*
X013256Y007964D01*
X013315Y007930D01*
X013376Y007900D01*
X013438Y007873D01*
X013502Y007849D01*
X013566Y007829D01*
X013632Y007813D01*
X013699Y007800D01*
X013766Y007790D01*
X013833Y007784D01*
X013901Y007782D01*
X013969Y007783D01*
X010229Y007823D02*
X010227Y007698D01*
X010231Y007572D01*
X010239Y007447D01*
X010252Y007323D01*
X010229Y007823D02*
X010245Y008327D01*
X012158Y013768D02*
X012417Y013720D01*
X012674Y013661D01*
X012928Y013591D01*
X013178Y013510D01*
X013425Y013417D01*
X013667Y013314D01*
X013904Y013200D01*
X014137Y013076D01*
X014363Y012941D01*
X014323Y013453D02*
X014249Y013512D01*
X014172Y013567D01*
X014092Y013619D01*
X014010Y013668D01*
X013926Y013712D01*
X013840Y013753D01*
X013752Y013789D01*
X013662Y013821D01*
X013572Y013849D01*
X013479Y013873D01*
X013386Y013893D01*
X013292Y013908D01*
X013198Y013919D01*
X013103Y013925D01*
X010937Y015185D02*
X010803Y015186D01*
X010670Y015181D01*
X011962Y014162D02*
X012119Y014106D01*
X012279Y014057D01*
X012441Y014016D01*
X012605Y013982D01*
X012770Y013955D01*
X012937Y013937D01*
X013103Y013926D01*
X016410Y012548D02*
X016459Y012441D01*
X016503Y012333D01*
X016543Y012222D01*
X016577Y012110D01*
X016607Y011997D01*
X014402Y010343D02*
X013812Y010382D01*
X013969Y010697D01*
X015190Y005737D02*
X015013Y005645D01*
X014834Y005562D01*
X014651Y005486D01*
X014464Y005419D01*
X014275Y005359D01*
X014084Y005307D01*
X013890Y005264D01*
X017472Y008689D02*
X017445Y008879D01*
X017410Y009067D01*
X017366Y009253D01*
X017315Y009437D01*
X015583Y006287D02*
X015444Y006184D01*
X015301Y006088D01*
X015153Y005999D01*
X015002Y005916D01*
X014847Y005840D01*
X014688Y005772D01*
X014527Y005711D01*
X014362Y005657D01*
X016276Y010244D02*
X016226Y010434D01*
X016169Y010621D01*
X016103Y010806D01*
X016029Y010988D01*
X015947Y011166D01*
X015857Y011340D01*
X015760Y011511D01*
X015655Y011677D01*
X015544Y011838D01*
X016134Y012312D02*
X016078Y012470D01*
X016015Y012625D01*
X015944Y012777D01*
X015867Y012926D01*
X015784Y013071D01*
X015693Y013213D01*
X015597Y013350D01*
X015495Y013483D01*
X015386Y013611D01*
X015820Y013689D02*
X015782Y013761D01*
X015748Y013835D01*
X015717Y013910D01*
X015690Y013987D01*
X015666Y014065D01*
X015646Y014144D01*
X015630Y014224D01*
X015618Y014304D01*
X015609Y014385D01*
X015604Y014466D01*
X015603Y014548D01*
X015606Y014629D01*
X015612Y014710D01*
X015623Y014791D01*
X016764Y012468D02*
X016942Y012449D01*
X017121Y012438D01*
X017300Y012433D01*
X019402Y016406D02*
X019404Y016466D01*
X019410Y016525D01*
X019420Y016585D01*
X019433Y016643D01*
X019451Y016700D01*
X019472Y016756D01*
X019497Y016811D01*
X019525Y016863D01*
X019557Y016914D01*
X019592Y016963D01*
X019630Y017009D01*
X019671Y017053D01*
X019715Y017093D01*
X019761Y017131D01*
X019810Y017166D01*
X019861Y017197D01*
X019914Y017226D01*
X019968Y017250D01*
X020025Y017271D01*
X020082Y017288D01*
X019560Y018690D02*
X019583Y018748D01*
X019609Y018804D01*
X019639Y018859D01*
X019671Y018913D01*
X019707Y018964D01*
X019745Y019014D01*
X019786Y019061D01*
X019830Y019105D01*
X019876Y019147D01*
X019925Y019187D01*
X019975Y019223D01*
X020028Y019257D01*
X020082Y019288D01*
X019473Y020673D02*
X019489Y020727D01*
X019509Y020780D01*
X019532Y020832D01*
X019559Y020882D01*
X019588Y020930D01*
X019621Y020976D01*
X019657Y021020D01*
X019695Y021062D01*
X019736Y021101D01*
X019780Y021137D01*
X019826Y021170D01*
X019874Y021200D01*
X019924Y021227D01*
X019975Y021250D01*
X020028Y021270D01*
X020082Y021287D01*
X018575Y012430D02*
X018079Y012430D01*
X020072Y011642D02*
X019998Y011495D01*
X019932Y011345D01*
X019873Y011192D01*
X019822Y011037D01*
X019778Y010879D01*
X019742Y010719D01*
X019714Y010557D01*
X019694Y010394D01*
X019682Y010231D01*
X019678Y010067D01*
X019166Y016563D02*
X019179Y016873D01*
X019206Y017182D01*
X019248Y017490D01*
X019305Y017795D01*
X019376Y018097D01*
X019461Y018395D01*
X019560Y018689D01*
X014835Y018610D02*
X014816Y018522D01*
X014793Y018435D01*
X014765Y018350D01*
X014734Y018266D01*
X014699Y018183D01*
X014660Y018102D01*
X014617Y018023D01*
X014570Y017947D01*
X014519Y017872D01*
X014466Y017800D01*
X014408Y017731D01*
X014348Y017665D01*
X014284Y017601D01*
X014218Y017541D01*
X014149Y017483D01*
X014077Y017430D01*
X014002Y017379D01*
X013926Y017332D01*
X013847Y017289D01*
X013766Y017250D01*
X013683Y017215D01*
X013599Y017184D01*
X013514Y017156D01*
X013427Y017133D01*
X013339Y017114D01*
X013890Y005264D02*
X013220Y005145D01*
X012545Y005059D01*
X011866Y005003D01*
X011185Y004980D01*
X010505Y004988D01*
X009442Y004437D02*
X008929Y004015D01*
X008930Y004634D02*
X007929Y004115D01*
X007591Y004555D02*
X006929Y004015D01*
X005929Y004115D02*
X006155Y005482D01*
X005504Y005579D02*
X005506Y005630D01*
X005511Y005680D01*
X005520Y005730D01*
X005533Y005779D01*
X005549Y005827D01*
X005568Y005874D01*
X005591Y005919D01*
X005617Y005962D01*
X005645Y006004D01*
X005677Y006043D01*
X005712Y006080D01*
X005749Y006115D01*
X005788Y006147D01*
X005830Y006175D01*
X005873Y006201D01*
X005918Y006224D01*
X005965Y006243D01*
X006013Y006259D01*
X006062Y006272D01*
X006112Y006281D01*
X006162Y006286D01*
X006213Y006288D01*
X008182Y006288D01*
X008181Y006288D02*
X008248Y006292D01*
X008314Y006299D01*
X008380Y006309D01*
X008445Y006324D01*
X008510Y006342D01*
X008573Y006364D01*
X008634Y006390D01*
X008695Y006418D01*
X008753Y006451D01*
X008810Y006486D01*
X008864Y006525D01*
X008916Y006567D01*
X008966Y006611D01*
X009013Y006659D01*
X009057Y006709D01*
X009098Y006761D01*
X009137Y006816D01*
X009172Y006873D01*
X009204Y006931D01*
X009232Y006992D01*
X009257Y007054D01*
X009278Y007117D01*
X009296Y007181D01*
X009310Y007246D01*
X009321Y007312D01*
X009327Y007379D01*
X009330Y007446D01*
X009329Y007512D01*
X009324Y007579D01*
X009315Y007645D01*
X009303Y007711D01*
X009287Y007776D01*
X009267Y007839D01*
X009244Y007902D01*
X008772Y008453D02*
X006922Y008453D01*
X006489Y008925D01*
X005662Y008925D01*
X005662Y009162D01*
X006489Y009162D01*
X006922Y009634D01*
X008772Y009634D01*
X008772Y008453D01*
X008772Y008479D02*
X006898Y008479D01*
X006807Y008578D02*
X008772Y008578D01*
X008772Y008676D02*
X006717Y008676D01*
X006627Y008775D02*
X008772Y008775D01*
X008772Y008874D02*
X006536Y008874D01*
X006496Y009169D02*
X008772Y009169D01*
X008772Y009071D02*
X005662Y009071D01*
X005662Y008972D02*
X008772Y008972D01*
X008772Y009268D02*
X006586Y009268D01*
X006676Y009366D02*
X008772Y009366D01*
X008772Y009465D02*
X006767Y009465D01*
X006857Y009563D02*
X008772Y009563D01*
X008777Y014984D02*
X008944Y014987D01*
X009111Y014984D01*
X006981Y013788D02*
X006509Y013776D01*
X006291Y014162D02*
X006328Y014203D01*
X006366Y014241D01*
X006407Y014278D01*
X006450Y014311D01*
X006495Y014342D01*
X006542Y014370D01*
X006591Y014394D01*
X006641Y014416D01*
X006692Y014434D01*
X006745Y014450D01*
X006798Y014462D01*
X006852Y014470D01*
X006906Y014475D01*
X006961Y014477D01*
X007591Y011209D02*
X007796Y010954D01*
X007867Y011012D01*
X006331Y010185D02*
X006056Y009949D01*
X006331Y010185D02*
X006364Y010215D01*
X006394Y010248D01*
X006422Y010283D01*
X006446Y010320D01*
X006468Y010359D01*
X006486Y010400D01*
X006501Y010442D01*
X006513Y010485D01*
X006522Y010529D01*
X006527Y010573D01*
X006528Y010618D01*
X013222Y013099D02*
X013329Y012934D01*
X013428Y012765D01*
X013519Y012591D01*
X013602Y012413D01*
X013677Y012232D01*
X013744Y012047D01*
X013803Y011860D01*
X013852Y011670D01*
X013894Y011478D01*
X013926Y011284D01*
X013950Y011089D01*
X013964Y010893D01*
X013970Y010697D01*
X006536Y010954D02*
X006530Y010786D01*
X006528Y010618D01*
X008379Y009043D02*
X008460Y008989D01*
X008538Y008931D01*
X008614Y008869D01*
X008686Y008804D01*
X008755Y008735D01*
X008821Y008663D01*
X008884Y008588D01*
X008943Y008510D01*
X008998Y008430D01*
X009050Y008347D01*
X009097Y008262D01*
X009140Y008175D01*
X009180Y008085D01*
X009214Y007994D01*
X009245Y007902D01*
X011450Y014319D02*
X011622Y014274D01*
X011793Y014221D01*
X011961Y014161D01*
X011450Y014319D02*
X011321Y014346D01*
X011192Y014367D01*
X011062Y014383D01*
X010932Y014392D01*
X010801Y014396D01*
X010670Y014394D01*
X006921Y017745D02*
X006893Y017887D01*
X006870Y018031D01*
X006854Y018175D01*
X006844Y018320D01*
X006840Y018465D01*
X006843Y018611D01*
X010229Y004712D02*
X011021Y004717D01*
X011812Y004754D01*
X012601Y004825D01*
X013386Y004929D01*
X014166Y005067D01*
X010504Y004988D02*
X010356Y004990D01*
X010208Y004985D01*
X010060Y004973D01*
X009913Y004954D01*
X009767Y004928D01*
X009622Y004895D01*
X009479Y004856D01*
X009338Y004810D01*
X009199Y004758D01*
X009063Y004699D01*
X008930Y004634D01*
X009442Y004436D02*
X009494Y004477D01*
X009547Y004514D01*
X009603Y004548D01*
X009661Y004580D01*
X009720Y004608D01*
X009780Y004633D01*
X009842Y004655D01*
X009905Y004673D01*
X009969Y004688D01*
X010033Y004699D01*
X010098Y004707D01*
X010164Y004711D01*
X010229Y004712D01*
X009363Y005225D02*
X009225Y005216D01*
X009089Y005202D01*
X008953Y005181D01*
X008818Y005153D01*
X008684Y005120D01*
X008552Y005080D01*
X008423Y005035D01*
X008295Y004983D01*
X008170Y004926D01*
X008048Y004862D01*
X007928Y004794D01*
X007812Y004720D01*
X007700Y004640D01*
X007591Y004556D01*
X005504Y005579D02*
X005502Y005537D01*
X005497Y005495D01*
X005488Y005454D01*
X005475Y005414D01*
X005459Y005375D01*
X005439Y005338D01*
X005416Y005302D01*
X005391Y005269D01*
X005362Y005238D01*
X005331Y005210D01*
X005298Y005184D01*
X005262Y005162D01*
X005225Y005142D01*
X005186Y005126D01*
X005145Y005114D01*
X005104Y005105D01*
X005063Y005100D01*
X005020Y005098D01*
X004978Y005100D01*
X004937Y005106D01*
X004896Y005115D01*
X004856Y005128D01*
X004856Y005915D02*
X004560Y005894D01*
X020559Y009775D02*
X020465Y010382D01*
X018929Y012075D02*
X018925Y012351D01*
X018929Y012627D01*
X015544Y011839D02*
X015420Y012000D01*
X015290Y012155D01*
X015151Y012304D01*
X015006Y012447D01*
X014854Y012582D01*
X014696Y012709D01*
X014532Y012829D01*
X014363Y012941D01*
X018339Y010855D02*
X018969Y011485D01*
X018973Y017232D02*
X019011Y017928D01*
X019080Y018622D01*
X019180Y019311D01*
X019311Y019996D01*
X019473Y020673D01*
X010229Y020736D02*
X008339Y021012D01*
X008497Y015816D02*
X008733Y015816D01*
X019182Y012772D02*
X019107Y011788D01*
X020505Y013413D02*
X020505Y014831D01*
X016277Y006780D02*
X015925Y006541D01*
X015584Y006288D01*
X015646Y007410D02*
X014730Y007329D01*
X013817Y007213D01*
X012910Y007062D01*
X012009Y006875D01*
X010977Y005225D02*
X010170Y005240D01*
X009363Y005225D01*
X008733Y015815D02*
X010071Y015815D01*
X019677Y013335D02*
X019585Y011975D01*
X019441Y010619D01*
X004953Y020224D02*
X003512Y019338D01*
X018973Y017233D02*
X018851Y014296D01*
X016725Y006367D02*
X016031Y005962D01*
X015347Y005540D01*
X014993Y015501D02*
X013339Y015540D01*
X016450Y006445D02*
X015190Y005737D01*
X016410Y012548D02*
X016122Y013122D01*
X015819Y013689D01*
D32*
X009874Y014673D02*
X009768Y014646D01*
X009660Y014624D01*
X009551Y014607D01*
X009441Y014595D01*
X007591Y011721D02*
X006920Y011710D01*
X007591Y011721D02*
X007591Y011209D01*
X007867Y011012D02*
X007919Y010994D01*
X007969Y010973D01*
X008018Y010948D01*
X008065Y010920D01*
X008110Y010889D01*
X008152Y010855D01*
X008193Y010818D01*
X008231Y010779D01*
X008266Y010737D01*
X008298Y010693D01*
X008327Y010647D01*
X008353Y010599D01*
X008375Y010549D01*
X008395Y010498D01*
X008410Y010445D01*
X008422Y010392D01*
X008431Y010338D01*
X008436Y010284D01*
X008437Y010229D01*
X008434Y010175D01*
X008428Y010120D01*
X008418Y010067D01*
X006536Y010954D02*
X005898Y010973D01*
X005505Y012036D02*
X004560Y009083D01*
X007601Y006998D02*
X008418Y006996D01*
X005977Y011720D02*
X005936Y011719D01*
X005896Y011721D01*
X005855Y011727D01*
X005816Y011736D01*
X005777Y011749D01*
X005739Y011766D01*
X005704Y011785D01*
X005670Y011808D01*
X005638Y011833D01*
X005608Y011862D01*
X005582Y011892D01*
X005558Y011925D01*
X005537Y011961D01*
X005519Y011997D01*
X005505Y012035D01*
X008417Y010067D02*
X008420Y009725D01*
X008407Y009384D01*
X008378Y009043D01*
X006920Y011710D02*
X006449Y011725D01*
X005977Y011721D01*
D33*
X008457Y010185D02*
X008418Y010067D01*
X008458Y010185D02*
X008474Y010225D01*
X008494Y010264D01*
X008517Y010301D01*
X008543Y010335D01*
X008573Y010367D01*
X008605Y010396D01*
X008639Y010422D01*
X008676Y010444D01*
X008715Y010464D01*
X008755Y010479D01*
X008797Y010491D01*
X008840Y010499D01*
X008883Y010503D01*
X008926Y010504D01*
X008969Y010500D01*
X006056Y008138D02*
X006015Y008119D01*
X005974Y008104D01*
X005931Y008091D01*
X005887Y008082D01*
X005843Y008076D01*
X005799Y008074D01*
X005754Y008075D01*
X005710Y008080D01*
X005666Y008088D01*
X005623Y008099D01*
X013024Y010382D02*
X013058Y010347D01*
X013089Y010310D01*
X013117Y010270D01*
X013142Y010228D01*
X013164Y010185D01*
X013183Y010140D01*
X013197Y010093D01*
X013209Y010046D01*
X013216Y009998D01*
X013220Y009949D01*
X013221Y009949D02*
X013339Y009477D01*
X013418Y009673D01*
X013339Y009477D02*
X013339Y008414D01*
X013340Y008413D02*
X013336Y008390D01*
X013336Y008366D01*
X013340Y008342D01*
X013347Y008319D01*
X013358Y008297D01*
X013371Y008277D01*
X013388Y008260D01*
X013406Y008245D01*
X013427Y008233D01*
X013450Y008224D01*
X013473Y008219D01*
X013497Y008217D01*
X014587Y008154D02*
X014670Y008654D01*
X014009Y009910D02*
X013967Y009920D01*
X013925Y009927D01*
X013882Y009930D01*
X013839Y009929D01*
X013797Y009925D01*
X013755Y009918D01*
X013713Y009907D01*
X013673Y009893D01*
X013634Y009875D01*
X013596Y009855D01*
X013561Y009831D01*
X013527Y009804D01*
X013496Y009775D01*
X013467Y009744D01*
X013441Y009710D01*
X013418Y009674D01*
X014009Y009909D02*
X014055Y009894D01*
X014103Y009882D01*
X014151Y009874D01*
X014200Y009870D01*
X014249Y009869D01*
X014297Y009873D01*
X014346Y009880D01*
X014394Y009891D01*
X014440Y009905D01*
X014486Y009923D01*
X014530Y009945D01*
X014572Y009970D01*
X014612Y009998D01*
X014649Y010030D01*
X014685Y010064D01*
X014717Y010100D01*
X014746Y010140D01*
X014773Y010181D01*
X014796Y010224D01*
X014795Y010224D02*
X014810Y010264D01*
X014820Y010305D01*
X014827Y010346D01*
X014830Y010388D01*
X014829Y010430D01*
X014824Y010472D01*
X014815Y010513D01*
X014802Y010553D01*
X014786Y010592D01*
X014766Y010629D01*
X014743Y010664D01*
X014716Y010696D01*
X014717Y010697D02*
X014691Y010722D01*
X014668Y010750D01*
X014648Y010780D01*
X014631Y010813D01*
X014618Y010846D01*
X014609Y010881D01*
X014603Y010917D01*
X014601Y010953D01*
X014603Y010989D01*
X014609Y011025D01*
X014618Y011060D01*
X014631Y011093D01*
X014648Y011126D01*
X014668Y011156D01*
X014691Y011184D01*
X014717Y011209D01*
X016764Y012469D02*
X016528Y013138D01*
X016103Y014702D01*
X009442Y014594D02*
X009369Y014591D01*
X009296Y014590D01*
X013764Y008216D02*
X013882Y008223D01*
X014001Y008225D01*
X014119Y008221D01*
X014237Y008212D01*
X014354Y008198D01*
X014471Y008178D01*
X014587Y008153D01*
X013025Y010382D02*
X012010Y010350D01*
X010995Y010360D01*
X009981Y010410D01*
X008969Y010500D01*
X014718Y011209D02*
X015229Y011602D01*
D34*
X010347Y012587D02*
X008260Y012587D01*
X008261Y012587D02*
X008231Y012588D01*
X008201Y012592D01*
X008172Y012599D01*
X008144Y012609D01*
X008117Y012623D01*
X008092Y012640D01*
X008069Y012659D01*
X008049Y012681D01*
X008031Y012705D01*
X008016Y012731D01*
X008004Y012759D01*
X007996Y012788D01*
X007991Y012817D01*
X007989Y012847D01*
X007989Y013414D01*
X007988Y013413D02*
X007989Y013440D01*
X007992Y013466D01*
X008000Y013491D01*
X008010Y013515D01*
X008023Y013537D01*
X008040Y013558D01*
X008059Y013576D01*
X008080Y013592D01*
X008103Y013604D01*
X008127Y013614D01*
X008153Y013620D01*
X008179Y013623D01*
X008205Y013622D01*
X008300Y013374D02*
X008654Y013374D01*
X008300Y013374D02*
X008282Y013375D01*
X008263Y013372D01*
X008246Y013366D01*
X008229Y013358D01*
X008215Y013346D01*
X008202Y013333D01*
X008192Y013317D01*
X008184Y013300D01*
X008180Y013282D01*
X008178Y013264D01*
X008178Y013028D01*
X008654Y013375D02*
X008689Y013377D01*
X008724Y013382D01*
X008758Y013391D01*
X008791Y013403D01*
X008823Y013418D01*
X008853Y013436D01*
X008881Y013458D01*
X008907Y013481D01*
X008930Y013508D01*
X008951Y013536D01*
X008969Y013567D01*
X008983Y013599D01*
X008995Y013632D01*
X009002Y013667D01*
X009007Y013702D01*
X009008Y013737D01*
X009009Y013736D02*
X009009Y014020D01*
X009012Y014197D01*
X008836Y014232D02*
X008838Y014255D01*
X008843Y014277D01*
X008851Y014299D01*
X008862Y014319D01*
X008875Y014337D01*
X008892Y014354D01*
X008910Y014367D01*
X008930Y014378D01*
X008952Y014386D01*
X008974Y014391D01*
X008997Y014393D01*
X008997Y014394D02*
X009111Y014394D01*
X008528Y014598D02*
X008490Y014591D01*
X008454Y014581D01*
X008418Y014567D01*
X008384Y014549D01*
X008351Y014529D01*
X008321Y014505D01*
X008293Y014479D01*
X008268Y014450D01*
X008246Y014419D01*
X008227Y014386D01*
X008211Y014351D01*
X008198Y014315D01*
X008189Y014277D01*
X008184Y014239D01*
X008182Y014201D01*
X008178Y013973D01*
X008552Y013973D02*
X008552Y014177D01*
X008803Y013796D02*
X008797Y013769D01*
X008788Y013744D01*
X008776Y013720D01*
X008761Y013697D01*
X008744Y013677D01*
X008723Y013659D01*
X008701Y013644D01*
X008677Y013632D01*
X008652Y013623D01*
X008625Y013617D01*
X008599Y013615D01*
X010347Y012587D02*
X010375Y012583D01*
X010403Y012584D01*
X010431Y012588D01*
X010458Y012595D01*
X010484Y012606D01*
X010509Y012620D01*
X010531Y012638D01*
X010551Y012658D01*
X010569Y012680D01*
X010583Y012705D01*
X009111Y014591D02*
X008965Y014603D01*
X008819Y014609D01*
X008673Y014607D01*
X008528Y014599D01*
X008835Y014232D02*
X008831Y014086D01*
X008821Y013940D01*
X008804Y013795D01*
X008599Y013615D02*
X008402Y013615D01*
X008206Y013623D01*
D35*
X013221Y013099D03*
X014560Y013256D03*
X015229Y011603D03*
X014402Y010343D03*
X016764Y012469D03*
X016725Y013886D03*
X018575Y012429D03*
X017119Y011051D03*
X020379Y011429D03*
X018339Y007587D03*
D36*
X006341Y006998D02*
X006056Y008138D01*
X005623Y008099D02*
X004097Y008005D01*
D37*
X005859Y018610D02*
X006843Y018610D01*
X010229Y020736D02*
X011410Y020736D01*
X014835Y018610D02*
X015820Y018610D01*
M02*
