G75*
G70*
%OFA0B0*%
%FSLAX24Y24*%
%IPPOS*%
%LPD*%
%AMOC8*
5,1,8,0,0,1.08239X$1,22.5*
%
%ADD10C,0.0000*%
%ADD11C,0.0020*%
%ADD12C,0.0030*%
%ADD13C,0.0050*%
%ADD14C,0.0060*%
%ADD15C,0.0010*%
D10*
X002631Y002862D02*
X002631Y022429D01*
X020662Y022429D01*
X020662Y010421D01*
X021686Y009398D01*
X021686Y002862D01*
X002631Y002862D01*
X002847Y008532D02*
X002849Y008563D01*
X002855Y008594D01*
X002864Y008624D01*
X002877Y008653D01*
X002894Y008680D01*
X002914Y008704D01*
X002936Y008726D01*
X002962Y008745D01*
X002989Y008761D01*
X003018Y008773D01*
X003048Y008782D01*
X003079Y008787D01*
X003111Y008788D01*
X003142Y008785D01*
X003173Y008778D01*
X003203Y008768D01*
X003231Y008754D01*
X003257Y008736D01*
X003281Y008716D01*
X003302Y008692D01*
X003321Y008667D01*
X003336Y008639D01*
X003347Y008610D01*
X003355Y008579D01*
X003359Y008548D01*
X003359Y008516D01*
X003355Y008485D01*
X003347Y008454D01*
X003336Y008425D01*
X003321Y008397D01*
X003302Y008372D01*
X003281Y008348D01*
X003257Y008328D01*
X003231Y008310D01*
X003203Y008296D01*
X003173Y008286D01*
X003142Y008279D01*
X003111Y008276D01*
X003079Y008277D01*
X003048Y008282D01*
X003018Y008291D01*
X002989Y008303D01*
X002962Y008319D01*
X002936Y008338D01*
X002914Y008360D01*
X002894Y008384D01*
X002877Y008411D01*
X002864Y008440D01*
X002855Y008470D01*
X002849Y008501D01*
X002847Y008532D01*
X002847Y009595D02*
X002849Y009626D01*
X002855Y009657D01*
X002864Y009687D01*
X002877Y009716D01*
X002894Y009743D01*
X002914Y009767D01*
X002936Y009789D01*
X002962Y009808D01*
X002989Y009824D01*
X003018Y009836D01*
X003048Y009845D01*
X003079Y009850D01*
X003111Y009851D01*
X003142Y009848D01*
X003173Y009841D01*
X003203Y009831D01*
X003231Y009817D01*
X003257Y009799D01*
X003281Y009779D01*
X003302Y009755D01*
X003321Y009730D01*
X003336Y009702D01*
X003347Y009673D01*
X003355Y009642D01*
X003359Y009611D01*
X003359Y009579D01*
X003355Y009548D01*
X003347Y009517D01*
X003336Y009488D01*
X003321Y009460D01*
X003302Y009435D01*
X003281Y009411D01*
X003257Y009391D01*
X003231Y009373D01*
X003203Y009359D01*
X003173Y009349D01*
X003142Y009342D01*
X003111Y009339D01*
X003079Y009340D01*
X003048Y009345D01*
X003018Y009354D01*
X002989Y009366D01*
X002962Y009382D01*
X002936Y009401D01*
X002914Y009423D01*
X002894Y009447D01*
X002877Y009474D01*
X002864Y009503D01*
X002855Y009533D01*
X002849Y009564D01*
X002847Y009595D01*
X003437Y021091D02*
X003439Y021141D01*
X003445Y021191D01*
X003455Y021241D01*
X003468Y021289D01*
X003485Y021337D01*
X003506Y021383D01*
X003530Y021427D01*
X003558Y021469D01*
X003589Y021509D01*
X003623Y021546D01*
X003660Y021581D01*
X003699Y021612D01*
X003740Y021641D01*
X003784Y021666D01*
X003830Y021688D01*
X003877Y021706D01*
X003925Y021720D01*
X003974Y021731D01*
X004024Y021738D01*
X004074Y021741D01*
X004125Y021740D01*
X004175Y021735D01*
X004225Y021726D01*
X004273Y021714D01*
X004321Y021697D01*
X004367Y021677D01*
X004412Y021654D01*
X004455Y021627D01*
X004495Y021597D01*
X004533Y021564D01*
X004568Y021528D01*
X004601Y021489D01*
X004630Y021448D01*
X004656Y021405D01*
X004679Y021360D01*
X004698Y021313D01*
X004713Y021265D01*
X004725Y021216D01*
X004733Y021166D01*
X004737Y021116D01*
X004737Y021066D01*
X004733Y021016D01*
X004725Y020966D01*
X004713Y020917D01*
X004698Y020869D01*
X004679Y020822D01*
X004656Y020777D01*
X004630Y020734D01*
X004601Y020693D01*
X004568Y020654D01*
X004533Y020618D01*
X004495Y020585D01*
X004455Y020555D01*
X004412Y020528D01*
X004367Y020505D01*
X004321Y020485D01*
X004273Y020468D01*
X004225Y020456D01*
X004175Y020447D01*
X004125Y020442D01*
X004074Y020441D01*
X004024Y020444D01*
X003974Y020451D01*
X003925Y020462D01*
X003877Y020476D01*
X003830Y020494D01*
X003784Y020516D01*
X003740Y020541D01*
X003699Y020570D01*
X003660Y020601D01*
X003623Y020636D01*
X003589Y020673D01*
X003558Y020713D01*
X003530Y020755D01*
X003506Y020799D01*
X003485Y020845D01*
X003468Y020893D01*
X003455Y020941D01*
X003445Y020991D01*
X003439Y021041D01*
X003437Y021091D01*
X016981Y020973D02*
X016983Y021023D01*
X016989Y021073D01*
X016999Y021123D01*
X017012Y021171D01*
X017029Y021219D01*
X017050Y021265D01*
X017074Y021309D01*
X017102Y021351D01*
X017133Y021391D01*
X017167Y021428D01*
X017204Y021463D01*
X017243Y021494D01*
X017284Y021523D01*
X017328Y021548D01*
X017374Y021570D01*
X017421Y021588D01*
X017469Y021602D01*
X017518Y021613D01*
X017568Y021620D01*
X017618Y021623D01*
X017669Y021622D01*
X017719Y021617D01*
X017769Y021608D01*
X017817Y021596D01*
X017865Y021579D01*
X017911Y021559D01*
X017956Y021536D01*
X017999Y021509D01*
X018039Y021479D01*
X018077Y021446D01*
X018112Y021410D01*
X018145Y021371D01*
X018174Y021330D01*
X018200Y021287D01*
X018223Y021242D01*
X018242Y021195D01*
X018257Y021147D01*
X018269Y021098D01*
X018277Y021048D01*
X018281Y020998D01*
X018281Y020948D01*
X018277Y020898D01*
X018269Y020848D01*
X018257Y020799D01*
X018242Y020751D01*
X018223Y020704D01*
X018200Y020659D01*
X018174Y020616D01*
X018145Y020575D01*
X018112Y020536D01*
X018077Y020500D01*
X018039Y020467D01*
X017999Y020437D01*
X017956Y020410D01*
X017911Y020387D01*
X017865Y020367D01*
X017817Y020350D01*
X017769Y020338D01*
X017719Y020329D01*
X017669Y020324D01*
X017618Y020323D01*
X017568Y020326D01*
X017518Y020333D01*
X017469Y020344D01*
X017421Y020358D01*
X017374Y020376D01*
X017328Y020398D01*
X017284Y020423D01*
X017243Y020452D01*
X017204Y020483D01*
X017167Y020518D01*
X017133Y020555D01*
X017102Y020595D01*
X017074Y020637D01*
X017050Y020681D01*
X017029Y020727D01*
X017012Y020775D01*
X016999Y020823D01*
X016989Y020873D01*
X016983Y020923D01*
X016981Y020973D01*
D11*
X017874Y014116D02*
X017837Y014079D01*
X017837Y013933D01*
X017874Y013896D01*
X017947Y013896D01*
X017984Y013933D01*
X017984Y014006D01*
X017911Y014006D01*
X017984Y014079D02*
X017947Y014116D01*
X017874Y014116D01*
X018058Y014116D02*
X018205Y013896D01*
X018205Y014116D01*
X018279Y014116D02*
X018389Y014116D01*
X018426Y014079D01*
X018426Y013933D01*
X018389Y013896D01*
X018279Y013896D01*
X018279Y014116D01*
X018058Y014116D02*
X018058Y013896D01*
X013798Y013933D02*
X013762Y013896D01*
X013688Y013896D01*
X013651Y013933D01*
X013688Y014006D02*
X013762Y014006D01*
X013798Y013969D01*
X013798Y013933D01*
X013688Y014006D02*
X013651Y014043D01*
X013651Y014079D01*
X013688Y014116D01*
X013762Y014116D01*
X013798Y014079D01*
X013577Y014116D02*
X013431Y014116D01*
X013504Y014116D02*
X013504Y013896D01*
X013356Y013933D02*
X013320Y013896D01*
X013210Y013896D01*
X013210Y014116D01*
X013320Y014116D01*
X013356Y014079D01*
X013356Y013933D01*
X013135Y014116D02*
X012989Y013896D01*
X012841Y013896D02*
X012841Y014116D01*
X012768Y014116D02*
X012914Y014116D01*
X012693Y014079D02*
X012657Y014116D01*
X012583Y014116D01*
X012547Y014079D01*
X012547Y014043D01*
X012583Y014006D01*
X012657Y014006D01*
X012693Y013969D01*
X012693Y013933D01*
X012657Y013896D01*
X012583Y013896D01*
X012547Y013933D01*
X012472Y013896D02*
X012399Y013969D01*
X012436Y013969D02*
X012326Y013969D01*
X012326Y013896D02*
X012326Y014116D01*
X012436Y014116D01*
X012472Y014079D01*
X012472Y014006D01*
X012436Y013969D01*
X020787Y004470D02*
X020751Y004434D01*
X020751Y004287D01*
X020787Y004250D01*
X020861Y004250D01*
X020898Y004287D01*
X020898Y004360D01*
X020824Y004360D01*
X020898Y004434D02*
X020861Y004470D01*
X020787Y004470D01*
X020972Y004470D02*
X021119Y004250D01*
X021119Y004470D01*
X021193Y004470D02*
X021303Y004470D01*
X021340Y004434D01*
X021340Y004287D01*
X021303Y004250D01*
X021193Y004250D01*
X021193Y004470D01*
X020972Y004470D02*
X020972Y004250D01*
D12*
X007128Y021736D02*
X006934Y021736D01*
X007031Y021736D02*
X007031Y022026D01*
X006934Y021929D01*
X006833Y021929D02*
X006833Y021977D01*
X006785Y022026D01*
X006688Y022026D01*
X006640Y021977D01*
X006539Y022026D02*
X006345Y022026D01*
X006345Y021881D01*
X006442Y021929D01*
X006490Y021929D01*
X006539Y021881D01*
X006539Y021784D01*
X006490Y021736D01*
X006393Y021736D01*
X006345Y021784D01*
X006244Y021784D02*
X006196Y021736D01*
X006099Y021736D01*
X006050Y021784D01*
X006050Y021832D01*
X006099Y021881D01*
X006196Y021881D01*
X006244Y021832D01*
X006244Y021784D01*
X006196Y021881D02*
X006244Y021929D01*
X006244Y021977D01*
X006196Y022026D01*
X006099Y022026D01*
X006050Y021977D01*
X006050Y021929D01*
X006099Y021881D01*
X005949Y021929D02*
X005901Y021881D01*
X005949Y021832D01*
X005949Y021784D01*
X005901Y021736D01*
X005804Y021736D01*
X005756Y021784D01*
X005853Y021881D02*
X005901Y021881D01*
X005949Y021929D02*
X005949Y021977D01*
X005901Y022026D01*
X005804Y022026D01*
X005756Y021977D01*
X006640Y021736D02*
X006833Y021929D01*
X006833Y021736D02*
X006640Y021736D01*
D13*
X008103Y017232D02*
X014796Y017232D01*
X014796Y016524D02*
X008103Y016524D01*
X009071Y014768D02*
X009071Y013193D01*
X009229Y013193D01*
X009134Y013311D02*
X009136Y013325D01*
X009142Y013339D01*
X009150Y013351D01*
X009162Y013359D01*
X009176Y013365D01*
X009190Y013367D01*
X009204Y013365D01*
X009218Y013359D01*
X009230Y013351D01*
X009238Y013339D01*
X009244Y013325D01*
X009246Y013311D01*
X009244Y013297D01*
X009238Y013283D01*
X009230Y013271D01*
X009218Y013263D01*
X009204Y013257D01*
X009190Y013255D01*
X009176Y013257D01*
X009162Y013263D01*
X009150Y013271D01*
X009142Y013283D01*
X009136Y013297D01*
X009134Y013311D01*
X008749Y013185D02*
X008749Y013815D01*
X008701Y013815D01*
X008529Y013618D02*
X008531Y013636D01*
X008537Y013652D01*
X008546Y013668D01*
X008558Y013680D01*
X008573Y013690D01*
X008589Y013697D01*
X008607Y013700D01*
X008624Y013699D01*
X008641Y013694D01*
X008657Y013686D01*
X008671Y013674D01*
X008681Y013660D01*
X008689Y013644D01*
X008693Y013627D01*
X008693Y013609D01*
X008689Y013592D01*
X008681Y013576D01*
X008671Y013562D01*
X008657Y013550D01*
X008641Y013542D01*
X008624Y013537D01*
X008607Y013536D01*
X008589Y013539D01*
X008573Y013546D01*
X008558Y013556D01*
X008546Y013568D01*
X008537Y013584D01*
X008531Y013600D01*
X008529Y013618D01*
X008402Y013815D02*
X008327Y013815D01*
X008024Y013815D02*
X007957Y013815D01*
X007654Y013815D02*
X007607Y013815D01*
X007607Y013185D01*
X007654Y013185D01*
X007953Y013185D02*
X008028Y013185D01*
X008327Y013185D02*
X008402Y013185D01*
X008701Y013185D02*
X008749Y013185D01*
X009071Y014768D02*
X009229Y014768D01*
X010489Y014768D02*
X010646Y014768D01*
X010646Y013193D01*
X010489Y013193D01*
X008919Y010350D02*
X006517Y010350D01*
X006517Y007830D01*
X008879Y007830D01*
X011418Y006732D02*
X011418Y009410D01*
X011420Y009471D01*
X011426Y009531D01*
X011435Y009591D01*
X011449Y009650D01*
X011466Y009708D01*
X011487Y009765D01*
X011512Y009820D01*
X011540Y009874D01*
X011571Y009926D01*
X011606Y009975D01*
X011643Y010023D01*
X011684Y010067D01*
X011728Y010110D01*
X011774Y010149D01*
X011822Y010185D01*
X011873Y010218D01*
X011926Y010248D01*
X011980Y010274D01*
X012037Y010297D01*
X012094Y010316D01*
X012153Y010331D01*
X012212Y010343D01*
X012272Y010351D01*
X012333Y010355D01*
X012393Y010355D01*
X012454Y010351D01*
X012514Y010343D01*
X012573Y010331D01*
X012632Y010316D01*
X012689Y010297D01*
X012746Y010274D01*
X012800Y010248D01*
X012853Y010218D01*
X012904Y010185D01*
X012952Y010149D01*
X012998Y010110D01*
X013042Y010067D01*
X013083Y010023D01*
X013120Y009975D01*
X013155Y009926D01*
X013186Y009874D01*
X013214Y009820D01*
X013239Y009765D01*
X013260Y009708D01*
X013277Y009650D01*
X013291Y009591D01*
X013300Y009531D01*
X013306Y009471D01*
X013308Y009410D01*
X013308Y006693D01*
X013308Y006732D02*
X013306Y006671D01*
X013300Y006611D01*
X013291Y006551D01*
X013277Y006492D01*
X013260Y006434D01*
X013239Y006377D01*
X013214Y006322D01*
X013186Y006268D01*
X013155Y006216D01*
X013120Y006167D01*
X013083Y006119D01*
X013042Y006075D01*
X012998Y006032D01*
X012952Y005993D01*
X012904Y005957D01*
X012853Y005924D01*
X012800Y005894D01*
X012746Y005868D01*
X012689Y005845D01*
X012632Y005826D01*
X012573Y005811D01*
X012514Y005799D01*
X012454Y005791D01*
X012393Y005787D01*
X012333Y005787D01*
X012272Y005791D01*
X012212Y005799D01*
X012153Y005811D01*
X012094Y005826D01*
X012037Y005845D01*
X011980Y005868D01*
X011926Y005894D01*
X011873Y005924D01*
X011822Y005957D01*
X011774Y005993D01*
X011728Y006032D01*
X011684Y006075D01*
X011643Y006119D01*
X011606Y006167D01*
X011571Y006216D01*
X011540Y006268D01*
X011512Y006322D01*
X011487Y006377D01*
X011466Y006434D01*
X011449Y006492D01*
X011435Y006551D01*
X011426Y006611D01*
X011420Y006671D01*
X011418Y006732D01*
X016001Y007134D02*
X018757Y007134D01*
X018757Y009890D01*
X016001Y009890D01*
X016001Y007134D01*
X016126Y009654D02*
X016128Y009674D01*
X016133Y009694D01*
X016143Y009712D01*
X016155Y009729D01*
X016170Y009743D01*
X016188Y009753D01*
X016207Y009761D01*
X016227Y009765D01*
X016247Y009765D01*
X016267Y009761D01*
X016286Y009753D01*
X016304Y009743D01*
X016319Y009729D01*
X016331Y009712D01*
X016341Y009694D01*
X016346Y009674D01*
X016348Y009654D01*
X016346Y009634D01*
X016341Y009614D01*
X016331Y009596D01*
X016319Y009579D01*
X016304Y009565D01*
X016286Y009555D01*
X016267Y009547D01*
X016247Y009543D01*
X016227Y009543D01*
X016207Y009547D01*
X016188Y009555D01*
X016170Y009565D01*
X016155Y009579D01*
X016143Y009596D01*
X016133Y009614D01*
X016128Y009634D01*
X016126Y009654D01*
X006312Y006112D02*
X006312Y005876D01*
X006312Y006112D02*
X005171Y006112D01*
X004816Y005600D02*
X004816Y005443D01*
X005171Y004931D02*
X006312Y004931D01*
X006312Y005088D01*
X006171Y005096D02*
X006138Y005055D01*
X006101Y005016D01*
X006062Y004980D01*
X006020Y004947D01*
X005976Y004918D01*
X005929Y004891D01*
X005882Y004868D01*
X005832Y004848D01*
X005781Y004832D01*
X005729Y004820D01*
X005677Y004812D01*
X005624Y004807D01*
X005571Y004806D01*
X005518Y004809D01*
X005465Y004816D01*
X005413Y004827D01*
X005361Y004841D01*
X005311Y004859D01*
X005263Y004881D01*
X005216Y004906D01*
X005171Y004934D01*
X005170Y006112D02*
X005214Y006139D01*
X005259Y006163D01*
X005306Y006183D01*
X005354Y006200D01*
X005404Y006213D01*
X005454Y006223D01*
X005505Y006229D01*
X005556Y006232D01*
X005607Y006231D01*
X005658Y006226D01*
X005708Y006217D01*
X005758Y006205D01*
X005807Y006190D01*
X005854Y006170D01*
X005900Y006148D01*
X005944Y006122D01*
X005986Y006093D01*
X006026Y006061D01*
X006064Y006027D01*
X006099Y005989D01*
X006131Y005950D01*
X006161Y005908D01*
X006187Y005864D01*
D14*
X008536Y011209D02*
X009009Y011209D01*
X009009Y011839D02*
X008536Y011839D01*
X007284Y013047D02*
X007284Y013520D01*
X006654Y013520D02*
X006654Y013047D01*
X006505Y012555D02*
X006032Y012555D01*
X006032Y011925D02*
X006505Y011925D01*
X006190Y013666D02*
X006190Y014138D01*
X005560Y014138D02*
X005560Y013666D01*
X005048Y013669D02*
X005048Y014142D01*
X004418Y014142D02*
X004418Y013669D01*
X003985Y013673D02*
X003985Y014146D01*
X003355Y014146D02*
X003355Y013673D01*
X011115Y012579D02*
X011587Y012579D01*
X011587Y011949D02*
X011115Y011949D01*
X013339Y010697D02*
X013812Y010697D01*
X013812Y010067D02*
X013339Y010067D01*
X014631Y009284D02*
X014631Y008811D01*
X014355Y008847D02*
X014355Y008374D01*
X013725Y008374D02*
X013725Y008847D01*
X015260Y008811D02*
X015260Y009284D01*
X016985Y011803D02*
X016985Y012276D01*
X017615Y012276D02*
X017615Y011803D01*
X017764Y011799D02*
X017764Y012272D01*
X018394Y012272D02*
X018394Y011799D01*
X019709Y008973D02*
X019709Y008500D01*
X020339Y008500D02*
X020339Y008973D01*
X018092Y005694D02*
X017970Y005238D01*
X018578Y005075D02*
X018700Y005531D01*
D15*
X017987Y005514D02*
X017974Y005466D01*
X017944Y005448D01*
X017873Y005571D01*
X017970Y005545D01*
X017987Y005514D01*
X017944Y005448D02*
X017847Y005474D01*
X017829Y005505D01*
X017842Y005553D01*
X017873Y005571D01*
X017835Y005428D02*
X017906Y005306D01*
X017936Y005323D01*
X017949Y005372D01*
X017932Y005402D01*
X017835Y005428D01*
X017804Y005411D01*
X017791Y005362D01*
X017809Y005332D01*
X017906Y005306D01*
X017918Y005254D02*
X017892Y005157D01*
X017905Y005205D02*
X017760Y005244D01*
X017795Y005183D01*
M02*
