G75*
G70*
%OFA0B0*%
%FSLAX24Y24*%
%IPPOS*%
%LPD*%
%AMOC8*
5,1,8,0,0,1.08239X$1,22.5*
%
%ADD10C,0.0000*%
%ADD11R,0.0138X0.0472*%
%ADD12R,0.0472X0.0138*%
%ADD13C,0.0660*%
%ADD14R,0.0394X0.0512*%
%ADD15R,0.0472X0.0472*%
%ADD16R,0.0157X0.0394*%
%ADD17C,0.1000*%
%ADD18R,0.1299X0.0984*%
%ADD19R,0.0098X0.0295*%
%ADD20R,0.2441X0.2283*%
%ADD21R,0.1181X0.0630*%
%ADD22C,0.0740*%
%ADD23R,0.0591X0.0630*%
%ADD24R,0.0472X0.0472*%
%ADD25R,0.0787X0.0709*%
%ADD26C,0.2540*%
%ADD27C,0.0413*%
%ADD28C,0.0317*%
%ADD29C,0.0100*%
%ADD30C,0.0472*%
%ADD31C,0.0320*%
%ADD32C,0.0356*%
%ADD33C,0.3937*%
D10*
X002631Y002862D02*
X002631Y022429D01*
X020662Y022429D01*
X020662Y010421D01*
X021686Y009398D01*
X021686Y002862D01*
X002631Y002862D01*
X002847Y008532D02*
X002849Y008563D01*
X002855Y008594D01*
X002864Y008624D01*
X002877Y008653D01*
X002894Y008680D01*
X002914Y008704D01*
X002936Y008726D01*
X002962Y008745D01*
X002989Y008761D01*
X003018Y008773D01*
X003048Y008782D01*
X003079Y008787D01*
X003111Y008788D01*
X003142Y008785D01*
X003173Y008778D01*
X003203Y008768D01*
X003231Y008754D01*
X003257Y008736D01*
X003281Y008716D01*
X003302Y008692D01*
X003321Y008667D01*
X003336Y008639D01*
X003347Y008610D01*
X003355Y008579D01*
X003359Y008548D01*
X003359Y008516D01*
X003355Y008485D01*
X003347Y008454D01*
X003336Y008425D01*
X003321Y008397D01*
X003302Y008372D01*
X003281Y008348D01*
X003257Y008328D01*
X003231Y008310D01*
X003203Y008296D01*
X003173Y008286D01*
X003142Y008279D01*
X003111Y008276D01*
X003079Y008277D01*
X003048Y008282D01*
X003018Y008291D01*
X002989Y008303D01*
X002962Y008319D01*
X002936Y008338D01*
X002914Y008360D01*
X002894Y008384D01*
X002877Y008411D01*
X002864Y008440D01*
X002855Y008470D01*
X002849Y008501D01*
X002847Y008532D01*
X002847Y009595D02*
X002849Y009626D01*
X002855Y009657D01*
X002864Y009687D01*
X002877Y009716D01*
X002894Y009743D01*
X002914Y009767D01*
X002936Y009789D01*
X002962Y009808D01*
X002989Y009824D01*
X003018Y009836D01*
X003048Y009845D01*
X003079Y009850D01*
X003111Y009851D01*
X003142Y009848D01*
X003173Y009841D01*
X003203Y009831D01*
X003231Y009817D01*
X003257Y009799D01*
X003281Y009779D01*
X003302Y009755D01*
X003321Y009730D01*
X003336Y009702D01*
X003347Y009673D01*
X003355Y009642D01*
X003359Y009611D01*
X003359Y009579D01*
X003355Y009548D01*
X003347Y009517D01*
X003336Y009488D01*
X003321Y009460D01*
X003302Y009435D01*
X003281Y009411D01*
X003257Y009391D01*
X003231Y009373D01*
X003203Y009359D01*
X003173Y009349D01*
X003142Y009342D01*
X003111Y009339D01*
X003079Y009340D01*
X003048Y009345D01*
X003018Y009354D01*
X002989Y009366D01*
X002962Y009382D01*
X002936Y009401D01*
X002914Y009423D01*
X002894Y009447D01*
X002877Y009474D01*
X002864Y009503D01*
X002855Y009533D01*
X002849Y009564D01*
X002847Y009595D01*
X003437Y021091D02*
X003439Y021141D01*
X003445Y021191D01*
X003455Y021241D01*
X003468Y021289D01*
X003485Y021337D01*
X003506Y021383D01*
X003530Y021427D01*
X003558Y021469D01*
X003589Y021509D01*
X003623Y021546D01*
X003660Y021581D01*
X003699Y021612D01*
X003740Y021641D01*
X003784Y021666D01*
X003830Y021688D01*
X003877Y021706D01*
X003925Y021720D01*
X003974Y021731D01*
X004024Y021738D01*
X004074Y021741D01*
X004125Y021740D01*
X004175Y021735D01*
X004225Y021726D01*
X004273Y021714D01*
X004321Y021697D01*
X004367Y021677D01*
X004412Y021654D01*
X004455Y021627D01*
X004495Y021597D01*
X004533Y021564D01*
X004568Y021528D01*
X004601Y021489D01*
X004630Y021448D01*
X004656Y021405D01*
X004679Y021360D01*
X004698Y021313D01*
X004713Y021265D01*
X004725Y021216D01*
X004733Y021166D01*
X004737Y021116D01*
X004737Y021066D01*
X004733Y021016D01*
X004725Y020966D01*
X004713Y020917D01*
X004698Y020869D01*
X004679Y020822D01*
X004656Y020777D01*
X004630Y020734D01*
X004601Y020693D01*
X004568Y020654D01*
X004533Y020618D01*
X004495Y020585D01*
X004455Y020555D01*
X004412Y020528D01*
X004367Y020505D01*
X004321Y020485D01*
X004273Y020468D01*
X004225Y020456D01*
X004175Y020447D01*
X004125Y020442D01*
X004074Y020441D01*
X004024Y020444D01*
X003974Y020451D01*
X003925Y020462D01*
X003877Y020476D01*
X003830Y020494D01*
X003784Y020516D01*
X003740Y020541D01*
X003699Y020570D01*
X003660Y020601D01*
X003623Y020636D01*
X003589Y020673D01*
X003558Y020713D01*
X003530Y020755D01*
X003506Y020799D01*
X003485Y020845D01*
X003468Y020893D01*
X003455Y020941D01*
X003445Y020991D01*
X003439Y021041D01*
X003437Y021091D01*
X016981Y020973D02*
X016983Y021023D01*
X016989Y021073D01*
X016999Y021123D01*
X017012Y021171D01*
X017029Y021219D01*
X017050Y021265D01*
X017074Y021309D01*
X017102Y021351D01*
X017133Y021391D01*
X017167Y021428D01*
X017204Y021463D01*
X017243Y021494D01*
X017284Y021523D01*
X017328Y021548D01*
X017374Y021570D01*
X017421Y021588D01*
X017469Y021602D01*
X017518Y021613D01*
X017568Y021620D01*
X017618Y021623D01*
X017669Y021622D01*
X017719Y021617D01*
X017769Y021608D01*
X017817Y021596D01*
X017865Y021579D01*
X017911Y021559D01*
X017956Y021536D01*
X017999Y021509D01*
X018039Y021479D01*
X018077Y021446D01*
X018112Y021410D01*
X018145Y021371D01*
X018174Y021330D01*
X018200Y021287D01*
X018223Y021242D01*
X018242Y021195D01*
X018257Y021147D01*
X018269Y021098D01*
X018277Y021048D01*
X018281Y020998D01*
X018281Y020948D01*
X018277Y020898D01*
X018269Y020848D01*
X018257Y020799D01*
X018242Y020751D01*
X018223Y020704D01*
X018200Y020659D01*
X018174Y020616D01*
X018145Y020575D01*
X018112Y020536D01*
X018077Y020500D01*
X018039Y020467D01*
X017999Y020437D01*
X017956Y020410D01*
X017911Y020387D01*
X017865Y020367D01*
X017817Y020350D01*
X017769Y020338D01*
X017719Y020329D01*
X017669Y020324D01*
X017618Y020323D01*
X017568Y020326D01*
X017518Y020333D01*
X017469Y020344D01*
X017421Y020358D01*
X017374Y020376D01*
X017328Y020398D01*
X017284Y020423D01*
X017243Y020452D01*
X017204Y020483D01*
X017167Y020518D01*
X017133Y020555D01*
X017102Y020595D01*
X017074Y020637D01*
X017050Y020681D01*
X017029Y020727D01*
X017012Y020775D01*
X016999Y020823D01*
X016989Y020873D01*
X016983Y020923D01*
X016981Y020973D01*
D11*
X016906Y010244D03*
X016591Y010244D03*
X016276Y010244D03*
X017221Y010244D03*
X017536Y010244D03*
X017851Y010244D03*
X018166Y010244D03*
X018481Y010244D03*
X018481Y006780D03*
X018166Y006780D03*
X017851Y006780D03*
X017536Y006780D03*
X017221Y006780D03*
X016906Y006780D03*
X016591Y006780D03*
X016276Y006780D03*
D12*
X015646Y007410D03*
X015646Y007725D03*
X015646Y008040D03*
X015646Y008354D03*
X015646Y008669D03*
X015646Y008984D03*
X015646Y009299D03*
X015646Y009614D03*
X019111Y009614D03*
X019111Y009299D03*
X019111Y008984D03*
X019111Y008669D03*
X019111Y008354D03*
X019111Y008040D03*
X019111Y007725D03*
X019111Y007410D03*
D13*
X012363Y007110D03*
X012363Y009032D03*
D14*
X010599Y009311D03*
X010599Y008563D03*
X010607Y007559D03*
X010607Y006811D03*
D15*
X014040Y008217D03*
X014040Y009004D03*
X014946Y008654D03*
X014946Y009441D03*
X013969Y010382D03*
X013182Y010382D03*
X011745Y012264D03*
X010957Y012264D03*
X009166Y011524D03*
X008379Y011524D03*
X006662Y012240D03*
X006969Y012890D03*
X006969Y013677D03*
X005875Y013508D03*
X005875Y014295D03*
X004733Y014299D03*
X004733Y013512D03*
X003670Y013516D03*
X003670Y014303D03*
X005875Y012240D03*
X004856Y005915D03*
X004856Y005128D03*
X017300Y011646D03*
X018079Y011642D03*
X018079Y012429D03*
X017300Y012433D03*
X020024Y009130D03*
X020024Y008343D03*
D16*
X008552Y013028D03*
X008178Y013028D03*
X007804Y013028D03*
X007804Y013973D03*
X008178Y013973D03*
X008552Y013973D03*
D17*
X007434Y016878D03*
X015426Y016878D03*
D18*
X009859Y013980D03*
D19*
X009957Y013201D03*
X009760Y013201D03*
X009564Y013201D03*
X009367Y013201D03*
X010154Y013201D03*
X010351Y013201D03*
X010351Y014760D03*
X010154Y014760D03*
X009957Y014760D03*
X009760Y014760D03*
X009564Y014760D03*
X009367Y014760D03*
D20*
X008328Y009090D03*
D21*
X005494Y009917D03*
X005494Y008263D03*
D22*
X004077Y008507D03*
X004077Y009647D03*
X003929Y004115D03*
X004929Y004015D03*
X005929Y004115D03*
X006929Y004015D03*
X007929Y004115D03*
X008929Y004015D03*
X009929Y004115D03*
X010929Y004015D03*
X011926Y004115D03*
X012926Y004015D03*
X013926Y004115D03*
X014926Y004015D03*
X015926Y004115D03*
X016926Y004015D03*
X017926Y004115D03*
X018926Y004015D03*
X019962Y005185D03*
X020966Y005185D03*
X021066Y006185D03*
X020966Y007185D03*
X020062Y006185D03*
X019962Y007185D03*
X019982Y014288D03*
X020082Y015288D03*
X019982Y016288D03*
X020082Y017288D03*
X019982Y018288D03*
X020082Y019288D03*
X019982Y020288D03*
X020082Y021288D03*
X018103Y014702D03*
X017103Y014802D03*
X016103Y014702D03*
X015103Y014802D03*
X014103Y014702D03*
X013103Y014802D03*
D23*
X006155Y005482D03*
D24*
G36*
X018522Y005170D02*
X018399Y004715D01*
X017944Y004838D01*
X018067Y005293D01*
X018522Y005170D01*
G37*
G36*
X018726Y005931D02*
X018603Y005476D01*
X018148Y005599D01*
X018271Y006054D01*
X018726Y005931D01*
G37*
D25*
X007010Y007116D03*
X005750Y007116D03*
X005512Y011151D03*
X006772Y011151D03*
D26*
X005268Y016878D03*
X010150Y020225D03*
X012946Y020225D03*
X017355Y016878D03*
D27*
X007827Y007114D03*
D28*
X010583Y008059D03*
X014048Y009595D03*
X014953Y010028D03*
X016253Y008925D03*
X016213Y008374D03*
X018457Y008689D03*
X020032Y009673D03*
X012237Y012272D03*
X010190Y013729D03*
X010150Y014162D03*
X009560Y014162D03*
X009560Y013729D03*
X006961Y014240D03*
X005859Y012980D03*
X005347Y012232D03*
X004796Y011169D03*
X007867Y011524D03*
D29*
X015819Y013689D02*
X016122Y013122D01*
X016410Y012548D01*
X016764Y012469D02*
X016528Y013138D01*
X016103Y014702D01*
X015103Y014802D02*
X015087Y014733D01*
X015074Y014663D01*
X015066Y014593D01*
X015061Y014522D01*
X015060Y014451D01*
X015063Y014380D01*
X015070Y014310D01*
X015081Y014240D01*
X015095Y014170D01*
X015114Y014102D01*
X015136Y014035D01*
X015161Y013968D01*
X015190Y013904D01*
X015223Y013841D01*
X015259Y013780D01*
X015298Y013721D01*
X015341Y013664D01*
X015386Y013610D01*
X008812Y013216D02*
X008815Y012980D01*
X008829Y012743D01*
X008852Y012508D01*
X008575Y012350D02*
X008581Y012321D01*
X008590Y012293D01*
X008601Y012265D01*
X008616Y012239D01*
X008634Y012215D01*
X008654Y012193D01*
X008676Y012173D01*
X008700Y012155D01*
X008726Y012140D01*
X008754Y012129D01*
X008782Y012120D01*
X008811Y012114D01*
X008812Y012114D02*
X010229Y012114D01*
X010308Y012114D01*
X010229Y012114D02*
X010268Y012193D01*
X010347Y012547D02*
X010349Y012821D01*
X010351Y013201D01*
X010154Y013201D02*
X010154Y013055D01*
X009957Y013201D02*
X009953Y013571D01*
X010190Y013729D01*
X010308Y012114D02*
X010383Y012116D01*
X010457Y012122D01*
X010531Y012131D01*
X010605Y012144D01*
X010678Y012161D01*
X010749Y012181D01*
X010820Y012205D01*
X010890Y012233D01*
X010958Y012264D01*
X010780Y012862D02*
X013536Y012862D01*
X013615Y013177D02*
X013930Y013177D01*
X013615Y013177D02*
X011174Y013217D01*
X011174Y013216D02*
X011140Y013213D01*
X011106Y013214D01*
X011073Y013218D01*
X011040Y013226D01*
X011008Y013238D01*
X010978Y013253D01*
X010950Y013271D01*
X010923Y013292D01*
X010899Y013315D01*
X010878Y013341D01*
X010860Y013370D01*
X010845Y013400D01*
X010833Y013431D01*
X010825Y013464D01*
X010820Y013497D01*
X010819Y013531D01*
X011095Y013689D02*
X011095Y014673D01*
X011093Y014712D01*
X011087Y014750D01*
X011078Y014787D01*
X011065Y014824D01*
X011048Y014859D01*
X011029Y014892D01*
X011006Y014923D01*
X010980Y014952D01*
X010951Y014978D01*
X010920Y015001D01*
X010887Y015020D01*
X010852Y015037D01*
X010815Y015050D01*
X010778Y015059D01*
X010740Y015065D01*
X010701Y015067D01*
X010229Y015067D01*
X010229Y015068D02*
X010211Y015058D01*
X010195Y015045D01*
X010180Y015030D01*
X010169Y015013D01*
X010161Y014994D01*
X010156Y014974D01*
X010154Y014953D01*
X010154Y014760D01*
X009957Y014760D02*
X009957Y014933D01*
X009760Y014929D02*
X009760Y014760D01*
X009564Y014760D02*
X009560Y015185D01*
X009559Y015185D02*
X009562Y015217D01*
X009561Y015248D01*
X009557Y015279D01*
X009550Y015310D01*
X009539Y015340D01*
X009525Y015368D01*
X009508Y015394D01*
X009488Y015419D01*
X009466Y015441D01*
X009441Y015461D01*
X009442Y015461D02*
X007434Y016878D01*
X005977Y019949D02*
X005816Y019939D01*
X005655Y019920D01*
X005496Y019894D01*
X005338Y019860D01*
X005182Y019819D01*
X005029Y019771D01*
X004877Y019714D01*
X004729Y019651D01*
X004584Y019581D01*
X004442Y019504D01*
X004304Y019420D01*
X004171Y019329D01*
X004042Y019232D01*
X003917Y019129D01*
X003798Y019020D01*
X003684Y018906D01*
X003576Y018786D01*
X003474Y018661D01*
X003378Y018532D01*
X003379Y018532D02*
X003299Y018413D01*
X003226Y018290D01*
X003158Y018165D01*
X003096Y018036D01*
X003040Y017904D01*
X002991Y017770D01*
X002948Y017634D01*
X002911Y017495D01*
X002881Y017356D01*
X002858Y017214D01*
X002842Y017072D01*
X002832Y016930D01*
X002829Y016787D01*
X002833Y016644D01*
X002843Y016501D01*
X002861Y016359D01*
X002885Y016219D01*
X002916Y016079D01*
X002953Y015941D01*
X002997Y015805D01*
X003047Y015671D01*
X003103Y015540D01*
X003670Y014303D01*
X003670Y013516D02*
X004733Y013512D01*
X004733Y014299D02*
X005875Y014295D01*
X006449Y014516D01*
X007001Y014673D02*
X009367Y014760D01*
X009009Y014358D02*
X008379Y014358D01*
X008378Y014358D02*
X008353Y014359D01*
X008327Y014356D01*
X008302Y014349D01*
X008279Y014339D01*
X008257Y014326D01*
X008237Y014310D01*
X008219Y014291D01*
X008205Y014270D01*
X008193Y014248D01*
X008184Y014224D01*
X008179Y014199D01*
X008177Y014173D01*
X008178Y014173D02*
X008178Y013973D01*
X007804Y013973D02*
X007800Y014406D01*
X007804Y013973D02*
X007804Y013028D01*
X007801Y013004D01*
X007795Y012981D01*
X007786Y012959D01*
X007774Y012938D01*
X007759Y012919D01*
X007741Y012903D01*
X007722Y012889D01*
X007701Y012878D01*
X007678Y012870D01*
X007655Y012865D01*
X007631Y012863D01*
X007631Y012862D02*
X007394Y012862D01*
X006969Y012890D01*
X006662Y012240D01*
X006725Y011957D01*
X006725Y011563D01*
X006772Y011151D01*
X007276Y011130D01*
X007277Y011129D02*
X007324Y011125D01*
X007371Y011118D01*
X007417Y011106D01*
X007462Y011090D01*
X007505Y011071D01*
X007547Y011049D01*
X007587Y011023D01*
X007624Y010993D01*
X007659Y010961D01*
X007691Y010926D01*
X007721Y010889D01*
X007747Y010849D01*
X007769Y010807D01*
X007788Y010764D01*
X007804Y010719D01*
X007816Y010673D01*
X007823Y010626D01*
X007827Y010579D01*
X009166Y011012D02*
X009163Y010885D01*
X009154Y010759D01*
X009138Y010633D01*
X009117Y010508D01*
X009090Y010384D01*
X009056Y010261D01*
X009017Y010141D01*
X008972Y010022D01*
X008921Y009906D01*
X008865Y009792D01*
X008803Y009681D01*
X008736Y009573D01*
X008664Y009469D01*
X008587Y009368D01*
X008505Y009271D01*
X008419Y009178D01*
X008328Y009090D01*
X008654Y008020D01*
X008655Y008020D02*
X008674Y007950D01*
X008689Y007879D01*
X008701Y007808D01*
X008709Y007736D01*
X008713Y007664D01*
X008713Y007592D01*
X008709Y007520D01*
X008701Y007448D01*
X008689Y007377D01*
X008674Y007306D01*
X008655Y007236D01*
X008632Y007168D01*
X008605Y007101D01*
X008575Y007035D01*
X008542Y006971D01*
X008505Y006909D01*
X008464Y006849D01*
X008421Y006791D01*
X008374Y006736D01*
X008325Y006683D01*
X008273Y006633D01*
X008218Y006586D01*
X008161Y006542D01*
X008101Y006501D01*
X008040Y006463D01*
X007976Y006429D01*
X007911Y006398D01*
X007844Y006371D01*
X007776Y006347D01*
X007706Y006327D01*
X007636Y006311D01*
X007565Y006298D01*
X007493Y006290D01*
X007421Y006285D01*
X007349Y006284D01*
X007277Y006287D01*
X007276Y006288D02*
X006213Y006288D01*
X006162Y006286D01*
X006112Y006281D01*
X006062Y006272D01*
X006013Y006259D01*
X005965Y006243D01*
X005918Y006224D01*
X005873Y006201D01*
X005830Y006175D01*
X005788Y006147D01*
X005749Y006115D01*
X005712Y006080D01*
X005677Y006043D01*
X005645Y006004D01*
X005617Y005962D01*
X005591Y005919D01*
X005568Y005874D01*
X005549Y005827D01*
X005533Y005779D01*
X005520Y005730D01*
X005511Y005680D01*
X005506Y005630D01*
X005504Y005579D01*
X005502Y005537D01*
X005497Y005495D01*
X005488Y005454D01*
X005475Y005414D01*
X005459Y005375D01*
X005439Y005338D01*
X005416Y005302D01*
X005391Y005269D01*
X005362Y005238D01*
X005331Y005210D01*
X005298Y005184D01*
X005262Y005162D01*
X005225Y005142D01*
X005186Y005126D01*
X005145Y005114D01*
X005104Y005105D01*
X005063Y005100D01*
X005020Y005098D01*
X004978Y005100D01*
X004937Y005106D01*
X004896Y005115D01*
X004856Y005128D01*
X004929Y004015D01*
X005929Y004115D02*
X006155Y005482D01*
X004856Y005915D02*
X004560Y005894D01*
X015662Y012390D02*
X015922Y011936D01*
X016164Y011471D01*
X016387Y010998D01*
X016591Y010516D01*
X016591Y010244D01*
X016906Y010244D02*
X016914Y010551D01*
X017237Y010500D02*
X017221Y010244D01*
X017237Y010500D02*
X017119Y011051D01*
X019442Y010618D02*
X019427Y010517D01*
X019407Y010417D01*
X019383Y010317D01*
X019354Y010219D01*
X019321Y010122D01*
X019284Y010027D01*
X019284Y010028D02*
X019111Y009614D01*
X019418Y009299D02*
X019450Y009301D01*
X019481Y009307D01*
X019511Y009316D01*
X019540Y009329D01*
X019567Y009346D01*
X019592Y009365D01*
X019615Y009388D01*
X019634Y009413D01*
X019651Y009440D01*
X019663Y009469D01*
X019673Y009500D01*
X019678Y009531D01*
X019680Y009563D01*
X019678Y009594D01*
X019678Y009595D02*
X019678Y010067D01*
X017315Y009437D02*
X017287Y009535D01*
X017264Y009635D01*
X017246Y009735D01*
X017232Y009836D01*
X017222Y009938D01*
X017217Y010040D01*
X017216Y010142D01*
X017220Y010244D01*
X017536Y010244D02*
X017512Y010540D01*
X017300Y011646D01*
X017000Y011681D02*
X016962Y011683D01*
X016923Y011689D01*
X016886Y011699D01*
X016849Y011712D01*
X016814Y011729D01*
X016781Y011748D01*
X016749Y011771D01*
X016720Y011797D01*
X016694Y011825D01*
X016670Y011856D01*
X016649Y011888D01*
X016631Y011923D01*
X016617Y011959D01*
X016606Y011996D01*
X017300Y012433D02*
X018079Y012429D01*
X018929Y012626D02*
X018930Y012694D01*
X018926Y012761D01*
X018919Y012828D01*
X018908Y012895D01*
X018894Y012961D01*
X018876Y013026D01*
X018854Y013090D01*
X018829Y013152D01*
X018800Y013213D01*
X018768Y013273D01*
X018733Y013330D01*
X018695Y013386D01*
X018653Y013439D01*
X018609Y013490D01*
X018562Y013538D01*
X018513Y013584D01*
X018461Y013627D01*
X018406Y013667D01*
X018350Y013704D01*
X018292Y013738D01*
X018231Y013769D01*
X018170Y013796D01*
X018106Y013820D01*
X018042Y013840D01*
X017977Y013856D01*
X017910Y013869D01*
X017844Y013879D01*
X017776Y013884D01*
X017709Y013886D01*
X016725Y013886D01*
X020505Y013414D02*
X020503Y013246D01*
X020493Y013079D01*
X020476Y012912D01*
X020451Y012746D01*
X020419Y012582D01*
X020379Y012419D01*
X020332Y012259D01*
X020277Y012100D01*
X020216Y011944D01*
X020147Y011791D01*
X020072Y011642D01*
X020379Y011429D02*
X020465Y010382D01*
X020426Y005697D02*
X020235Y005690D01*
X020044Y005690D01*
X019852Y005699D01*
X019662Y005717D01*
X019472Y005742D01*
X019284Y005776D01*
X019244Y005786D01*
X019204Y005799D01*
X019165Y005816D01*
X019128Y005836D01*
X019093Y005859D01*
X019059Y005885D01*
X019028Y005913D01*
X019000Y005944D01*
X018974Y005978D01*
X018951Y006013D01*
X018931Y006050D01*
X018914Y006089D01*
X018901Y006129D01*
X018891Y006169D01*
X018437Y005765D02*
X019962Y005185D01*
X020425Y005697D02*
X020479Y005703D01*
X020531Y005712D01*
X020583Y005725D01*
X020634Y005741D01*
X020683Y005762D01*
X020731Y005786D01*
X020776Y005813D01*
X020820Y005844D01*
X020861Y005878D01*
X020900Y005915D01*
X020935Y005954D01*
X020968Y005997D01*
X020998Y006041D01*
X021024Y006087D01*
X021047Y006136D01*
X021066Y006186D01*
X020966Y007185D02*
X020024Y008343D01*
X019596Y008348D01*
X019111Y008354D01*
X018808Y008358D01*
X018807Y008358D02*
X018782Y008357D01*
X018757Y008352D01*
X018733Y008344D01*
X018710Y008333D01*
X018688Y008319D01*
X018669Y008302D01*
X018652Y008283D01*
X018638Y008261D01*
X018627Y008238D01*
X018619Y008214D01*
X018614Y008189D01*
X018613Y008164D01*
X018615Y008138D01*
X018615Y007980D01*
X018617Y007949D01*
X018623Y007918D01*
X018632Y007888D01*
X018645Y007859D01*
X018662Y007832D01*
X018682Y007808D01*
X018704Y007786D01*
X018730Y007767D01*
X018757Y007751D01*
X018786Y007739D01*
X018816Y007730D01*
X018847Y007725D01*
X018879Y007724D01*
X019111Y007410D02*
X019166Y006996D01*
X018811Y006957D02*
X018809Y006985D01*
X018804Y007013D01*
X018796Y007041D01*
X018784Y007067D01*
X018769Y007091D01*
X018752Y007113D01*
X018731Y007134D01*
X018709Y007151D01*
X018685Y007166D01*
X018659Y007178D01*
X018631Y007186D01*
X018603Y007191D01*
X018575Y007193D01*
X018339Y007193D01*
X018319Y007196D01*
X018299Y007196D01*
X018279Y007192D01*
X018260Y007186D01*
X018242Y007176D01*
X018225Y007164D01*
X018211Y007149D01*
X018200Y007133D01*
X018191Y007114D01*
X018185Y007095D01*
X018182Y007075D01*
X018166Y006780D01*
X018481Y006780D02*
X018437Y005765D01*
X017985Y006051D02*
X016926Y004015D01*
X015926Y004115D02*
X017670Y006130D01*
X017355Y006248D02*
X014926Y004015D01*
X013926Y004115D02*
X017079Y006327D01*
X017670Y006131D02*
X017703Y006172D01*
X017734Y006216D01*
X017762Y006262D01*
X017786Y006310D01*
X017808Y006359D01*
X017825Y006409D01*
X017840Y006461D01*
X017851Y006513D01*
X017858Y006567D01*
X017862Y006620D01*
X017862Y006674D01*
X017858Y006727D01*
X017851Y006780D01*
X017536Y006780D02*
X017542Y006735D01*
X017545Y006690D01*
X017544Y006645D01*
X017540Y006600D01*
X017532Y006556D01*
X017520Y006512D01*
X017506Y006470D01*
X017488Y006428D01*
X017467Y006388D01*
X017443Y006350D01*
X017417Y006314D01*
X017387Y006280D01*
X017355Y006248D01*
X017079Y006327D02*
X017110Y006351D01*
X017139Y006378D01*
X017164Y006408D01*
X017187Y006440D01*
X017205Y006474D01*
X017221Y006510D01*
X017233Y006548D01*
X017241Y006586D01*
X017244Y006625D01*
X017245Y006664D01*
X017241Y006703D01*
X017233Y006742D01*
X017221Y006779D01*
X018166Y006780D02*
X018164Y006704D01*
X018158Y006629D01*
X018148Y006554D01*
X018135Y006479D01*
X018119Y006405D01*
X018099Y006332D01*
X018075Y006260D01*
X018048Y006189D01*
X018018Y006120D01*
X017985Y006052D01*
X018233Y005004D02*
X017926Y004115D01*
X018879Y007724D02*
X018995Y007726D01*
X019111Y007724D01*
X018776Y008666D02*
X018457Y008689D01*
X017473Y008689D02*
X017483Y008619D01*
X017497Y008550D01*
X017514Y008482D01*
X017535Y008415D01*
X017559Y008350D01*
X017587Y008285D01*
X017618Y008222D01*
X017653Y008161D01*
X017690Y008102D01*
X017730Y008044D01*
X017774Y007989D01*
X017820Y007936D01*
X017869Y007886D01*
X017920Y007838D01*
X017974Y007793D01*
X018030Y007751D01*
X018088Y007712D01*
X018148Y007675D01*
X018210Y007642D01*
X018274Y007613D01*
X018339Y007586D01*
X017788Y009004D02*
X019111Y008984D01*
X019111Y009299D02*
X019418Y009299D01*
X020024Y009130D02*
X020032Y009673D01*
X020481Y009776D02*
X020481Y008658D01*
X020479Y008622D01*
X020473Y008586D01*
X020464Y008551D01*
X020450Y008518D01*
X020434Y008486D01*
X020413Y008455D01*
X020390Y008428D01*
X020364Y008403D01*
X020335Y008381D01*
X020304Y008362D01*
X020272Y008346D01*
X020238Y008334D01*
X020202Y008326D01*
X020166Y008322D01*
X020130Y008321D01*
X020094Y008325D01*
X020059Y008332D01*
X020024Y008343D01*
X019166Y006996D02*
X019176Y006938D01*
X019189Y006879D01*
X019207Y006822D01*
X019228Y006766D01*
X019252Y006712D01*
X019280Y006659D01*
X019311Y006608D01*
X019345Y006559D01*
X019382Y006512D01*
X019423Y006468D01*
X019466Y006427D01*
X019511Y006388D01*
X019559Y006352D01*
X019609Y006320D01*
X019661Y006291D01*
X019715Y006265D01*
X019770Y006242D01*
X019827Y006224D01*
X019885Y006208D01*
X019943Y006197D01*
X020003Y006189D01*
X020062Y006186D01*
X018891Y006170D02*
X018862Y006326D01*
X018840Y006483D01*
X018825Y006640D01*
X018815Y006799D01*
X018812Y006957D01*
X016906Y006780D02*
X016913Y006743D01*
X016916Y006706D01*
X016915Y006669D01*
X016911Y006632D01*
X016903Y006596D01*
X016891Y006560D01*
X016877Y006526D01*
X016858Y006494D01*
X016837Y006463D01*
X016813Y006435D01*
X016786Y006410D01*
X016757Y006387D01*
X016725Y006367D01*
X016449Y006446D02*
X016477Y006463D01*
X016502Y006484D01*
X016524Y006507D01*
X016545Y006533D01*
X016562Y006560D01*
X016576Y006589D01*
X016587Y006620D01*
X016595Y006651D01*
X016599Y006683D01*
X016600Y006716D01*
X016597Y006748D01*
X016591Y006780D01*
X015646Y008670D02*
X015606Y008678D01*
X015566Y008682D01*
X015526Y008685D01*
X015486Y008685D01*
X015445Y008682D01*
X015446Y008681D02*
X014946Y008654D01*
X014863Y008154D01*
X015646Y008354D02*
X016001Y008351D01*
X016253Y008926D02*
X016213Y008945D01*
X016171Y008961D01*
X016129Y008974D01*
X016085Y008983D01*
X016041Y008988D01*
X015997Y008989D01*
X015997Y008988D02*
X015646Y008984D01*
X016001Y008350D02*
X016055Y008351D01*
X016108Y008355D01*
X016161Y008363D01*
X016214Y008374D01*
X014946Y009441D02*
X014953Y010028D01*
X014863Y008153D02*
X014938Y008127D01*
X015014Y008103D01*
X015092Y008083D01*
X015170Y008066D01*
X015248Y008053D01*
X015327Y008043D01*
X015407Y008037D01*
X015487Y008034D01*
X015567Y008035D01*
X015646Y008039D01*
X013969Y007784D02*
X013906Y007795D01*
X013844Y007809D01*
X013783Y007827D01*
X013724Y007849D01*
X013665Y007874D01*
X013608Y007902D01*
X013553Y007933D01*
X013499Y007968D01*
X013448Y008005D01*
X013399Y008045D01*
X013352Y008088D01*
X013308Y008134D01*
X013266Y008182D01*
X013227Y008232D01*
X013192Y008285D01*
X013159Y008339D01*
X013129Y008395D01*
X013103Y008453D01*
X014166Y005068D02*
X014322Y005102D01*
X014476Y005144D01*
X014629Y005193D01*
X014778Y005249D01*
X014925Y005312D01*
X015069Y005381D01*
X015210Y005457D01*
X015347Y005540D01*
X003891Y005185D02*
X003892Y004828D01*
X003905Y004471D01*
X003930Y004115D01*
X003890Y005186D02*
X003893Y005236D01*
X003899Y005287D01*
X003908Y005337D01*
X003922Y005386D01*
X003938Y005434D01*
X003958Y005481D01*
X003982Y005527D01*
X004008Y005570D01*
X004037Y005612D01*
X004070Y005651D01*
X004105Y005688D01*
X004142Y005723D01*
X004182Y005755D01*
X004224Y005783D01*
X004268Y005809D01*
X004314Y005832D01*
X004361Y005851D01*
X004409Y005867D01*
X004459Y005880D01*
X004509Y005889D01*
X004559Y005894D01*
X006929Y004015D02*
X007591Y004555D01*
X007929Y004115D02*
X008930Y004634D01*
X009442Y004437D02*
X008929Y004015D01*
X016055Y009831D02*
X015796Y010131D01*
X015525Y010422D01*
X015244Y010703D01*
X014953Y010972D01*
X014718Y011209D02*
X014689Y011185D01*
X014664Y011159D01*
X014641Y011130D01*
X014621Y011099D01*
X014604Y011066D01*
X014591Y011032D01*
X014581Y010997D01*
X014575Y010960D01*
X014572Y010924D01*
X014573Y010887D01*
X014578Y010851D01*
X014586Y010815D01*
X014598Y010780D01*
X014613Y010747D01*
X014632Y010715D01*
X014654Y010685D01*
X014678Y010658D01*
X014442Y010421D02*
X013969Y010382D01*
X013969Y010697D01*
X014087Y009949D02*
X014132Y009939D01*
X014178Y009933D01*
X014224Y009931D01*
X014270Y009933D01*
X014316Y009938D01*
X014361Y009947D01*
X014406Y009960D01*
X014449Y009976D01*
X014490Y009996D01*
X014530Y010019D01*
X014568Y010046D01*
X014604Y010075D01*
X014637Y010108D01*
X014667Y010143D01*
X014694Y010180D01*
X014718Y010219D01*
X014739Y010260D01*
X014756Y010303D01*
X014757Y010303D02*
X014767Y010337D01*
X014774Y010371D01*
X014777Y010405D01*
X014776Y010440D01*
X014772Y010475D01*
X014765Y010509D01*
X014754Y010542D01*
X014739Y010574D01*
X014722Y010604D01*
X014702Y010632D01*
X014678Y010658D01*
X016607Y011997D02*
X016577Y012110D01*
X016543Y012222D01*
X016503Y012333D01*
X016459Y012441D01*
X016410Y012548D01*
X019181Y012772D02*
X019184Y012851D01*
X019183Y012930D01*
X019178Y013009D01*
X019169Y013088D01*
X019156Y013166D01*
X019139Y013244D01*
X019119Y013321D01*
X019095Y013396D01*
X019067Y013470D01*
X019035Y013543D01*
X019000Y013614D01*
X019520Y013925D02*
X019552Y013872D01*
X019581Y013817D01*
X019606Y013760D01*
X019627Y013702D01*
X019645Y013642D01*
X019659Y013582D01*
X019670Y013521D01*
X019676Y013459D01*
X019679Y013397D01*
X019678Y013335D01*
X019001Y013614D02*
X018970Y013678D01*
X018942Y013743D01*
X018918Y013809D01*
X018898Y013876D01*
X018881Y013945D01*
X018867Y014014D01*
X018858Y014084D01*
X018852Y014154D01*
X018850Y014225D01*
X018852Y014295D01*
X019127Y014358D02*
X019166Y016563D01*
X019402Y016406D02*
X019402Y014398D01*
X019126Y014358D02*
X019124Y014301D01*
X019125Y014244D01*
X019129Y014187D01*
X019136Y014130D01*
X019147Y014074D01*
X019160Y014019D01*
X019177Y013964D01*
X019196Y013910D01*
X019219Y013858D01*
X019245Y013807D01*
X019521Y013926D02*
X019495Y013968D01*
X019473Y014012D01*
X019453Y014058D01*
X019436Y014105D01*
X019423Y014152D01*
X019412Y014201D01*
X019405Y014250D01*
X019401Y014299D01*
X019400Y014349D01*
X019402Y014398D01*
X020083Y015288D02*
X020123Y015283D01*
X020162Y015275D01*
X020201Y015264D01*
X020238Y015249D01*
X020274Y015231D01*
X020308Y015209D01*
X020341Y015185D01*
X020371Y015158D01*
X020398Y015128D01*
X020423Y015097D01*
X020444Y015063D01*
X020463Y015027D01*
X020478Y014989D01*
X020490Y014951D01*
X020499Y014912D01*
X020504Y014872D01*
X020505Y014831D01*
X016134Y012312D02*
X016214Y012090D01*
X016304Y011872D01*
X016404Y011659D01*
X016514Y011451D01*
X016635Y011248D01*
X016764Y011052D01*
X016765Y011052D02*
X016794Y011007D01*
X016820Y010961D01*
X016843Y010913D01*
X016863Y010864D01*
X016880Y010814D01*
X016893Y010762D01*
X016904Y010710D01*
X016911Y010658D01*
X016914Y010605D01*
X016915Y010551D01*
X017000Y011682D02*
X017100Y011675D01*
X017200Y011663D01*
X017299Y011646D01*
X018693Y010422D02*
X018752Y010473D01*
X018808Y010527D01*
X018862Y010583D01*
X018913Y010642D01*
X018961Y010703D01*
X019006Y010766D01*
X019049Y010831D01*
X019088Y010898D01*
X019124Y010967D01*
X019157Y011037D01*
X019187Y011109D01*
X019213Y011182D01*
X019236Y011257D01*
X019255Y011332D01*
X019271Y011408D01*
X019284Y011485D01*
X018969Y011485D02*
X018997Y011517D01*
X019022Y011551D01*
X019045Y011587D01*
X019064Y011625D01*
X019080Y011664D01*
X019092Y011704D01*
X019101Y011746D01*
X019107Y011788D01*
X018930Y012075D02*
X018929Y012035D01*
X018925Y011995D01*
X018916Y011955D01*
X018904Y011916D01*
X018888Y011879D01*
X018869Y011844D01*
X018846Y011810D01*
X018821Y011779D01*
X018792Y011750D01*
X018761Y011724D01*
X018727Y011702D01*
X018691Y011683D01*
X018654Y011667D01*
X018616Y011655D01*
X018576Y011646D01*
X018536Y011642D01*
X018079Y011642D02*
X017867Y010540D01*
X017851Y010244D01*
X018166Y010244D02*
X018186Y010528D01*
X018481Y010244D02*
X018694Y010421D01*
X018186Y010528D02*
X018191Y010568D01*
X018199Y010609D01*
X018210Y010648D01*
X018224Y010686D01*
X018241Y010724D01*
X018262Y010759D01*
X018285Y010793D01*
X018311Y010825D01*
X018340Y010854D01*
X017788Y009004D02*
X017679Y009008D01*
X017569Y009018D01*
X017460Y009032D01*
X017352Y009052D01*
X017245Y009077D01*
X017139Y009107D01*
X017035Y009142D01*
X016932Y009183D01*
X016832Y009228D01*
X016734Y009277D01*
X016638Y009332D01*
X016545Y009391D01*
X016455Y009454D01*
X016368Y009521D01*
X016285Y009593D01*
X016205Y009669D01*
X016129Y009748D01*
X016056Y009831D01*
X014048Y009595D02*
X014040Y009004D01*
X013615Y009477D02*
X013615Y008414D01*
X013615Y008413D02*
X013611Y008390D01*
X013611Y008366D01*
X013615Y008342D01*
X013622Y008319D01*
X013633Y008297D01*
X013646Y008277D01*
X013663Y008260D01*
X013681Y008245D01*
X013702Y008233D01*
X013725Y008224D01*
X013748Y008219D01*
X013772Y008217D01*
X014040Y008217D01*
X010583Y008059D02*
X010581Y007934D01*
X010585Y007808D01*
X010593Y007683D01*
X010606Y007559D01*
X010583Y008059D02*
X010599Y008563D01*
X015663Y012390D02*
X015515Y012624D01*
X015358Y012851D01*
X015192Y013072D01*
X015016Y013286D01*
X014832Y013491D01*
X014639Y013689D01*
X013890Y013492D02*
X011331Y013492D01*
X011304Y013489D01*
X011277Y013490D01*
X011251Y013494D01*
X011225Y013502D01*
X011200Y013513D01*
X011178Y013527D01*
X011157Y013544D01*
X011139Y013564D01*
X011123Y013586D01*
X011111Y013610D01*
X011102Y013636D01*
X011097Y013662D01*
X011095Y013689D01*
X010820Y014634D02*
X010818Y014654D01*
X010812Y014674D01*
X010803Y014692D01*
X010791Y014709D01*
X010777Y014723D01*
X010760Y014735D01*
X010742Y014744D01*
X010722Y014750D01*
X010702Y014752D01*
X010701Y014752D02*
X010351Y014760D01*
X009957Y014933D02*
X009959Y014969D01*
X009964Y015006D01*
X009973Y015041D01*
X009985Y015075D01*
X010000Y015108D01*
X010018Y015140D01*
X010040Y015170D01*
X010064Y015197D01*
X010090Y015222D01*
X010119Y015244D01*
X010150Y015264D01*
X009914Y015500D02*
X009884Y015460D01*
X009856Y015417D01*
X009831Y015373D01*
X009810Y015327D01*
X009792Y015280D01*
X009777Y015231D01*
X009765Y015182D01*
X009757Y015132D01*
X009753Y015081D01*
X009752Y015031D01*
X009755Y014980D01*
X009761Y014930D01*
X009560Y014162D02*
X009291Y014153D01*
X008552Y013973D01*
X009009Y014358D02*
X009037Y014364D01*
X009065Y014367D01*
X009094Y014366D01*
X009122Y014361D01*
X009150Y014352D01*
X009176Y014340D01*
X009200Y014325D01*
X009222Y014306D01*
X009242Y014285D01*
X009258Y014262D01*
X009272Y014236D01*
X009282Y014210D01*
X009288Y014182D01*
X009291Y014153D01*
X009560Y014162D02*
X009859Y013980D01*
X009760Y013201D02*
X009757Y013028D01*
X009914Y012737D02*
X009949Y012752D01*
X009982Y012771D01*
X010013Y012793D01*
X010042Y012819D01*
X010068Y012847D01*
X010091Y012877D01*
X010111Y012910D01*
X010127Y012944D01*
X010140Y012981D01*
X010149Y013018D01*
X010154Y013056D01*
X009737Y012965D02*
X009323Y012705D01*
X008969Y012390D02*
X008947Y012395D01*
X008926Y012403D01*
X008907Y012414D01*
X008890Y012429D01*
X008875Y012446D01*
X008864Y012465D01*
X008856Y012486D01*
X008851Y012508D01*
X008969Y012390D02*
X009953Y012390D01*
X009979Y012392D01*
X010005Y012397D01*
X010029Y012405D01*
X010053Y012417D01*
X010074Y012432D01*
X010094Y012449D01*
X010111Y012469D01*
X010347Y012548D02*
X010346Y012495D01*
X010342Y012443D01*
X010334Y012391D01*
X010323Y012340D01*
X010308Y012290D01*
X010290Y012241D01*
X010268Y012193D01*
X009639Y011799D02*
X009636Y011776D01*
X009631Y011754D01*
X009622Y011732D01*
X009611Y011712D01*
X009597Y011693D01*
X009581Y011677D01*
X009562Y011662D01*
X009542Y011651D01*
X009521Y011642D01*
X009520Y011642D02*
X009166Y011524D01*
X009166Y011012D01*
X007828Y010579D02*
X007836Y010447D01*
X007851Y010315D01*
X007872Y010184D01*
X007900Y010054D01*
X007933Y009926D01*
X007972Y009799D01*
X008018Y009675D01*
X008069Y009552D01*
X008125Y009432D01*
X008188Y009315D01*
X008255Y009201D01*
X008328Y009090D01*
X010599Y009311D02*
X012363Y009032D01*
X016276Y010244D02*
X016226Y010434D01*
X016169Y010621D01*
X016103Y010806D01*
X016029Y010988D01*
X015947Y011166D01*
X015857Y011340D01*
X015760Y011511D01*
X015655Y011677D01*
X015544Y011838D01*
X014402Y011405D02*
X014351Y011443D01*
X014302Y011483D01*
X014256Y011526D01*
X014212Y011572D01*
X014170Y011620D01*
X014132Y011671D01*
X014097Y011723D01*
X014064Y011778D01*
X014035Y011834D01*
X014009Y011892D01*
X013987Y011952D01*
X013968Y012012D01*
X013953Y012074D01*
X013941Y012136D01*
X013933Y012199D01*
X013928Y012263D01*
X013927Y012326D01*
X013930Y012390D01*
X014560Y013257D02*
X014513Y013295D01*
X014464Y013331D01*
X014413Y013363D01*
X014360Y013392D01*
X014305Y013418D01*
X014248Y013439D01*
X014190Y013458D01*
X014132Y013473D01*
X014072Y013483D01*
X014012Y013490D01*
X013951Y013494D01*
X013891Y013493D01*
X015622Y014791D02*
X015625Y014840D01*
X015624Y014888D01*
X015619Y014936D01*
X015611Y014983D01*
X015599Y015030D01*
X015584Y015076D01*
X015566Y015121D01*
X015544Y015164D01*
X015519Y015205D01*
X015491Y015244D01*
X015461Y015282D01*
X015427Y015316D01*
X015391Y015349D01*
X015353Y015378D01*
X015313Y015405D01*
X015271Y015428D01*
X015227Y015449D01*
X015182Y015466D01*
X015136Y015480D01*
X015089Y015490D01*
X015041Y015497D01*
X014993Y015500D01*
X013970Y007784D02*
X014303Y007742D01*
X014639Y007715D01*
X014975Y007704D01*
X015311Y007707D01*
X015647Y007725D01*
X013615Y009477D02*
X013812Y009831D01*
X013828Y009856D01*
X013846Y009878D01*
X013867Y009899D01*
X013891Y009916D01*
X013916Y009931D01*
X013943Y009943D01*
X013971Y009951D01*
X014000Y009956D01*
X014029Y009957D01*
X014059Y009955D01*
X014088Y009949D01*
X013497Y009949D02*
X013615Y009477D01*
X015583Y006287D02*
X015444Y006184D01*
X015301Y006088D01*
X015153Y005999D01*
X015002Y005916D01*
X014847Y005840D01*
X014688Y005772D01*
X014527Y005711D01*
X014362Y005657D01*
X014863Y008153D02*
X014747Y008178D01*
X014630Y008198D01*
X014513Y008212D01*
X014395Y008221D01*
X014277Y008225D01*
X014158Y008223D01*
X014040Y008216D01*
X015190Y005737D02*
X015013Y005645D01*
X014834Y005562D01*
X014651Y005486D01*
X014464Y005419D01*
X014275Y005359D01*
X014084Y005307D01*
X013890Y005264D01*
X012395Y010736D02*
X012097Y010718D01*
X011800Y010686D01*
X011505Y010641D01*
X011213Y010582D01*
X010923Y010509D01*
X010637Y010423D01*
X010356Y010324D01*
X010079Y010212D01*
X009808Y010087D01*
X009543Y009950D01*
X009285Y009801D01*
X009034Y009640D01*
X008790Y009467D01*
X008555Y009284D01*
X008329Y009089D01*
X013969Y010697D02*
X013966Y010845D01*
X013956Y010992D01*
X013939Y011139D01*
X013915Y011285D01*
X013885Y011429D01*
X013849Y011573D01*
X013806Y011714D01*
X013756Y011853D01*
X013701Y011990D01*
X013639Y012124D01*
X013571Y012256D01*
X013497Y012384D01*
X013418Y012508D01*
X012237Y012272D02*
X011745Y012264D01*
X010151Y015263D02*
X010309Y015348D01*
X010471Y015424D01*
X010636Y015493D01*
X010805Y015553D01*
X010976Y015606D01*
X011150Y015649D01*
X011325Y015685D01*
X011502Y015712D01*
X011680Y015730D01*
X011859Y015739D01*
X012038Y015740D01*
X012217Y015732D01*
X012396Y015716D01*
X012573Y015691D01*
X012749Y015657D01*
X014363Y005658D02*
X013891Y005527D01*
X013413Y005420D01*
X012930Y005335D01*
X012445Y005273D01*
X011956Y005234D01*
X011467Y005217D01*
X010977Y005224D01*
X010607Y006811D02*
X012363Y007110D01*
X013103Y008453D02*
X013078Y008509D01*
X013048Y008563D01*
X013016Y008615D01*
X012980Y008664D01*
X012941Y008712D01*
X012899Y008757D01*
X012855Y008799D01*
X012808Y008838D01*
X012758Y008875D01*
X012707Y008908D01*
X012653Y008937D01*
X012598Y008964D01*
X012541Y008986D01*
X012482Y009005D01*
X012423Y009021D01*
X012363Y009032D01*
X013182Y010382D02*
X013143Y010427D01*
X013101Y010469D01*
X013056Y010509D01*
X013010Y010546D01*
X012961Y010580D01*
X012910Y010611D01*
X012857Y010639D01*
X012802Y010663D01*
X012747Y010684D01*
X012690Y010702D01*
X012632Y010716D01*
X012573Y010726D01*
X012514Y010733D01*
X012454Y010737D01*
X012394Y010736D01*
X010111Y012468D02*
X010185Y012589D01*
X010264Y012707D01*
X010349Y012821D01*
X009756Y013027D02*
X009755Y013011D01*
X009751Y012994D01*
X009745Y012979D01*
X009736Y012964D01*
X008811Y013217D02*
X008809Y013239D01*
X008805Y013261D01*
X008797Y013282D01*
X008786Y013302D01*
X008773Y013320D01*
X008757Y013336D01*
X008739Y013349D01*
X008719Y013360D01*
X008698Y013368D01*
X008676Y013372D01*
X008654Y013374D01*
X008300Y013374D01*
X008282Y013375D01*
X008263Y013372D01*
X008246Y013366D01*
X008229Y013358D01*
X008215Y013346D01*
X008202Y013333D01*
X008192Y013317D01*
X008184Y013300D01*
X008180Y013282D01*
X008178Y013264D01*
X008178Y013028D01*
X008552Y013028D02*
X008552Y012784D01*
X007001Y014674D02*
X006929Y014667D01*
X006857Y014656D01*
X006787Y014642D01*
X006717Y014623D01*
X006648Y014602D01*
X006580Y014577D01*
X006514Y014548D01*
X006449Y014516D01*
X006961Y014240D02*
X006969Y013677D01*
X019402Y013178D02*
X019388Y012612D01*
X019349Y012047D01*
X019284Y011485D01*
X019111Y008669D02*
X019028Y008663D01*
X018944Y008660D01*
X018860Y008661D01*
X018777Y008665D01*
X019678Y010067D02*
X019682Y010231D01*
X019694Y010394D01*
X019714Y010557D01*
X019742Y010719D01*
X019778Y010879D01*
X019822Y011037D01*
X019873Y011192D01*
X019932Y011345D01*
X019998Y011495D01*
X020072Y011642D01*
X019402Y013177D02*
X019400Y013243D01*
X019396Y013308D01*
X019388Y013373D01*
X019377Y013438D01*
X019362Y013502D01*
X019345Y013565D01*
X019324Y013628D01*
X019301Y013689D01*
X019274Y013749D01*
X019245Y013807D01*
X018536Y011642D02*
X018384Y011636D01*
X018232Y011636D01*
X018080Y011642D01*
X015820Y013689D02*
X015782Y013761D01*
X015748Y013835D01*
X015717Y013910D01*
X015690Y013987D01*
X015666Y014065D01*
X015646Y014144D01*
X015630Y014224D01*
X015618Y014304D01*
X015609Y014385D01*
X015604Y014466D01*
X015603Y014548D01*
X015606Y014629D01*
X015612Y014710D01*
X015623Y014791D01*
X014639Y013689D02*
X014583Y013732D01*
X014530Y013777D01*
X014480Y013825D01*
X014432Y013876D01*
X014387Y013929D01*
X014344Y013985D01*
X014305Y014043D01*
X014269Y014103D01*
X014237Y014164D01*
X014208Y014228D01*
X014182Y014293D01*
X014160Y014359D01*
X014141Y014426D01*
X014126Y014494D01*
X014115Y014563D01*
X014107Y014632D01*
X014103Y014702D01*
X008552Y012783D02*
X008554Y012639D01*
X008562Y012494D01*
X008576Y012350D01*
X005875Y012240D02*
X005347Y012232D01*
X005859Y012980D02*
X005875Y013508D01*
X020466Y010382D02*
X020482Y009776D01*
X018929Y012075D02*
X018925Y012351D01*
X018929Y012627D01*
X019402Y016406D02*
X019404Y016466D01*
X019410Y016525D01*
X019420Y016585D01*
X019433Y016643D01*
X019451Y016700D01*
X019472Y016756D01*
X019497Y016811D01*
X019525Y016863D01*
X019557Y016914D01*
X019592Y016963D01*
X019630Y017009D01*
X019671Y017053D01*
X019715Y017093D01*
X019761Y017131D01*
X019810Y017166D01*
X019861Y017197D01*
X019914Y017226D01*
X019968Y017250D01*
X020025Y017271D01*
X020082Y017288D01*
X019560Y018690D02*
X019583Y018748D01*
X019609Y018804D01*
X019639Y018859D01*
X019671Y018913D01*
X019707Y018964D01*
X019745Y019014D01*
X019786Y019061D01*
X019830Y019105D01*
X019876Y019147D01*
X019925Y019187D01*
X019975Y019223D01*
X020028Y019257D01*
X020082Y019288D01*
X019473Y020673D02*
X019489Y020727D01*
X019509Y020780D01*
X019532Y020832D01*
X019559Y020882D01*
X019588Y020930D01*
X019621Y020976D01*
X019657Y021020D01*
X019695Y021062D01*
X019736Y021101D01*
X019780Y021137D01*
X019826Y021170D01*
X019874Y021200D01*
X019924Y021227D01*
X019975Y021250D01*
X020028Y021270D01*
X020082Y021287D01*
X017300Y012433D02*
X017121Y012438D01*
X016942Y012449D01*
X016764Y012468D01*
X015544Y011838D02*
X015473Y011931D01*
X015398Y012021D01*
X015318Y012107D01*
X015235Y012189D01*
X015148Y012267D01*
X015057Y012341D01*
X014963Y012410D01*
X014866Y012475D01*
X014766Y012536D01*
X014663Y012591D01*
X014557Y012642D01*
X014450Y012688D01*
X014340Y012728D01*
X014228Y012763D01*
X014115Y012793D01*
X014001Y012818D01*
X013886Y012837D01*
X013770Y012851D01*
X013653Y012859D01*
X013536Y012862D01*
X015386Y013611D02*
X015495Y013483D01*
X015597Y013350D01*
X015693Y013213D01*
X015784Y013071D01*
X015867Y012926D01*
X015944Y012777D01*
X016015Y012625D01*
X016078Y012470D01*
X016134Y012312D01*
X013182Y010382D02*
X013223Y010355D01*
X013262Y010324D01*
X013299Y010291D01*
X013334Y010255D01*
X013366Y010216D01*
X013396Y010176D01*
X013422Y010134D01*
X013445Y010090D01*
X013466Y010044D01*
X013483Y009997D01*
X013497Y009949D01*
X010229Y004712D02*
X010164Y004711D01*
X010098Y004707D01*
X010033Y004699D01*
X009969Y004688D01*
X009905Y004673D01*
X009842Y004655D01*
X009780Y004633D01*
X009720Y004608D01*
X009661Y004580D01*
X009603Y004548D01*
X009547Y004514D01*
X009494Y004477D01*
X009442Y004436D01*
X009363Y005225D02*
X009225Y005216D01*
X009089Y005202D01*
X008953Y005181D01*
X008818Y005153D01*
X008684Y005120D01*
X008552Y005080D01*
X008423Y005035D01*
X008295Y004983D01*
X008170Y004926D01*
X008048Y004862D01*
X007928Y004794D01*
X007812Y004720D01*
X007700Y004640D01*
X007591Y004556D01*
X008930Y004634D02*
X009063Y004699D01*
X009199Y004758D01*
X009338Y004810D01*
X009479Y004856D01*
X009622Y004895D01*
X009767Y004928D01*
X009913Y004954D01*
X010060Y004973D01*
X010208Y004985D01*
X010356Y004990D01*
X010504Y004988D01*
X010977Y005225D02*
X010170Y005240D01*
X009363Y005225D01*
X012363Y007110D02*
X013179Y007233D01*
X013999Y007324D01*
X014822Y007382D01*
X015646Y007409D01*
X016277Y006780D02*
X015925Y006541D01*
X015584Y006288D01*
X019166Y016563D02*
X019179Y016873D01*
X019206Y017182D01*
X019248Y017490D01*
X019305Y017795D01*
X019376Y018097D01*
X019461Y018395D01*
X019560Y018689D01*
X018973Y017232D02*
X019011Y017928D01*
X019080Y018622D01*
X019180Y019311D01*
X019311Y019996D01*
X019473Y020673D01*
X014993Y015501D02*
X013869Y015556D01*
X012749Y015658D01*
X013890Y005264D02*
X013220Y005145D01*
X012545Y005059D01*
X011866Y005003D01*
X011185Y004980D01*
X010505Y004988D01*
X019107Y011788D02*
X019182Y012772D01*
X020505Y013413D02*
X020505Y014831D01*
X014166Y005067D02*
X013386Y004929D01*
X012601Y004825D01*
X011812Y004754D01*
X011021Y004717D01*
X010229Y004712D01*
X010820Y013532D02*
X010820Y014634D01*
X018339Y010855D02*
X018969Y011485D01*
X016725Y006367D02*
X016031Y005962D01*
X015347Y005540D01*
X019441Y010619D02*
X019585Y011975D01*
X019677Y013335D01*
X018575Y012430D02*
X018079Y012430D01*
X010150Y020224D02*
X005977Y019948D01*
X014718Y011209D02*
X015229Y011602D01*
X016450Y006445D02*
X015190Y005737D01*
X018851Y014296D02*
X018973Y017233D01*
D30*
X005465Y009201D03*
D31*
X005494Y009917D01*
X005512Y011151D02*
X004796Y011169D01*
X004077Y008507D02*
X005494Y008263D01*
X005750Y007116D01*
X007010Y007116D02*
X007827Y007114D01*
D32*
X009638Y011799D03*
X009323Y012705D03*
X009914Y012736D03*
X010780Y012862D03*
X013418Y012508D03*
X013930Y012390D03*
X013930Y013177D03*
X014560Y013256D03*
X015229Y011603D03*
X014953Y010973D03*
X014402Y011406D03*
X014442Y010421D03*
X016764Y012469D03*
X016725Y013886D03*
X018575Y012429D03*
X017119Y011051D03*
X017316Y009437D03*
X017473Y008689D03*
X018339Y007587D03*
X020379Y011429D03*
X009914Y015500D03*
X007800Y014406D03*
D33*
X007434Y016878D02*
X005268Y016878D01*
X010150Y020225D02*
X012946Y020225D01*
M02*
