%
M48
M72
T01C0.0197
T02C0.0236
T03C0.0276
T04C0.0315
T05C0.0400
T06C0.0433
T07C0.0512
T08C0.1300
T09C0.1575
%
T01
X10583Y8059
X14048Y9595
X14953Y10028
X16253Y8925
X16213Y8374
X18457Y8689
X20032Y9673
X12237Y12272
X10190Y13729
X10150Y14162
X9560Y14162
X9560Y13729
X6961Y14240
X5859Y12980
X5347Y12232
X4796Y11169
X7867Y11524
T02
X9323Y12705
X9914Y12736
X10780Y12862
X9638Y11799
X7800Y14406
X9914Y15500
X13418Y12508
X13930Y12390
X13930Y13177
X14560Y13256
X15229Y11603
X14953Y10973
X14402Y11406
X14442Y10421
X16764Y12469
X16725Y13886
X18575Y12429
X17119Y11051
X17316Y9437
X17473Y8689
X18339Y7587
X20379Y11429
T03
X7827Y7114
T04
X5465Y9201
X12363Y9032
X12363Y7110
T05
X3929Y4115
X4929Y4015
X5929Y4115
X6929Y4015
X7929Y4115
X8929Y4015
X9929Y4115
X10929Y4015
X11926Y4115
X12926Y4015
X13926Y4115
X14926Y4015
X15926Y4115
X16926Y4015
X17926Y4115
X18926Y4015
X19962Y5185
X20966Y5185
X21066Y6185
X20966Y7185
X20062Y6185
X19962Y7185
X19982Y14288
X20082Y15288
X19982Y16288
X20082Y17288
X19982Y18288
X20082Y19288
X19982Y20288
X20082Y21288
X18103Y14702
X17103Y14802
X16103Y14702
X15103Y14802
X14103Y14702
X13103Y14802
X4077Y9647
X4077Y8507
T06
X7434Y16878
X15426Y16878
T07
X3103Y9595
X3103Y8532
T08
X4087Y21091
X17631Y20973
T09
X17355Y16878
X12946Y20225
X10150Y20225
X5268Y16878
M30
