G75*
G70*
%OFA0B0*%
%FSLAX24Y24*%
%IPPOS*%
%LPD*%
%AMOC8*
5,1,8,0,0,1.08239X$1,22.5*
%
%ADD10C,0.0000*%
%ADD11C,0.0552*%
%ADD12C,0.0700*%
%ADD13C,0.1040*%
%ADD14C,0.0555*%
%ADD15C,0.0780*%
%ADD16C,0.1540*%
%ADD17C,0.1340*%
D10*
X002631Y002862D02*
X002631Y022429D01*
X020662Y022429D01*
X020662Y010421D01*
X021686Y009398D01*
X021686Y002862D01*
X002631Y002862D01*
X002847Y006917D02*
X002849Y006948D01*
X002855Y006979D01*
X002864Y007009D01*
X002877Y007038D01*
X002894Y007065D01*
X002914Y007089D01*
X002936Y007111D01*
X002962Y007130D01*
X002989Y007146D01*
X003018Y007158D01*
X003048Y007167D01*
X003079Y007172D01*
X003111Y007173D01*
X003142Y007170D01*
X003173Y007163D01*
X003203Y007153D01*
X003231Y007139D01*
X003257Y007121D01*
X003281Y007101D01*
X003302Y007077D01*
X003321Y007052D01*
X003336Y007024D01*
X003347Y006995D01*
X003355Y006964D01*
X003359Y006933D01*
X003359Y006901D01*
X003355Y006870D01*
X003347Y006839D01*
X003336Y006810D01*
X003321Y006782D01*
X003302Y006757D01*
X003281Y006733D01*
X003257Y006713D01*
X003231Y006695D01*
X003203Y006681D01*
X003173Y006671D01*
X003142Y006664D01*
X003111Y006661D01*
X003079Y006662D01*
X003048Y006667D01*
X003018Y006676D01*
X002989Y006688D01*
X002962Y006704D01*
X002936Y006723D01*
X002914Y006745D01*
X002894Y006769D01*
X002877Y006796D01*
X002864Y006825D01*
X002855Y006855D01*
X002849Y006886D01*
X002847Y006917D01*
X002847Y007980D02*
X002849Y008011D01*
X002855Y008042D01*
X002864Y008072D01*
X002877Y008101D01*
X002894Y008128D01*
X002914Y008152D01*
X002936Y008174D01*
X002962Y008193D01*
X002989Y008209D01*
X003018Y008221D01*
X003048Y008230D01*
X003079Y008235D01*
X003111Y008236D01*
X003142Y008233D01*
X003173Y008226D01*
X003203Y008216D01*
X003231Y008202D01*
X003257Y008184D01*
X003281Y008164D01*
X003302Y008140D01*
X003321Y008115D01*
X003336Y008087D01*
X003347Y008058D01*
X003355Y008027D01*
X003359Y007996D01*
X003359Y007964D01*
X003355Y007933D01*
X003347Y007902D01*
X003336Y007873D01*
X003321Y007845D01*
X003302Y007820D01*
X003281Y007796D01*
X003257Y007776D01*
X003231Y007758D01*
X003203Y007744D01*
X003173Y007734D01*
X003142Y007727D01*
X003111Y007724D01*
X003079Y007725D01*
X003048Y007730D01*
X003018Y007739D01*
X002989Y007751D01*
X002962Y007767D01*
X002936Y007786D01*
X002914Y007808D01*
X002894Y007832D01*
X002877Y007859D01*
X002864Y007888D01*
X002855Y007918D01*
X002849Y007949D01*
X002847Y007980D01*
X003319Y021012D02*
X003321Y021062D01*
X003327Y021112D01*
X003337Y021162D01*
X003350Y021210D01*
X003367Y021258D01*
X003388Y021304D01*
X003412Y021348D01*
X003440Y021390D01*
X003471Y021430D01*
X003505Y021467D01*
X003542Y021502D01*
X003581Y021533D01*
X003622Y021562D01*
X003666Y021587D01*
X003712Y021609D01*
X003759Y021627D01*
X003807Y021641D01*
X003856Y021652D01*
X003906Y021659D01*
X003956Y021662D01*
X004007Y021661D01*
X004057Y021656D01*
X004107Y021647D01*
X004155Y021635D01*
X004203Y021618D01*
X004249Y021598D01*
X004294Y021575D01*
X004337Y021548D01*
X004377Y021518D01*
X004415Y021485D01*
X004450Y021449D01*
X004483Y021410D01*
X004512Y021369D01*
X004538Y021326D01*
X004561Y021281D01*
X004580Y021234D01*
X004595Y021186D01*
X004607Y021137D01*
X004615Y021087D01*
X004619Y021037D01*
X004619Y020987D01*
X004615Y020937D01*
X004607Y020887D01*
X004595Y020838D01*
X004580Y020790D01*
X004561Y020743D01*
X004538Y020698D01*
X004512Y020655D01*
X004483Y020614D01*
X004450Y020575D01*
X004415Y020539D01*
X004377Y020506D01*
X004337Y020476D01*
X004294Y020449D01*
X004249Y020426D01*
X004203Y020406D01*
X004155Y020389D01*
X004107Y020377D01*
X004057Y020368D01*
X004007Y020363D01*
X003956Y020362D01*
X003906Y020365D01*
X003856Y020372D01*
X003807Y020383D01*
X003759Y020397D01*
X003712Y020415D01*
X003666Y020437D01*
X003622Y020462D01*
X003581Y020491D01*
X003542Y020522D01*
X003505Y020557D01*
X003471Y020594D01*
X003440Y020634D01*
X003412Y020676D01*
X003388Y020720D01*
X003367Y020766D01*
X003350Y020814D01*
X003337Y020862D01*
X003327Y020912D01*
X003321Y020962D01*
X003319Y021012D01*
X016981Y020973D02*
X016983Y021023D01*
X016989Y021073D01*
X016999Y021123D01*
X017012Y021171D01*
X017029Y021219D01*
X017050Y021265D01*
X017074Y021309D01*
X017102Y021351D01*
X017133Y021391D01*
X017167Y021428D01*
X017204Y021463D01*
X017243Y021494D01*
X017284Y021523D01*
X017328Y021548D01*
X017374Y021570D01*
X017421Y021588D01*
X017469Y021602D01*
X017518Y021613D01*
X017568Y021620D01*
X017618Y021623D01*
X017669Y021622D01*
X017719Y021617D01*
X017769Y021608D01*
X017817Y021596D01*
X017865Y021579D01*
X017911Y021559D01*
X017956Y021536D01*
X017999Y021509D01*
X018039Y021479D01*
X018077Y021446D01*
X018112Y021410D01*
X018145Y021371D01*
X018174Y021330D01*
X018200Y021287D01*
X018223Y021242D01*
X018242Y021195D01*
X018257Y021147D01*
X018269Y021098D01*
X018277Y021048D01*
X018281Y020998D01*
X018281Y020948D01*
X018277Y020898D01*
X018269Y020848D01*
X018257Y020799D01*
X018242Y020751D01*
X018223Y020704D01*
X018200Y020659D01*
X018174Y020616D01*
X018145Y020575D01*
X018112Y020536D01*
X018077Y020500D01*
X018039Y020467D01*
X017999Y020437D01*
X017956Y020410D01*
X017911Y020387D01*
X017865Y020367D01*
X017817Y020350D01*
X017769Y020338D01*
X017719Y020329D01*
X017669Y020324D01*
X017618Y020323D01*
X017568Y020326D01*
X017518Y020333D01*
X017469Y020344D01*
X017421Y020358D01*
X017374Y020376D01*
X017328Y020398D01*
X017284Y020423D01*
X017243Y020452D01*
X017204Y020483D01*
X017167Y020518D01*
X017133Y020555D01*
X017102Y020595D01*
X017074Y020637D01*
X017050Y020681D01*
X017029Y020727D01*
X017012Y020775D01*
X016999Y020823D01*
X016989Y020873D01*
X016983Y020923D01*
X016981Y020973D01*
D11*
X003103Y007980D03*
X003103Y006917D03*
D12*
X012009Y006874D03*
X012009Y008795D03*
D13*
X014835Y018610D03*
X006843Y018610D03*
D14*
X004418Y016937D03*
X003276Y016941D03*
X003276Y013477D03*
X003418Y012547D03*
X004418Y013473D03*
X004560Y012547D03*
X004560Y009083D03*
X003418Y009083D03*
D15*
X004097Y008005D03*
X004097Y006865D03*
X003929Y004115D03*
X004929Y004015D03*
X005929Y004115D03*
X006929Y004015D03*
X007929Y004115D03*
X008929Y004015D03*
X009929Y004115D03*
X010929Y004015D03*
X011926Y004115D03*
X012926Y004015D03*
X013926Y004115D03*
X014926Y004015D03*
X015926Y004115D03*
X016926Y004015D03*
X017926Y004115D03*
X018926Y004015D03*
X019962Y005185D03*
X020966Y005185D03*
X021066Y006185D03*
X020966Y007185D03*
X020062Y006185D03*
X019962Y007185D03*
X019982Y014288D03*
X020082Y015288D03*
X019982Y016288D03*
X020082Y017288D03*
X019982Y018288D03*
X020082Y019288D03*
X019982Y020288D03*
X020082Y021288D03*
X018103Y014702D03*
X017103Y014802D03*
X016103Y014702D03*
X015103Y014802D03*
X014103Y014702D03*
X013103Y014802D03*
D16*
X015820Y018610D03*
X011410Y020736D03*
X010229Y020736D03*
X005859Y018610D03*
D17*
X003969Y021012D03*
X017631Y020973D03*
M02*
