G75*
G70*
%OFA0B0*%
%FSLAX24Y24*%
%IPPOS*%
%LPD*%
%AMOC8*
5,1,8,0,0,1.08239X$1,22.5*
%
%ADD10C,0.0000*%
D10*
X002631Y002862D02*
X002631Y022429D01*
X020662Y022429D01*
X020662Y010421D01*
X021686Y009398D01*
X021686Y002862D01*
X002631Y002862D01*
X002847Y008532D02*
X002849Y008563D01*
X002855Y008594D01*
X002864Y008624D01*
X002877Y008653D01*
X002894Y008680D01*
X002914Y008704D01*
X002936Y008726D01*
X002962Y008745D01*
X002989Y008761D01*
X003018Y008773D01*
X003048Y008782D01*
X003079Y008787D01*
X003111Y008788D01*
X003142Y008785D01*
X003173Y008778D01*
X003203Y008768D01*
X003231Y008754D01*
X003257Y008736D01*
X003281Y008716D01*
X003302Y008692D01*
X003321Y008667D01*
X003336Y008639D01*
X003347Y008610D01*
X003355Y008579D01*
X003359Y008548D01*
X003359Y008516D01*
X003355Y008485D01*
X003347Y008454D01*
X003336Y008425D01*
X003321Y008397D01*
X003302Y008372D01*
X003281Y008348D01*
X003257Y008328D01*
X003231Y008310D01*
X003203Y008296D01*
X003173Y008286D01*
X003142Y008279D01*
X003111Y008276D01*
X003079Y008277D01*
X003048Y008282D01*
X003018Y008291D01*
X002989Y008303D01*
X002962Y008319D01*
X002936Y008338D01*
X002914Y008360D01*
X002894Y008384D01*
X002877Y008411D01*
X002864Y008440D01*
X002855Y008470D01*
X002849Y008501D01*
X002847Y008532D01*
X002847Y009595D02*
X002849Y009626D01*
X002855Y009657D01*
X002864Y009687D01*
X002877Y009716D01*
X002894Y009743D01*
X002914Y009767D01*
X002936Y009789D01*
X002962Y009808D01*
X002989Y009824D01*
X003018Y009836D01*
X003048Y009845D01*
X003079Y009850D01*
X003111Y009851D01*
X003142Y009848D01*
X003173Y009841D01*
X003203Y009831D01*
X003231Y009817D01*
X003257Y009799D01*
X003281Y009779D01*
X003302Y009755D01*
X003321Y009730D01*
X003336Y009702D01*
X003347Y009673D01*
X003355Y009642D01*
X003359Y009611D01*
X003359Y009579D01*
X003355Y009548D01*
X003347Y009517D01*
X003336Y009488D01*
X003321Y009460D01*
X003302Y009435D01*
X003281Y009411D01*
X003257Y009391D01*
X003231Y009373D01*
X003203Y009359D01*
X003173Y009349D01*
X003142Y009342D01*
X003111Y009339D01*
X003079Y009340D01*
X003048Y009345D01*
X003018Y009354D01*
X002989Y009366D01*
X002962Y009382D01*
X002936Y009401D01*
X002914Y009423D01*
X002894Y009447D01*
X002877Y009474D01*
X002864Y009503D01*
X002855Y009533D01*
X002849Y009564D01*
X002847Y009595D01*
X003359Y011917D02*
X003361Y011967D01*
X003367Y012017D01*
X003377Y012067D01*
X003390Y012115D01*
X003407Y012163D01*
X003428Y012209D01*
X003452Y012253D01*
X003480Y012295D01*
X003511Y012335D01*
X003545Y012372D01*
X003582Y012407D01*
X003621Y012438D01*
X003662Y012467D01*
X003706Y012492D01*
X003752Y012514D01*
X003799Y012532D01*
X003847Y012546D01*
X003896Y012557D01*
X003946Y012564D01*
X003996Y012567D01*
X004047Y012566D01*
X004097Y012561D01*
X004147Y012552D01*
X004195Y012540D01*
X004243Y012523D01*
X004289Y012503D01*
X004334Y012480D01*
X004377Y012453D01*
X004417Y012423D01*
X004455Y012390D01*
X004490Y012354D01*
X004523Y012315D01*
X004552Y012274D01*
X004578Y012231D01*
X004601Y012186D01*
X004620Y012139D01*
X004635Y012091D01*
X004647Y012042D01*
X004655Y011992D01*
X004659Y011942D01*
X004659Y011892D01*
X004655Y011842D01*
X004647Y011792D01*
X004635Y011743D01*
X004620Y011695D01*
X004601Y011648D01*
X004578Y011603D01*
X004552Y011560D01*
X004523Y011519D01*
X004490Y011480D01*
X004455Y011444D01*
X004417Y011411D01*
X004377Y011381D01*
X004334Y011354D01*
X004289Y011331D01*
X004243Y011311D01*
X004195Y011294D01*
X004147Y011282D01*
X004097Y011273D01*
X004047Y011268D01*
X003996Y011267D01*
X003946Y011270D01*
X003896Y011277D01*
X003847Y011288D01*
X003799Y011302D01*
X003752Y011320D01*
X003706Y011342D01*
X003662Y011367D01*
X003621Y011396D01*
X003582Y011427D01*
X003545Y011462D01*
X003511Y011499D01*
X003480Y011539D01*
X003452Y011581D01*
X003428Y011625D01*
X003407Y011671D01*
X003390Y011719D01*
X003377Y011767D01*
X003367Y011817D01*
X003361Y011867D01*
X003359Y011917D01*
X016981Y020973D02*
X016983Y021023D01*
X016989Y021073D01*
X016999Y021123D01*
X017012Y021171D01*
X017029Y021219D01*
X017050Y021265D01*
X017074Y021309D01*
X017102Y021351D01*
X017133Y021391D01*
X017167Y021428D01*
X017204Y021463D01*
X017243Y021494D01*
X017284Y021523D01*
X017328Y021548D01*
X017374Y021570D01*
X017421Y021588D01*
X017469Y021602D01*
X017518Y021613D01*
X017568Y021620D01*
X017618Y021623D01*
X017669Y021622D01*
X017719Y021617D01*
X017769Y021608D01*
X017817Y021596D01*
X017865Y021579D01*
X017911Y021559D01*
X017956Y021536D01*
X017999Y021509D01*
X018039Y021479D01*
X018077Y021446D01*
X018112Y021410D01*
X018145Y021371D01*
X018174Y021330D01*
X018200Y021287D01*
X018223Y021242D01*
X018242Y021195D01*
X018257Y021147D01*
X018269Y021098D01*
X018277Y021048D01*
X018281Y020998D01*
X018281Y020948D01*
X018277Y020898D01*
X018269Y020848D01*
X018257Y020799D01*
X018242Y020751D01*
X018223Y020704D01*
X018200Y020659D01*
X018174Y020616D01*
X018145Y020575D01*
X018112Y020536D01*
X018077Y020500D01*
X018039Y020467D01*
X017999Y020437D01*
X017956Y020410D01*
X017911Y020387D01*
X017865Y020367D01*
X017817Y020350D01*
X017769Y020338D01*
X017719Y020329D01*
X017669Y020324D01*
X017618Y020323D01*
X017568Y020326D01*
X017518Y020333D01*
X017469Y020344D01*
X017421Y020358D01*
X017374Y020376D01*
X017328Y020398D01*
X017284Y020423D01*
X017243Y020452D01*
X017204Y020483D01*
X017167Y020518D01*
X017133Y020555D01*
X017102Y020595D01*
X017074Y020637D01*
X017050Y020681D01*
X017029Y020727D01*
X017012Y020775D01*
X016999Y020823D01*
X016989Y020873D01*
X016983Y020923D01*
X016981Y020973D01*
M02*
