%
M48
M72
T01C0.0197
T02C0.0236
T03C0.0276
T04C0.0315
T05C0.0400
T06C0.0433
T07C0.0512
T08C0.0866
T09C0.1300
%
T01
X10229Y7823
X13772Y9477
X15032Y9870
X16253Y8925
X16213Y8374
X18457Y8689
X20150Y9634
X16253Y15618
X13575Y15973
X10190Y15146
X9875Y14673
X9599Y14240
X10190Y14240
X9599Y15146
X10190Y12941
X6509Y13776
X6091Y12788
X5898Y10973
X6607Y14870
X6646Y15264
T02
X13221Y13099
X14560Y13256
X15229Y11603
X14402Y10343
X16764Y12469
X16725Y13886
X18575Y12429
X17119Y11051
X20379Y11429
X18339Y7587
T03
X8418Y6996
T04
X12009Y6874
X12009Y8795
X4560Y9083
X3418Y9083
X3418Y12547
X4560Y12547
X3512Y15874
X3512Y19339
T05
X3929Y4115
X4929Y4015
X5929Y4115
X6929Y4015
X7929Y4115
X8929Y4015
X9929Y4115
X10929Y4015
X11926Y4115
X12926Y4015
X13926Y4115
X14926Y4015
X15926Y4115
X16926Y4015
X17926Y4115
X18926Y4015
X19962Y5185
X20966Y5185
X21066Y6185
X20966Y7185
X20062Y6185
X19962Y7185
X19982Y14288
X20082Y15288
X19982Y16288
X20082Y17288
X19982Y18288
X20082Y19288
X19982Y20288
X20082Y21288
X18103Y14702
X17103Y14802
X16103Y14702
X15103Y14802
X14103Y14702
X13103Y14802
X4097Y8005
X4097Y6865
T06
X6843Y18610
X14835Y18610
T07
X3103Y7980
X3103Y6917
T08
X5859Y18610
X10229Y20736
X11410Y20736
X15820Y18610
T09
X17631Y20973
X3969Y21012
M30
