G75*
G70*
%OFA0B0*%
%FSLAX24Y24*%
%IPPOS*%
%LPD*%
%AMOC8*
5,1,8,0,0,1.08239X$1,22.5*
%
%ADD10C,0.0000*%
%ADD11C,0.0660*%
%ADD12C,0.1000*%
%ADD13C,0.0515*%
%ADD14C,0.0740*%
%ADD15C,0.1500*%
%ADD16C,0.0160*%
%ADD17C,0.0413*%
%ADD18C,0.0317*%
%ADD19C,0.0356*%
%ADD20C,0.0100*%
%ADD21C,0.3150*%
%ADD22C,0.0560*%
D10*
X002631Y002862D02*
X002631Y022429D01*
X020662Y022429D01*
X020662Y010421D01*
X021686Y009398D01*
X021686Y002862D01*
X002631Y002862D01*
X002847Y006917D02*
X002849Y006948D01*
X002855Y006979D01*
X002864Y007009D01*
X002877Y007038D01*
X002894Y007065D01*
X002914Y007089D01*
X002936Y007111D01*
X002962Y007130D01*
X002989Y007146D01*
X003018Y007158D01*
X003048Y007167D01*
X003079Y007172D01*
X003111Y007173D01*
X003142Y007170D01*
X003173Y007163D01*
X003203Y007153D01*
X003231Y007139D01*
X003257Y007121D01*
X003281Y007101D01*
X003302Y007077D01*
X003321Y007052D01*
X003336Y007024D01*
X003347Y006995D01*
X003355Y006964D01*
X003359Y006933D01*
X003359Y006901D01*
X003355Y006870D01*
X003347Y006839D01*
X003336Y006810D01*
X003321Y006782D01*
X003302Y006757D01*
X003281Y006733D01*
X003257Y006713D01*
X003231Y006695D01*
X003203Y006681D01*
X003173Y006671D01*
X003142Y006664D01*
X003111Y006661D01*
X003079Y006662D01*
X003048Y006667D01*
X003018Y006676D01*
X002989Y006688D01*
X002962Y006704D01*
X002936Y006723D01*
X002914Y006745D01*
X002894Y006769D01*
X002877Y006796D01*
X002864Y006825D01*
X002855Y006855D01*
X002849Y006886D01*
X002847Y006917D01*
X002847Y007980D02*
X002849Y008011D01*
X002855Y008042D01*
X002864Y008072D01*
X002877Y008101D01*
X002894Y008128D01*
X002914Y008152D01*
X002936Y008174D01*
X002962Y008193D01*
X002989Y008209D01*
X003018Y008221D01*
X003048Y008230D01*
X003079Y008235D01*
X003111Y008236D01*
X003142Y008233D01*
X003173Y008226D01*
X003203Y008216D01*
X003231Y008202D01*
X003257Y008184D01*
X003281Y008164D01*
X003302Y008140D01*
X003321Y008115D01*
X003336Y008087D01*
X003347Y008058D01*
X003355Y008027D01*
X003359Y007996D01*
X003359Y007964D01*
X003355Y007933D01*
X003347Y007902D01*
X003336Y007873D01*
X003321Y007845D01*
X003302Y007820D01*
X003281Y007796D01*
X003257Y007776D01*
X003231Y007758D01*
X003203Y007744D01*
X003173Y007734D01*
X003142Y007727D01*
X003111Y007724D01*
X003079Y007725D01*
X003048Y007730D01*
X003018Y007739D01*
X002989Y007751D01*
X002962Y007767D01*
X002936Y007786D01*
X002914Y007808D01*
X002894Y007832D01*
X002877Y007859D01*
X002864Y007888D01*
X002855Y007918D01*
X002849Y007949D01*
X002847Y007980D01*
X003319Y021012D02*
X003321Y021062D01*
X003327Y021112D01*
X003337Y021162D01*
X003350Y021210D01*
X003367Y021258D01*
X003388Y021304D01*
X003412Y021348D01*
X003440Y021390D01*
X003471Y021430D01*
X003505Y021467D01*
X003542Y021502D01*
X003581Y021533D01*
X003622Y021562D01*
X003666Y021587D01*
X003712Y021609D01*
X003759Y021627D01*
X003807Y021641D01*
X003856Y021652D01*
X003906Y021659D01*
X003956Y021662D01*
X004007Y021661D01*
X004057Y021656D01*
X004107Y021647D01*
X004155Y021635D01*
X004203Y021618D01*
X004249Y021598D01*
X004294Y021575D01*
X004337Y021548D01*
X004377Y021518D01*
X004415Y021485D01*
X004450Y021449D01*
X004483Y021410D01*
X004512Y021369D01*
X004538Y021326D01*
X004561Y021281D01*
X004580Y021234D01*
X004595Y021186D01*
X004607Y021137D01*
X004615Y021087D01*
X004619Y021037D01*
X004619Y020987D01*
X004615Y020937D01*
X004607Y020887D01*
X004595Y020838D01*
X004580Y020790D01*
X004561Y020743D01*
X004538Y020698D01*
X004512Y020655D01*
X004483Y020614D01*
X004450Y020575D01*
X004415Y020539D01*
X004377Y020506D01*
X004337Y020476D01*
X004294Y020449D01*
X004249Y020426D01*
X004203Y020406D01*
X004155Y020389D01*
X004107Y020377D01*
X004057Y020368D01*
X004007Y020363D01*
X003956Y020362D01*
X003906Y020365D01*
X003856Y020372D01*
X003807Y020383D01*
X003759Y020397D01*
X003712Y020415D01*
X003666Y020437D01*
X003622Y020462D01*
X003581Y020491D01*
X003542Y020522D01*
X003505Y020557D01*
X003471Y020594D01*
X003440Y020634D01*
X003412Y020676D01*
X003388Y020720D01*
X003367Y020766D01*
X003350Y020814D01*
X003337Y020862D01*
X003327Y020912D01*
X003321Y020962D01*
X003319Y021012D01*
X016981Y020973D02*
X016983Y021023D01*
X016989Y021073D01*
X016999Y021123D01*
X017012Y021171D01*
X017029Y021219D01*
X017050Y021265D01*
X017074Y021309D01*
X017102Y021351D01*
X017133Y021391D01*
X017167Y021428D01*
X017204Y021463D01*
X017243Y021494D01*
X017284Y021523D01*
X017328Y021548D01*
X017374Y021570D01*
X017421Y021588D01*
X017469Y021602D01*
X017518Y021613D01*
X017568Y021620D01*
X017618Y021623D01*
X017669Y021622D01*
X017719Y021617D01*
X017769Y021608D01*
X017817Y021596D01*
X017865Y021579D01*
X017911Y021559D01*
X017956Y021536D01*
X017999Y021509D01*
X018039Y021479D01*
X018077Y021446D01*
X018112Y021410D01*
X018145Y021371D01*
X018174Y021330D01*
X018200Y021287D01*
X018223Y021242D01*
X018242Y021195D01*
X018257Y021147D01*
X018269Y021098D01*
X018277Y021048D01*
X018281Y020998D01*
X018281Y020948D01*
X018277Y020898D01*
X018269Y020848D01*
X018257Y020799D01*
X018242Y020751D01*
X018223Y020704D01*
X018200Y020659D01*
X018174Y020616D01*
X018145Y020575D01*
X018112Y020536D01*
X018077Y020500D01*
X018039Y020467D01*
X017999Y020437D01*
X017956Y020410D01*
X017911Y020387D01*
X017865Y020367D01*
X017817Y020350D01*
X017769Y020338D01*
X017719Y020329D01*
X017669Y020324D01*
X017618Y020323D01*
X017568Y020326D01*
X017518Y020333D01*
X017469Y020344D01*
X017421Y020358D01*
X017374Y020376D01*
X017328Y020398D01*
X017284Y020423D01*
X017243Y020452D01*
X017204Y020483D01*
X017167Y020518D01*
X017133Y020555D01*
X017102Y020595D01*
X017074Y020637D01*
X017050Y020681D01*
X017029Y020727D01*
X017012Y020775D01*
X016999Y020823D01*
X016989Y020873D01*
X016983Y020923D01*
X016981Y020973D01*
D11*
X012009Y008795D03*
X012009Y006874D03*
D12*
X014835Y018610D03*
X006843Y018610D03*
D13*
X004418Y016937D03*
X003276Y016941D03*
X003276Y013477D03*
X003418Y012547D03*
X004418Y013473D03*
X004560Y012547D03*
X004560Y009083D03*
X003418Y009083D03*
D14*
X004097Y008005D03*
X004097Y006865D03*
X003929Y004115D03*
X004929Y004015D03*
X005929Y004115D03*
X006929Y004015D03*
X007929Y004115D03*
X008929Y004015D03*
X009929Y004115D03*
X010929Y004015D03*
X011926Y004115D03*
X012926Y004015D03*
X013926Y004115D03*
X014926Y004015D03*
X015926Y004115D03*
X016926Y004015D03*
X017926Y004115D03*
X018926Y004015D03*
X019962Y005185D03*
X020966Y005185D03*
X021066Y006185D03*
X020966Y007185D03*
X020062Y006185D03*
X019962Y007185D03*
X019982Y014288D03*
X020082Y015288D03*
X019982Y016288D03*
X020082Y017288D03*
X019982Y018288D03*
X020082Y019288D03*
X019982Y020288D03*
X020082Y021288D03*
X018103Y014702D03*
X017103Y014802D03*
X016103Y014702D03*
X015103Y014802D03*
X014103Y014702D03*
X013103Y014802D03*
D15*
X015820Y018610D03*
X011410Y020736D03*
X010229Y020736D03*
X005859Y018610D03*
D16*
X004650Y019826D02*
X002811Y019826D01*
X002811Y019668D02*
X004491Y019668D01*
X004487Y019663D02*
X004261Y019272D01*
X004144Y018836D01*
X004144Y018385D01*
X004261Y017948D01*
X004487Y017557D01*
X004806Y017238D01*
X005197Y017012D01*
X005633Y016896D01*
X007069Y016896D01*
X007505Y017012D01*
X007896Y017238D01*
X008215Y017557D01*
X008441Y017948D01*
X008558Y018385D01*
X008558Y018836D01*
X008441Y019272D01*
X008215Y019663D01*
X007896Y019983D01*
X007505Y020208D01*
X007069Y020325D01*
X005633Y020325D01*
X005197Y020208D01*
X004806Y019983D01*
X004487Y019663D01*
X004398Y019509D02*
X002811Y019509D01*
X002811Y019351D02*
X004306Y019351D01*
X004240Y019192D02*
X002811Y019192D01*
X002811Y019034D02*
X004197Y019034D01*
X004155Y018875D02*
X002811Y018875D01*
X002811Y018717D02*
X004144Y018717D01*
X004144Y018558D02*
X002811Y018558D01*
X002811Y018400D02*
X004144Y018400D01*
X004183Y018241D02*
X002811Y018241D01*
X002811Y018083D02*
X004225Y018083D01*
X004275Y017924D02*
X002811Y017924D01*
X002811Y017765D02*
X004367Y017765D01*
X004458Y017607D02*
X002811Y017607D01*
X002811Y017448D02*
X004596Y017448D01*
X004497Y017335D02*
X004643Y017274D01*
X004755Y017162D01*
X004815Y017016D01*
X004815Y016858D01*
X004755Y016712D01*
X004643Y016600D01*
X004497Y016540D01*
X004339Y016540D01*
X004193Y016600D01*
X004081Y016712D01*
X004020Y016858D01*
X004020Y017016D01*
X004081Y017162D01*
X004193Y017274D01*
X004339Y017335D01*
X004497Y017335D01*
X004605Y017290D02*
X004754Y017290D01*
X004768Y017131D02*
X004991Y017131D01*
X004815Y016973D02*
X005345Y016973D01*
X004797Y016814D02*
X006553Y016814D01*
X006673Y016844D02*
X006265Y016744D01*
X005912Y016516D01*
X005653Y016185D01*
X005517Y015788D01*
X005517Y015788D01*
X005518Y015577D01*
X005509Y015144D01*
X005485Y014782D01*
X005483Y014779D01*
X005479Y014703D01*
X005475Y014656D01*
X005460Y014504D01*
X005373Y014129D01*
X005221Y013776D01*
X005010Y013454D01*
X004897Y013323D01*
X004631Y013108D01*
X004428Y012967D01*
X003334Y012967D01*
X003180Y012903D01*
X003062Y012785D01*
X002998Y012631D01*
X002998Y012464D01*
X003062Y012309D01*
X003180Y012191D01*
X003334Y012127D01*
X004515Y012127D01*
X004553Y012119D01*
X004598Y012127D01*
X004643Y012127D01*
X004679Y012142D01*
X004717Y012149D01*
X004755Y012174D01*
X004798Y012191D01*
X004825Y012219D01*
X005144Y012424D01*
X005418Y012662D01*
X005438Y012671D01*
X005481Y012716D01*
X005528Y012757D01*
X005537Y012776D01*
X005678Y012926D01*
X005972Y013373D01*
X006182Y013864D01*
X006303Y014384D01*
X006303Y014384D01*
X006317Y014644D01*
X006359Y015107D01*
X006358Y015497D01*
X006358Y015580D01*
X006363Y015648D01*
X006407Y015776D01*
X006490Y015883D01*
X006604Y015956D01*
X006736Y015988D01*
X006804Y015988D01*
X006887Y015980D01*
X007084Y015961D01*
X007641Y016039D01*
X007641Y016039D01*
X008166Y016243D01*
X008629Y016563D01*
X009006Y016981D01*
X009104Y017161D01*
X009111Y017167D01*
X009145Y017235D01*
X009155Y017253D01*
X009222Y017371D01*
X009413Y017600D01*
X009651Y017779D01*
X009924Y017899D01*
X010217Y017953D01*
X010317Y017954D01*
X010376Y017954D01*
X010450Y017951D01*
X010460Y017954D01*
X013236Y017954D01*
X013237Y017948D01*
X013463Y017557D01*
X013782Y017238D01*
X014173Y017012D01*
X014609Y016896D01*
X016045Y016896D01*
X016481Y017012D01*
X016872Y017238D01*
X017192Y017557D01*
X017417Y017948D01*
X017534Y018385D01*
X017534Y018836D01*
X017417Y019272D01*
X017192Y019663D01*
X016872Y019983D01*
X016481Y020208D01*
X016045Y020325D01*
X014609Y020325D01*
X014173Y020208D01*
X013782Y019983D01*
X013463Y019663D01*
X013237Y019272D01*
X013120Y018836D01*
X013120Y018794D01*
X010397Y018794D01*
X010159Y018805D01*
X009673Y018715D01*
X009673Y018715D01*
X009220Y018516D01*
X009220Y018516D01*
X008824Y018219D01*
X008824Y018219D01*
X008824Y018219D01*
X008507Y017838D01*
X008402Y017629D01*
X008307Y017476D01*
X008064Y017206D01*
X007764Y016999D01*
X007425Y016867D01*
X007065Y016817D01*
X006883Y016824D01*
X006799Y016832D01*
X006674Y016844D01*
X006673Y016844D01*
X006799Y016832D02*
X006799Y016832D01*
X006265Y016744D02*
X006265Y016744D01*
X006129Y016656D02*
X004699Y016656D01*
X004137Y016656D02*
X003553Y016656D01*
X003501Y016604D02*
X003613Y016716D01*
X003674Y016862D01*
X003674Y017020D01*
X003613Y017166D01*
X003501Y017278D01*
X003355Y017339D01*
X003197Y017339D01*
X003051Y017278D01*
X002939Y017166D01*
X002879Y017020D01*
X002879Y016862D01*
X002939Y016716D01*
X003051Y016604D01*
X003197Y016544D01*
X003355Y016544D01*
X003501Y016604D01*
X003654Y016814D02*
X004039Y016814D01*
X004020Y016973D02*
X003674Y016973D01*
X003628Y017131D02*
X004068Y017131D01*
X004231Y017290D02*
X003473Y017290D01*
X003079Y017290D02*
X002811Y017290D01*
X002811Y017131D02*
X002925Y017131D01*
X002879Y016973D02*
X002811Y016973D01*
X002811Y016814D02*
X002899Y016814D01*
X002811Y016656D02*
X003000Y016656D01*
X002811Y016497D02*
X005897Y016497D01*
X005912Y016516D02*
X005912Y016516D01*
X005773Y016339D02*
X002811Y016339D01*
X002811Y016180D02*
X005652Y016180D01*
X005653Y016185D02*
X005653Y016185D01*
X005597Y016021D02*
X002811Y016021D01*
X002811Y015863D02*
X005543Y015863D01*
X005517Y015704D02*
X002811Y015704D01*
X002811Y015546D02*
X005517Y015546D01*
X005518Y015577D02*
X005518Y015577D01*
X005514Y015387D02*
X002811Y015387D01*
X002811Y015229D02*
X005511Y015229D01*
X005504Y015070D02*
X002811Y015070D01*
X002811Y014912D02*
X005493Y014912D01*
X005482Y014753D02*
X002811Y014753D01*
X002811Y014595D02*
X005469Y014595D01*
X005444Y014436D02*
X002811Y014436D01*
X002811Y014277D02*
X005407Y014277D01*
X005369Y014119D02*
X002811Y014119D01*
X002811Y013960D02*
X005301Y013960D01*
X005233Y013802D02*
X004651Y013802D01*
X004643Y013810D02*
X004497Y013870D01*
X004339Y013870D01*
X004193Y013810D01*
X004081Y013698D01*
X004020Y013552D01*
X004020Y013394D01*
X004081Y013247D01*
X004193Y013136D01*
X004339Y013075D01*
X004497Y013075D01*
X004643Y013136D01*
X004755Y013247D01*
X004815Y013394D01*
X004815Y013552D01*
X004755Y013698D01*
X004643Y013810D01*
X004777Y013643D02*
X005135Y013643D01*
X005030Y013485D02*
X004815Y013485D01*
X004787Y013326D02*
X004900Y013326D01*
X004704Y013168D02*
X004675Y013168D01*
X004631Y013108D02*
X004631Y013108D01*
X004488Y013009D02*
X002811Y013009D01*
X002811Y012851D02*
X003127Y012851D01*
X003023Y012692D02*
X002811Y012692D01*
X002811Y012534D02*
X002998Y012534D01*
X003035Y012375D02*
X002811Y012375D01*
X002811Y012216D02*
X003155Y012216D01*
X002811Y012058D02*
X015351Y012058D01*
X015208Y011934D02*
X015208Y011934D01*
X015584Y012260D01*
X015584Y012260D01*
X016018Y012504D01*
X016018Y012504D01*
X016492Y012658D01*
X016492Y012658D01*
X016506Y012660D01*
X016584Y012738D01*
X016701Y012787D01*
X016828Y012787D01*
X016945Y012738D01*
X017034Y012649D01*
X017082Y012532D01*
X017082Y012405D01*
X017034Y012288D01*
X016945Y012199D01*
X016828Y012151D01*
X016701Y012151D01*
X016584Y012199D01*
X016572Y012211D01*
X016200Y012090D01*
X015845Y011890D01*
X015547Y011633D01*
X015547Y011539D01*
X015499Y011422D01*
X015409Y011333D01*
X015292Y011284D01*
X015166Y011284D01*
X015049Y011333D01*
X014959Y011422D01*
X014911Y011539D01*
X014911Y011666D01*
X014959Y011783D01*
X015049Y011872D01*
X015166Y011921D01*
X015197Y011921D01*
X015208Y011934D01*
X015208Y011934D01*
X015114Y011899D02*
X002811Y011899D01*
X002811Y011741D02*
X014942Y011741D01*
X014911Y011582D02*
X002811Y011582D01*
X002811Y011424D02*
X014959Y011424D01*
X015499Y011424D02*
X020030Y011424D01*
X020060Y011405D02*
X020060Y011366D01*
X020109Y011249D01*
X020198Y011160D01*
X020315Y011111D01*
X020442Y011111D01*
X020482Y011128D01*
X020482Y010347D01*
X020587Y010241D01*
X020588Y010241D01*
X021506Y009323D01*
X021506Y006457D01*
X021499Y006474D01*
X021355Y006618D01*
X021168Y006695D01*
X021116Y006695D01*
X021255Y006753D01*
X021399Y006896D01*
X021476Y007084D01*
X021476Y007287D01*
X021399Y007474D01*
X021255Y007618D01*
X021068Y007695D01*
X020865Y007695D01*
X020677Y007618D01*
X020534Y007474D01*
X020464Y007306D01*
X020394Y007474D01*
X020251Y007618D01*
X020064Y007695D01*
X019861Y007695D01*
X019673Y007618D01*
X019530Y007474D01*
X019521Y007452D01*
X018792Y007632D01*
X018644Y007683D01*
X018609Y007767D01*
X018519Y007856D01*
X018402Y007905D01*
X018276Y007905D01*
X018159Y007856D01*
X018070Y007767D01*
X018021Y007650D01*
X018021Y007523D01*
X018070Y007407D01*
X018159Y007317D01*
X018276Y007269D01*
X018402Y007269D01*
X018518Y007317D01*
X018675Y007258D01*
X018675Y007258D01*
X019461Y007063D01*
X019530Y006896D01*
X019673Y006753D01*
X019861Y006675D01*
X019913Y006675D01*
X019773Y006618D01*
X019630Y006474D01*
X019552Y006287D01*
X019552Y006084D01*
X019630Y005896D01*
X019773Y005753D01*
X019913Y005695D01*
X019861Y005695D01*
X019673Y005618D01*
X019530Y005474D01*
X019452Y005287D01*
X019452Y005084D01*
X019530Y004896D01*
X019673Y004753D01*
X019861Y004675D01*
X020064Y004675D01*
X020251Y004753D01*
X020394Y004896D01*
X020472Y005084D01*
X020472Y005287D01*
X020394Y005474D01*
X020251Y005618D01*
X020112Y005675D01*
X020164Y005675D01*
X020351Y005753D01*
X020494Y005896D01*
X020564Y006065D01*
X020634Y005896D01*
X020777Y005753D01*
X020965Y005675D01*
X021168Y005675D01*
X021355Y005753D01*
X021499Y005896D01*
X021506Y005913D01*
X021506Y003042D01*
X002811Y003042D01*
X002811Y006594D01*
X002856Y006548D01*
X003016Y006482D01*
X003190Y006482D01*
X003350Y006548D01*
X003473Y006671D01*
X003539Y006831D01*
X003539Y007004D01*
X003473Y007164D01*
X003350Y007287D01*
X003190Y007353D01*
X003016Y007353D01*
X002856Y007287D01*
X002811Y007241D01*
X002811Y007656D01*
X002856Y007611D01*
X003016Y007545D01*
X003190Y007545D01*
X003350Y007611D01*
X003473Y007734D01*
X003539Y007894D01*
X003539Y008067D01*
X003473Y008227D01*
X003350Y008350D01*
X003190Y008416D01*
X003016Y008416D01*
X002856Y008350D01*
X002811Y008304D01*
X002811Y022249D01*
X009420Y022249D01*
X009176Y022109D01*
X008857Y021789D01*
X008631Y021398D01*
X008514Y020962D01*
X008514Y020511D01*
X008631Y020074D01*
X008857Y019683D01*
X009176Y019364D01*
X009567Y019138D01*
X010003Y019022D01*
X011636Y019022D01*
X012072Y019138D01*
X012463Y019364D01*
X012782Y019683D01*
X013008Y020074D01*
X013125Y020511D01*
X013125Y020962D01*
X013008Y021398D01*
X012782Y021789D01*
X012463Y022109D01*
X012219Y022249D01*
X020482Y022249D01*
X020482Y021609D01*
X020371Y021720D01*
X020184Y021798D01*
X019981Y021798D01*
X019793Y021720D01*
X019650Y021576D01*
X019572Y021389D01*
X019572Y021186D01*
X019650Y020999D01*
X019793Y020855D01*
X019981Y020778D01*
X020184Y020778D01*
X020482Y020778D01*
X020371Y020855D02*
X020482Y020966D01*
X020482Y019609D01*
X020371Y019720D01*
X020184Y019798D01*
X019981Y019798D01*
X019793Y019720D01*
X019650Y019576D01*
X019572Y019389D01*
X019572Y019186D01*
X019650Y018999D01*
X019793Y018855D01*
X019981Y018778D01*
X020184Y018778D01*
X020371Y018855D01*
X020482Y018966D01*
X020482Y017609D01*
X020371Y017720D01*
X020184Y017798D01*
X019981Y017798D01*
X019793Y017720D01*
X019650Y017576D01*
X019572Y017389D01*
X019572Y017186D01*
X019650Y016999D01*
X019793Y016855D01*
X019981Y016778D01*
X020184Y016778D01*
X020371Y016855D01*
X020482Y016966D01*
X020482Y015609D01*
X020371Y015720D01*
X020184Y015798D01*
X019981Y015798D01*
X019793Y015720D01*
X019650Y015576D01*
X019572Y015389D01*
X019572Y015186D01*
X019650Y014999D01*
X019793Y014855D01*
X019981Y014778D01*
X020184Y014778D01*
X020371Y014855D01*
X020482Y014966D01*
X020482Y011731D01*
X020442Y011747D01*
X020315Y011747D01*
X020268Y011728D01*
X020044Y011874D01*
X019130Y012381D01*
X018894Y012491D01*
X018894Y012493D01*
X018845Y012609D01*
X018756Y012699D01*
X018639Y012747D01*
X018512Y012747D01*
X018395Y012699D01*
X018306Y012609D01*
X018257Y012493D01*
X018257Y012366D01*
X018306Y012249D01*
X018395Y012160D01*
X018512Y012111D01*
X018639Y012111D01*
X018723Y012146D01*
X018953Y012034D01*
X019844Y011541D01*
X020060Y011405D01*
X020102Y011265D02*
X017355Y011265D01*
X017388Y011231D02*
X017299Y011321D01*
X017182Y011369D01*
X017055Y011369D01*
X016939Y011321D01*
X016849Y011231D01*
X016824Y011171D01*
X014603Y010591D01*
X014582Y010612D01*
X014465Y010661D01*
X014339Y010661D01*
X014222Y010612D01*
X014133Y010523D01*
X014084Y010406D01*
X014084Y010279D01*
X014133Y010162D01*
X014222Y010073D01*
X014339Y010025D01*
X014465Y010025D01*
X014582Y010073D01*
X014672Y010162D01*
X014697Y010223D01*
X016918Y010803D01*
X016939Y010782D01*
X017055Y010733D01*
X017182Y010733D01*
X017299Y010782D01*
X017388Y010871D01*
X017437Y010988D01*
X017437Y011115D01*
X017388Y011231D01*
X017437Y011107D02*
X020482Y011107D01*
X020482Y010948D02*
X017420Y010948D01*
X017307Y010790D02*
X020482Y010790D01*
X020482Y010631D02*
X016260Y010631D01*
X015970Y010948D02*
X002811Y010948D01*
X002811Y010790D02*
X015363Y010790D01*
X015652Y010472D02*
X020482Y010472D01*
X020515Y010314D02*
X015044Y010314D01*
X014665Y010155D02*
X020674Y010155D01*
X020832Y009997D02*
X002811Y009997D01*
X002811Y010155D02*
X014140Y010155D01*
X014084Y010314D02*
X002811Y010314D01*
X002811Y010472D02*
X014112Y010472D01*
X014267Y010631D02*
X002811Y010631D01*
X002811Y011107D02*
X016578Y011107D01*
X016883Y011265D02*
X002811Y011265D01*
X002811Y009838D02*
X020991Y009838D01*
X021149Y009680D02*
X002811Y009680D01*
X002811Y009521D02*
X021308Y009521D01*
X021466Y009363D02*
X004842Y009363D01*
X004897Y009308D02*
X004785Y009420D01*
X004639Y009480D01*
X004481Y009480D01*
X004335Y009420D01*
X004223Y009308D01*
X004162Y009162D01*
X004162Y009004D01*
X004223Y008858D01*
X004335Y008746D01*
X004481Y008685D01*
X004639Y008685D01*
X004785Y008746D01*
X004897Y008858D01*
X004957Y009004D01*
X004957Y009162D01*
X004897Y009308D01*
X004940Y009204D02*
X011767Y009204D01*
X011742Y009194D02*
X011610Y009062D01*
X011539Y008889D01*
X011539Y008702D01*
X011610Y008529D01*
X011742Y008397D01*
X011915Y008325D01*
X012102Y008325D01*
X012275Y008397D01*
X012407Y008529D01*
X012478Y008702D01*
X012478Y008889D01*
X012407Y009062D01*
X012275Y009194D01*
X012102Y009265D01*
X011915Y009265D01*
X011742Y009194D01*
X011603Y009046D02*
X004957Y009046D01*
X004909Y008887D02*
X011539Y008887D01*
X011539Y008728D02*
X004743Y008728D01*
X004376Y008728D02*
X002811Y008728D01*
X002811Y008570D02*
X011593Y008570D01*
X011728Y008411D02*
X004412Y008411D01*
X004386Y008437D02*
X004199Y008515D01*
X003996Y008515D01*
X003809Y008437D01*
X003665Y008294D01*
X003587Y008106D01*
X003587Y007903D01*
X003665Y007716D01*
X003809Y007572D01*
X003996Y007495D01*
X004199Y007495D01*
X004386Y007572D01*
X004530Y007716D01*
X004607Y007903D01*
X004607Y008106D01*
X004530Y008294D01*
X004386Y008437D01*
X004547Y008253D02*
X021506Y008253D01*
X021506Y008411D02*
X012289Y008411D01*
X012424Y008570D02*
X021506Y008570D01*
X021506Y008728D02*
X012478Y008728D01*
X012478Y008887D02*
X021506Y008887D01*
X021506Y009046D02*
X012414Y009046D01*
X012250Y009204D02*
X021506Y009204D01*
X021506Y008094D02*
X004607Y008094D01*
X004607Y007936D02*
X021506Y007936D01*
X021506Y007777D02*
X018599Y007777D01*
X018847Y007619D02*
X019676Y007619D01*
X019524Y007460D02*
X019488Y007460D01*
X019493Y006984D02*
X012471Y006984D01*
X012478Y006968D02*
X012407Y007140D01*
X012275Y007273D01*
X012102Y007344D01*
X011915Y007344D01*
X011742Y007273D01*
X011610Y007140D01*
X011539Y006968D01*
X011539Y006781D01*
X011610Y006608D01*
X011742Y006476D01*
X011915Y006404D01*
X012102Y006404D01*
X012275Y006476D01*
X012407Y006608D01*
X012478Y006781D01*
X012478Y006968D01*
X012478Y006826D02*
X019600Y006826D01*
X019665Y006509D02*
X012308Y006509D01*
X012432Y006667D02*
X019894Y006667D01*
X019579Y006350D02*
X002811Y006350D01*
X002811Y006192D02*
X019552Y006192D01*
X019573Y006033D02*
X002811Y006033D01*
X002811Y005875D02*
X019651Y005875D01*
X019862Y005716D02*
X002811Y005716D01*
X002811Y005558D02*
X019613Y005558D01*
X019499Y005399D02*
X002811Y005399D01*
X002811Y005241D02*
X019452Y005241D01*
X019453Y005082D02*
X002811Y005082D01*
X002811Y004923D02*
X019519Y004923D01*
X019661Y004765D02*
X002811Y004765D01*
X002811Y004606D02*
X005782Y004606D01*
X005828Y004625D02*
X005641Y004548D01*
X005497Y004404D01*
X005419Y004217D01*
X005419Y004165D01*
X005362Y004304D01*
X005218Y004448D01*
X005541Y004448D01*
X005450Y004289D02*
X005368Y004289D01*
X005218Y004448D02*
X005031Y004525D01*
X004828Y004525D01*
X004641Y004448D01*
X002811Y004448D01*
X002811Y004289D02*
X004491Y004289D01*
X004497Y004304D02*
X004419Y004117D01*
X004419Y003914D01*
X004497Y003726D01*
X004641Y003583D01*
X004828Y003505D01*
X005031Y003505D01*
X005218Y003583D01*
X005362Y003726D01*
X005439Y003914D01*
X005439Y003966D01*
X005497Y003826D01*
X005641Y003683D01*
X005828Y003605D01*
X006031Y003605D01*
X006218Y003683D01*
X006362Y003826D01*
X006419Y003966D01*
X006419Y003914D01*
X006497Y003726D01*
X006641Y003583D01*
X006828Y003505D01*
X007031Y003505D01*
X007218Y003583D01*
X007362Y003726D01*
X007439Y003914D01*
X007439Y003966D01*
X007497Y003826D01*
X007641Y003683D01*
X007828Y003605D01*
X008031Y003605D01*
X008218Y003683D01*
X008362Y003826D01*
X008419Y003966D01*
X008419Y003914D01*
X008497Y003726D01*
X008641Y003583D01*
X008828Y003505D01*
X009031Y003505D01*
X009218Y003583D01*
X009362Y003726D01*
X009439Y003914D01*
X009439Y003966D01*
X009497Y003826D01*
X009641Y003683D01*
X009828Y003605D01*
X010031Y003605D01*
X010218Y003683D01*
X010362Y003826D01*
X010419Y003966D01*
X010419Y003914D01*
X010497Y003726D01*
X010641Y003583D01*
X010828Y003505D01*
X011031Y003505D01*
X011218Y003583D01*
X011362Y003726D01*
X011439Y003914D01*
X011439Y003958D01*
X011494Y003826D01*
X011637Y003683D01*
X011825Y003605D01*
X012028Y003605D01*
X012215Y003683D01*
X012359Y003826D01*
X012416Y003965D01*
X012416Y003913D01*
X012494Y003726D01*
X012637Y003583D01*
X012825Y003505D01*
X013028Y003505D01*
X013215Y003583D01*
X013359Y003726D01*
X013436Y003913D01*
X013436Y003965D01*
X013494Y003826D01*
X013637Y003683D01*
X013825Y003605D01*
X014028Y003605D01*
X014215Y003683D01*
X014359Y003826D01*
X014416Y003965D01*
X014416Y003913D01*
X014494Y003726D01*
X014637Y003583D01*
X014825Y003505D01*
X015028Y003505D01*
X015215Y003583D01*
X015359Y003726D01*
X015436Y003913D01*
X015436Y003965D01*
X015494Y003826D01*
X015637Y003683D01*
X015825Y003605D01*
X016028Y003605D01*
X016215Y003683D01*
X016359Y003826D01*
X016416Y003965D01*
X016416Y003913D01*
X016494Y003726D01*
X016637Y003583D01*
X016825Y003505D01*
X017028Y003505D01*
X017215Y003583D01*
X017359Y003726D01*
X017436Y003913D01*
X017436Y003965D01*
X017494Y003826D01*
X017637Y003683D01*
X017825Y003605D01*
X018028Y003605D01*
X018215Y003683D01*
X018359Y003826D01*
X018436Y004013D01*
X018436Y004216D01*
X018359Y004404D01*
X018215Y004547D01*
X018028Y004625D01*
X017825Y004625D01*
X017637Y004547D01*
X017494Y004404D01*
X017416Y004216D01*
X017416Y004165D01*
X017359Y004304D01*
X017215Y004447D01*
X017028Y004525D01*
X016825Y004525D01*
X016637Y004447D01*
X016494Y004304D01*
X016436Y004165D01*
X016436Y004216D01*
X016359Y004404D01*
X016215Y004547D01*
X016028Y004625D01*
X015825Y004625D01*
X015637Y004547D01*
X015494Y004404D01*
X015416Y004216D01*
X015416Y004165D01*
X015359Y004304D01*
X015215Y004447D01*
X015028Y004525D01*
X014825Y004525D01*
X014637Y004447D01*
X014494Y004304D01*
X014436Y004165D01*
X014436Y004216D01*
X014359Y004404D01*
X014215Y004547D01*
X014028Y004625D01*
X013825Y004625D01*
X013637Y004547D01*
X013494Y004404D01*
X013416Y004216D01*
X013416Y004165D01*
X013359Y004304D01*
X013215Y004447D01*
X013028Y004525D01*
X012825Y004525D01*
X012637Y004447D01*
X012494Y004304D01*
X012436Y004165D01*
X012436Y004216D01*
X012359Y004404D01*
X012215Y004547D01*
X012028Y004625D01*
X011825Y004625D01*
X011637Y004547D01*
X011494Y004404D01*
X011416Y004216D01*
X011416Y004172D01*
X011362Y004304D01*
X011218Y004448D01*
X011538Y004448D01*
X011447Y004289D02*
X011368Y004289D01*
X011218Y004448D02*
X011031Y004525D01*
X010828Y004525D01*
X010641Y004448D01*
X010318Y004448D01*
X010362Y004404D02*
X010218Y004548D01*
X010031Y004625D01*
X009828Y004625D01*
X009641Y004548D01*
X009497Y004404D01*
X009419Y004217D01*
X009419Y004165D01*
X009362Y004304D01*
X009218Y004448D01*
X009541Y004448D01*
X009450Y004289D02*
X009368Y004289D01*
X009218Y004448D02*
X009031Y004525D01*
X008828Y004525D01*
X008641Y004448D01*
X008318Y004448D01*
X008362Y004404D02*
X008218Y004548D01*
X008031Y004625D01*
X007828Y004625D01*
X007641Y004548D01*
X007497Y004404D01*
X007419Y004217D01*
X007419Y004165D01*
X007362Y004304D01*
X007218Y004448D01*
X007541Y004448D01*
X007450Y004289D02*
X007368Y004289D01*
X007218Y004448D02*
X007031Y004525D01*
X006828Y004525D01*
X006641Y004448D01*
X006318Y004448D01*
X006362Y004404D02*
X006218Y004548D01*
X006031Y004625D01*
X005828Y004625D01*
X006077Y004606D02*
X007782Y004606D01*
X008077Y004606D02*
X009782Y004606D01*
X010077Y004606D02*
X011780Y004606D01*
X012073Y004606D02*
X013780Y004606D01*
X013538Y004448D02*
X013214Y004448D01*
X013365Y004289D02*
X013447Y004289D01*
X013395Y003814D02*
X013506Y003814D01*
X013704Y003655D02*
X013288Y003655D01*
X012565Y003655D02*
X012149Y003655D01*
X012346Y003814D02*
X012458Y003814D01*
X012488Y004289D02*
X012406Y004289D01*
X012315Y004448D02*
X012639Y004448D01*
X011704Y003655D02*
X011290Y003655D01*
X011398Y003814D02*
X011506Y003814D01*
X010568Y003655D02*
X010151Y003655D01*
X010349Y003814D02*
X010461Y003814D01*
X010439Y004165D02*
X010439Y004217D01*
X010362Y004404D01*
X010409Y004289D02*
X010491Y004289D01*
X010497Y004304D02*
X010439Y004165D01*
X010497Y004304D02*
X010641Y004448D01*
X009708Y003655D02*
X009290Y003655D01*
X009398Y003814D02*
X009510Y003814D01*
X008568Y003655D02*
X008151Y003655D01*
X008349Y003814D02*
X008461Y003814D01*
X008439Y004165D02*
X008439Y004217D01*
X008362Y004404D01*
X008409Y004289D02*
X008491Y004289D01*
X008497Y004304D02*
X008439Y004165D01*
X008497Y004304D02*
X008641Y004448D01*
X007708Y003655D02*
X007290Y003655D01*
X007398Y003814D02*
X007510Y003814D01*
X006568Y003655D02*
X006151Y003655D01*
X006349Y003814D02*
X006461Y003814D01*
X006439Y004165D02*
X006439Y004217D01*
X006362Y004404D01*
X006409Y004289D02*
X006491Y004289D01*
X006497Y004304D02*
X006439Y004165D01*
X006497Y004304D02*
X006641Y004448D01*
X005708Y003655D02*
X005290Y003655D01*
X005398Y003814D02*
X005510Y003814D01*
X004568Y003655D02*
X002811Y003655D01*
X002811Y003497D02*
X021506Y003497D01*
X021506Y003655D02*
X018149Y003655D01*
X018346Y003814D02*
X021506Y003814D01*
X021506Y003972D02*
X018419Y003972D01*
X018436Y004131D02*
X021506Y004131D01*
X021506Y004289D02*
X018406Y004289D01*
X018315Y004448D02*
X021506Y004448D01*
X021506Y004606D02*
X018073Y004606D01*
X017780Y004606D02*
X016073Y004606D01*
X016315Y004448D02*
X016639Y004448D01*
X016488Y004289D02*
X016406Y004289D01*
X016458Y003814D02*
X016346Y003814D01*
X016149Y003655D02*
X016565Y003655D01*
X017288Y003655D02*
X017704Y003655D01*
X017506Y003814D02*
X017395Y003814D01*
X017365Y004289D02*
X017447Y004289D01*
X017538Y004448D02*
X017214Y004448D01*
X015780Y004606D02*
X014073Y004606D01*
X014315Y004448D02*
X014639Y004448D01*
X014488Y004289D02*
X014406Y004289D01*
X014458Y003814D02*
X014346Y003814D01*
X014149Y003655D02*
X014565Y003655D01*
X015288Y003655D02*
X015704Y003655D01*
X015506Y003814D02*
X015395Y003814D01*
X015365Y004289D02*
X015447Y004289D01*
X015538Y004448D02*
X015214Y004448D01*
X012404Y007143D02*
X019138Y007143D01*
X018558Y007302D02*
X018482Y007302D01*
X018196Y007302D02*
X012205Y007302D01*
X011812Y007302D02*
X003315Y007302D01*
X003481Y007143D02*
X011613Y007143D01*
X011546Y006984D02*
X003539Y006984D01*
X003537Y006826D02*
X011539Y006826D01*
X011585Y006667D02*
X003469Y006667D01*
X003256Y006509D02*
X011709Y006509D01*
X014537Y010631D02*
X014755Y010631D01*
X015547Y011582D02*
X019768Y011582D01*
X019483Y011741D02*
X015672Y011741D01*
X015862Y011899D02*
X019197Y011899D01*
X019427Y012216D02*
X020482Y012216D01*
X020482Y012058D02*
X019713Y012058D01*
X019999Y011899D02*
X020482Y011899D01*
X020482Y011741D02*
X020458Y011741D01*
X020299Y011741D02*
X020249Y011741D01*
X020482Y012375D02*
X019141Y012375D01*
X018877Y012534D02*
X020482Y012534D01*
X020482Y012692D02*
X018762Y012692D01*
X018388Y012692D02*
X016991Y012692D01*
X017082Y012534D02*
X018274Y012534D01*
X018257Y012375D02*
X017070Y012375D01*
X016962Y012216D02*
X018338Y012216D01*
X018905Y012058D02*
X016143Y012058D01*
X015789Y012375D02*
X013707Y012375D01*
X013688Y012328D02*
X013736Y012445D01*
X013736Y012571D01*
X013688Y012688D01*
X013598Y012778D01*
X013481Y012826D01*
X013469Y012826D01*
X013402Y013006D01*
X013364Y013290D01*
X013371Y013434D01*
X013371Y013439D01*
X013379Y013512D01*
X013379Y013512D01*
X013406Y013787D01*
X013373Y014362D01*
X013392Y014370D01*
X013535Y014513D01*
X013593Y014653D01*
X013593Y014601D01*
X013671Y014413D01*
X013814Y014270D01*
X014001Y014192D01*
X014204Y014192D01*
X014392Y014270D01*
X014535Y014413D01*
X014613Y014601D01*
X014613Y014653D01*
X014671Y014513D01*
X014814Y014370D01*
X015001Y014292D01*
X015204Y014292D01*
X015392Y014370D01*
X015535Y014513D01*
X015593Y014653D01*
X015593Y014601D01*
X015671Y014413D01*
X015814Y014270D01*
X016001Y014192D01*
X016204Y014192D01*
X016392Y014270D01*
X016535Y014413D01*
X016613Y014601D01*
X016613Y014653D01*
X016671Y014513D01*
X016814Y014370D01*
X017001Y014292D01*
X017204Y014292D01*
X017392Y014370D01*
X017535Y014513D01*
X017613Y014701D01*
X017613Y014904D01*
X017535Y015091D01*
X017392Y015234D01*
X017204Y015312D01*
X017001Y015312D01*
X016814Y015234D01*
X016671Y015091D01*
X016593Y014904D01*
X016593Y014852D01*
X016535Y014991D01*
X016392Y015134D01*
X016204Y015212D01*
X016001Y015212D01*
X015814Y015134D01*
X015671Y014991D01*
X015613Y014852D01*
X015613Y014904D01*
X015535Y015091D01*
X015392Y015234D01*
X015204Y015312D01*
X015001Y015312D01*
X014814Y015234D01*
X014671Y015091D01*
X014593Y014904D01*
X014593Y014852D01*
X014535Y014991D01*
X014392Y015134D01*
X014204Y015212D01*
X014001Y015212D01*
X013814Y015134D01*
X013671Y014991D01*
X013613Y014852D01*
X013613Y014904D01*
X013535Y015091D01*
X013392Y015234D01*
X013204Y015312D01*
X013001Y015312D01*
X012814Y015234D01*
X012671Y015091D01*
X012593Y014904D01*
X012593Y014701D01*
X012671Y014513D01*
X012814Y014370D01*
X012983Y014300D01*
X013012Y013796D01*
X012993Y013473D01*
X012993Y013472D01*
X012974Y013285D01*
X013022Y012911D01*
X013126Y012635D01*
X013100Y012571D01*
X013100Y012445D01*
X013148Y012328D01*
X013238Y012238D01*
X013355Y012190D01*
X013481Y012190D01*
X013598Y012238D01*
X013688Y012328D01*
X013545Y012216D02*
X015534Y012216D01*
X016108Y012534D02*
X013736Y012534D01*
X013684Y012692D02*
X016538Y012692D01*
X016662Y013568D02*
X016788Y013568D01*
X016905Y013616D01*
X016995Y013706D01*
X017043Y013823D01*
X017043Y013949D01*
X016995Y014066D01*
X016905Y014156D01*
X016788Y014204D01*
X016662Y014204D01*
X016545Y014156D01*
X016455Y014066D01*
X016427Y013997D01*
X014755Y013511D01*
X014740Y013526D01*
X014623Y013574D01*
X014496Y013574D01*
X014379Y013526D01*
X014290Y013436D01*
X014242Y013319D01*
X014242Y013193D01*
X014290Y013076D01*
X014379Y012986D01*
X014496Y012938D01*
X014623Y012938D01*
X014740Y012986D01*
X014829Y013076D01*
X014858Y013145D01*
X016530Y013631D01*
X016545Y013616D01*
X016662Y013568D01*
X016932Y013643D02*
X020482Y013643D01*
X020482Y013485D02*
X016026Y013485D01*
X015756Y013802D02*
X013406Y013802D01*
X013406Y013787D02*
X013406Y013787D01*
X013392Y013643D02*
X015211Y013643D01*
X015481Y013326D02*
X020482Y013326D01*
X020482Y013168D02*
X014936Y013168D01*
X014763Y013009D02*
X020482Y013009D01*
X020482Y012851D02*
X013460Y012851D01*
X013401Y013009D02*
X014357Y013009D01*
X014252Y013168D02*
X013381Y013168D01*
X013366Y013326D02*
X014244Y013326D01*
X014339Y013485D02*
X013376Y013485D01*
X013371Y013434D02*
X013371Y013434D01*
X012994Y013485D02*
X006020Y013485D01*
X005972Y013373D02*
X005972Y013373D01*
X005941Y013326D02*
X012978Y013326D01*
X012974Y013285D02*
X012974Y013285D01*
X012989Y013168D02*
X005837Y013168D01*
X005733Y013009D02*
X013010Y013009D01*
X013022Y012911D02*
X013022Y012911D01*
X013045Y012851D02*
X005607Y012851D01*
X005678Y012926D02*
X005678Y012926D01*
X005458Y012692D02*
X013105Y012692D01*
X013100Y012534D02*
X005270Y012534D01*
X005067Y012375D02*
X013129Y012375D01*
X013291Y012216D02*
X004823Y012216D01*
X004161Y013168D02*
X003529Y013168D01*
X003501Y013140D02*
X003613Y013251D01*
X003674Y013397D01*
X003674Y013556D01*
X003613Y013702D01*
X003501Y013813D01*
X003355Y013874D01*
X003197Y013874D01*
X003051Y013813D01*
X002939Y013702D01*
X002879Y013556D01*
X002879Y013397D01*
X002939Y013251D01*
X003051Y013140D01*
X003197Y013079D01*
X003355Y013079D01*
X003501Y013140D01*
X003644Y013326D02*
X004048Y013326D01*
X004020Y013485D02*
X003674Y013485D01*
X003637Y013643D02*
X004058Y013643D01*
X004185Y013802D02*
X003513Y013802D01*
X003039Y013802D02*
X002811Y013802D01*
X002811Y013643D02*
X002915Y013643D01*
X002879Y013485D02*
X002811Y013485D01*
X002811Y013326D02*
X002908Y013326D01*
X002811Y013168D02*
X003023Y013168D01*
X006088Y013643D02*
X013003Y013643D01*
X013012Y013802D02*
X006156Y013802D01*
X006182Y013864D02*
X006182Y013864D01*
X006205Y013960D02*
X013003Y013960D01*
X012994Y014119D02*
X006242Y014119D01*
X006279Y014277D02*
X012984Y014277D01*
X012748Y014436D02*
X006306Y014436D01*
X006315Y014595D02*
X012637Y014595D01*
X012593Y014753D02*
X006327Y014753D01*
X006341Y014912D02*
X012596Y014912D01*
X012662Y015070D02*
X006356Y015070D01*
X006359Y015229D02*
X012808Y015229D01*
X013398Y015229D02*
X014808Y015229D01*
X014662Y015070D02*
X014456Y015070D01*
X014568Y014912D02*
X014596Y014912D01*
X014610Y014595D02*
X014637Y014595D01*
X014545Y014436D02*
X014748Y014436D01*
X014400Y014277D02*
X015806Y014277D01*
X015661Y014436D02*
X015458Y014436D01*
X015569Y014595D02*
X015595Y014595D01*
X015610Y014912D02*
X015638Y014912D01*
X015544Y015070D02*
X015750Y015070D01*
X015398Y015229D02*
X016808Y015229D01*
X016662Y015070D02*
X016456Y015070D01*
X016568Y014912D02*
X016596Y014912D01*
X016610Y014595D02*
X016637Y014595D01*
X016545Y014436D02*
X016748Y014436D01*
X016400Y014277D02*
X020482Y014277D01*
X020482Y014119D02*
X016942Y014119D01*
X017039Y013960D02*
X020482Y013960D01*
X020482Y013802D02*
X017034Y013802D01*
X016508Y014119D02*
X013387Y014119D01*
X013378Y014277D02*
X013806Y014277D01*
X013661Y014436D02*
X013458Y014436D01*
X013569Y014595D02*
X013595Y014595D01*
X013610Y014912D02*
X013638Y014912D01*
X013544Y015070D02*
X013750Y015070D01*
X013396Y013960D02*
X016301Y013960D01*
X017458Y014436D02*
X020482Y014436D01*
X020482Y014595D02*
X017569Y014595D01*
X017613Y014753D02*
X020482Y014753D01*
X020482Y014912D02*
X020427Y014912D01*
X019737Y014912D02*
X017610Y014912D01*
X017544Y015070D02*
X019620Y015070D01*
X019572Y015229D02*
X017398Y015229D01*
X016333Y016973D02*
X019676Y016973D01*
X019595Y017131D02*
X016687Y017131D01*
X016924Y017290D02*
X019572Y017290D01*
X019597Y017448D02*
X017083Y017448D01*
X017220Y017607D02*
X019680Y017607D01*
X019903Y017765D02*
X017312Y017765D01*
X017403Y017924D02*
X020482Y017924D01*
X020482Y018083D02*
X017453Y018083D01*
X017496Y018241D02*
X020482Y018241D01*
X020482Y018400D02*
X017534Y018400D01*
X017534Y018558D02*
X020482Y018558D01*
X020482Y018717D02*
X017534Y018717D01*
X017524Y018875D02*
X019773Y018875D01*
X019635Y019034D02*
X017481Y019034D01*
X017439Y019192D02*
X019572Y019192D01*
X019572Y019351D02*
X017372Y019351D01*
X017281Y019509D02*
X019622Y019509D01*
X019741Y019668D02*
X017187Y019668D01*
X017028Y019826D02*
X020482Y019826D01*
X020482Y019668D02*
X020423Y019668D01*
X020482Y019985D02*
X016868Y019985D01*
X016594Y020144D02*
X017411Y020144D01*
X017461Y020123D02*
X017461Y020123D01*
X017581Y020123D01*
X017581Y020123D01*
X017631Y020123D01*
X017650Y020123D01*
X017680Y020123D01*
X017800Y020123D01*
X018112Y020252D01*
X018351Y020491D01*
X018351Y020491D01*
X018480Y020804D01*
X018480Y021142D01*
X018351Y021454D01*
X018112Y021693D01*
X017800Y021823D01*
X017800Y021823D01*
X017680Y021823D01*
X017631Y021823D01*
X017630Y021823D01*
X017581Y021823D01*
X017581Y021823D01*
X017461Y021823D01*
X017149Y021693D01*
X016910Y021454D01*
X016781Y021142D01*
X016781Y020804D01*
X016781Y020804D01*
X016910Y020491D01*
X017149Y020252D01*
X017149Y020252D01*
X017149Y020252D01*
X017461Y020123D01*
X017680Y020123D02*
X017680Y020123D01*
X017800Y020123D02*
X017800Y020123D01*
X017850Y020144D02*
X020482Y020144D01*
X020482Y020302D02*
X018162Y020302D01*
X018112Y020252D02*
X018112Y020252D01*
X018321Y020461D02*
X020482Y020461D01*
X020482Y020619D02*
X018404Y020619D01*
X018470Y020778D02*
X019980Y020778D01*
X020184Y020778D02*
X020371Y020855D01*
X020452Y020936D02*
X020482Y020936D01*
X019712Y020936D02*
X018480Y020936D01*
X018480Y020804D02*
X018480Y020804D01*
X018480Y021095D02*
X019610Y021095D01*
X019572Y021253D02*
X018434Y021253D01*
X018480Y021142D02*
X018480Y021142D01*
X018369Y021412D02*
X019582Y021412D01*
X019647Y021570D02*
X018235Y021570D01*
X018351Y021454D02*
X018351Y021454D01*
X018112Y021693D02*
X018112Y021693D01*
X018025Y021729D02*
X019815Y021729D01*
X020349Y021729D02*
X020482Y021729D01*
X020482Y021888D02*
X012684Y021888D01*
X012817Y021729D02*
X017236Y021729D01*
X017149Y021693D02*
X017149Y021693D01*
X017026Y021570D02*
X012909Y021570D01*
X013000Y021412D02*
X016893Y021412D01*
X016910Y021454D02*
X016910Y021454D01*
X016827Y021253D02*
X013047Y021253D01*
X013089Y021095D02*
X016781Y021095D01*
X016781Y020936D02*
X013125Y020936D01*
X013125Y020778D02*
X016791Y020778D01*
X016857Y020619D02*
X013125Y020619D01*
X013111Y020461D02*
X016940Y020461D01*
X016910Y020491D02*
X016910Y020491D01*
X017099Y020302D02*
X016131Y020302D01*
X014524Y020302D02*
X013069Y020302D01*
X013026Y020144D02*
X014061Y020144D01*
X013787Y019985D02*
X012956Y019985D01*
X012865Y019826D02*
X013626Y019826D01*
X013468Y019668D02*
X012767Y019668D01*
X012608Y019509D02*
X013374Y019509D01*
X013283Y019351D02*
X012440Y019351D01*
X012165Y019192D02*
X013216Y019192D01*
X013173Y019034D02*
X011681Y019034D01*
X010159Y018805D02*
X010159Y018805D01*
X009958Y019034D02*
X008505Y019034D01*
X008463Y019192D02*
X009474Y019192D01*
X009199Y019351D02*
X008396Y019351D01*
X008304Y019509D02*
X009031Y019509D01*
X008872Y019668D02*
X008211Y019668D01*
X008052Y019826D02*
X008774Y019826D01*
X008683Y019985D02*
X007892Y019985D01*
X007617Y020144D02*
X008612Y020144D01*
X008570Y020302D02*
X007155Y020302D01*
X008514Y020619D02*
X004726Y020619D01*
X004690Y020531D02*
X004819Y020843D01*
X004819Y021181D01*
X004690Y021493D01*
X004690Y021493D01*
X004451Y021732D01*
X004451Y021732D01*
X004138Y021862D01*
X004019Y021862D01*
X003969Y021862D01*
X003967Y021862D01*
X003919Y021862D01*
X003800Y021862D01*
X003488Y021732D01*
X003488Y021732D01*
X003249Y021493D01*
X003119Y021181D01*
X003119Y020843D01*
X003119Y020843D01*
X003249Y020531D01*
X003249Y020530D01*
X003488Y020291D01*
X003800Y020162D01*
X003800Y020162D01*
X003919Y020162D01*
X003919Y020162D01*
X003969Y020162D01*
X004019Y020162D01*
X004138Y020162D01*
X004451Y020291D01*
X004690Y020530D01*
X004690Y020531D01*
X004690Y020530D02*
X004690Y020530D01*
X004620Y020461D02*
X008528Y020461D01*
X008514Y020778D02*
X004792Y020778D01*
X004819Y020843D02*
X004819Y020843D01*
X004819Y020936D02*
X008514Y020936D01*
X008550Y021095D02*
X004819Y021095D01*
X004819Y021181D02*
X004819Y021181D01*
X004789Y021253D02*
X008592Y021253D01*
X008639Y021412D02*
X004723Y021412D01*
X004613Y021570D02*
X008730Y021570D01*
X008822Y021729D02*
X004454Y021729D01*
X004138Y021862D02*
X004138Y021862D01*
X004019Y021862D02*
X004019Y021862D01*
X003919Y021862D02*
X003919Y021862D01*
X003800Y021862D02*
X003800Y021862D01*
X003484Y021729D02*
X002811Y021729D01*
X002811Y021888D02*
X008955Y021888D01*
X009114Y022046D02*
X002811Y022046D01*
X002811Y022205D02*
X009343Y022205D01*
X012296Y022205D02*
X020482Y022205D01*
X020482Y022046D02*
X012525Y022046D01*
X013131Y018875D02*
X008547Y018875D01*
X008558Y018717D02*
X009680Y018717D01*
X009315Y018558D02*
X008558Y018558D01*
X008558Y018400D02*
X009065Y018400D01*
X008854Y018241D02*
X008519Y018241D01*
X008477Y018083D02*
X008711Y018083D01*
X008579Y017924D02*
X008427Y017924D01*
X008507Y017838D02*
X008507Y017838D01*
X008471Y017765D02*
X008335Y017765D01*
X008389Y017607D02*
X008244Y017607D01*
X008282Y017448D02*
X008106Y017448D01*
X008139Y017290D02*
X007948Y017290D01*
X007955Y017131D02*
X007711Y017131D01*
X007695Y016973D02*
X007357Y016973D01*
X007517Y016021D02*
X020482Y016021D01*
X020482Y015863D02*
X006475Y015863D01*
X006382Y015704D02*
X019778Y015704D01*
X019637Y015546D02*
X006358Y015546D01*
X006358Y015497D02*
X006358Y015497D01*
X006358Y015387D02*
X019572Y015387D01*
X020386Y015704D02*
X020482Y015704D01*
X020482Y016180D02*
X008004Y016180D01*
X008166Y016243D02*
X008166Y016243D01*
X008304Y016339D02*
X020482Y016339D01*
X020482Y016497D02*
X008533Y016497D01*
X008629Y016563D02*
X008629Y016563D01*
X008712Y016656D02*
X020482Y016656D01*
X020482Y016814D02*
X020272Y016814D01*
X019892Y016814D02*
X008855Y016814D01*
X008998Y016973D02*
X014322Y016973D01*
X013968Y017131D02*
X009088Y017131D01*
X009006Y016981D02*
X009006Y016981D01*
X009176Y017290D02*
X013731Y017290D01*
X013572Y017448D02*
X009287Y017448D01*
X009422Y017607D02*
X013435Y017607D01*
X013343Y017765D02*
X009633Y017765D01*
X010059Y017924D02*
X013251Y017924D01*
X017461Y021823D02*
X017461Y021823D01*
X017680Y021823D02*
X017680Y021823D01*
X020391Y018875D02*
X020482Y018875D01*
X020482Y017765D02*
X020261Y017765D01*
X016931Y010790D02*
X016868Y010790D01*
X016764Y012469D02*
X016659Y012454D01*
X016554Y012434D01*
X016450Y012410D01*
X016348Y012381D01*
X016247Y012346D01*
X016148Y012308D01*
X016051Y012264D01*
X015955Y012216D01*
X015863Y012164D01*
X015772Y012107D01*
X015685Y012047D01*
X015600Y011982D01*
X015519Y011913D01*
X015441Y011841D01*
X015366Y011765D01*
X015295Y011685D01*
X015228Y011603D01*
X018080Y007777D02*
X004555Y007777D01*
X004433Y007619D02*
X018021Y007619D01*
X018047Y007460D02*
X002811Y007460D01*
X002811Y007302D02*
X002891Y007302D01*
X002848Y007619D02*
X002811Y007619D01*
X003358Y007619D02*
X003762Y007619D01*
X003640Y007777D02*
X003491Y007777D01*
X003539Y007936D02*
X003587Y007936D01*
X003587Y008094D02*
X003528Y008094D01*
X003447Y008253D02*
X003648Y008253D01*
X003783Y008411D02*
X003202Y008411D01*
X003004Y008411D02*
X002811Y008411D01*
X002811Y008887D02*
X004211Y008887D01*
X004162Y009046D02*
X002811Y009046D01*
X002811Y009204D02*
X004180Y009204D01*
X004277Y009363D02*
X002811Y009363D01*
X002811Y006509D02*
X002950Y006509D01*
X004641Y004448D02*
X004497Y004304D01*
X004425Y004131D02*
X002811Y004131D01*
X002811Y003972D02*
X004419Y003972D01*
X004461Y003814D02*
X002811Y003814D01*
X002811Y003338D02*
X021506Y003338D01*
X021506Y003179D02*
X002811Y003179D01*
X007084Y015961D02*
X007084Y015961D01*
X006887Y015980D02*
X006887Y015980D01*
X004810Y019985D02*
X002811Y019985D01*
X002811Y020144D02*
X005085Y020144D01*
X005547Y020302D02*
X004461Y020302D01*
X004019Y020162D02*
X004019Y020162D01*
X003488Y020291D02*
X003488Y020291D01*
X003477Y020302D02*
X002811Y020302D01*
X002811Y020461D02*
X003318Y020461D01*
X003212Y020619D02*
X002811Y020619D01*
X002811Y020778D02*
X003146Y020778D01*
X003119Y020936D02*
X002811Y020936D01*
X002811Y021095D02*
X003119Y021095D01*
X003119Y021181D02*
X003119Y021181D01*
X003149Y021253D02*
X002811Y021253D01*
X002811Y021412D02*
X003215Y021412D01*
X003249Y021493D02*
X003249Y021493D01*
X003326Y021570D02*
X002811Y021570D01*
X020248Y007619D02*
X020680Y007619D01*
X020528Y007460D02*
X020400Y007460D01*
X021252Y007619D02*
X021506Y007619D01*
X021506Y007460D02*
X021404Y007460D01*
X021470Y007302D02*
X021506Y007302D01*
X021506Y007143D02*
X021476Y007143D01*
X021506Y006984D02*
X021435Y006984D01*
X021506Y006826D02*
X021328Y006826D01*
X021235Y006667D02*
X021506Y006667D01*
X021506Y006509D02*
X021464Y006509D01*
X021477Y005875D02*
X021506Y005875D01*
X021506Y005716D02*
X021267Y005716D01*
X021506Y005558D02*
X020311Y005558D01*
X020262Y005716D02*
X020866Y005716D01*
X020656Y005875D02*
X020473Y005875D01*
X020551Y006033D02*
X020577Y006033D01*
X020426Y005399D02*
X021506Y005399D01*
X021506Y005241D02*
X020472Y005241D01*
X020471Y005082D02*
X021506Y005082D01*
X021506Y004923D02*
X020406Y004923D01*
X020263Y004765D02*
X021506Y004765D01*
D17*
X008418Y006996D03*
D18*
X010229Y007823D03*
X013772Y009477D03*
X015032Y009870D03*
X016253Y008925D03*
X016213Y008374D03*
X018457Y008689D03*
X020150Y009634D03*
X014520Y016169D03*
X017276Y016642D03*
X010190Y015146D03*
X009875Y014673D03*
X009599Y014240D03*
X010190Y014240D03*
X009599Y015146D03*
X010190Y012941D03*
X006509Y013776D03*
X006607Y014752D03*
X005308Y016524D03*
X006091Y012788D03*
X005898Y010973D03*
D19*
X013418Y012508D03*
X014560Y013256D03*
X015229Y011603D03*
X014402Y010343D03*
X016764Y012469D03*
X016725Y013886D03*
X018575Y012429D03*
X017119Y011051D03*
X020379Y011429D03*
X018339Y007587D03*
D20*
X017119Y011051D02*
X014402Y010343D01*
X014560Y013256D02*
X016725Y013886D01*
X013182Y013453D02*
X013177Y013382D01*
X013175Y013311D01*
X013177Y013240D01*
X013182Y013169D01*
X013190Y013099D01*
X013202Y013029D01*
X013218Y012960D01*
X013237Y012891D01*
X013259Y012824D01*
X013285Y012758D01*
X013313Y012693D01*
X013345Y012630D01*
X013380Y012568D01*
X013418Y012508D01*
X013181Y013453D02*
X013196Y013646D01*
X013203Y013840D01*
X013200Y014033D01*
X013189Y014227D01*
X013169Y014420D01*
X013140Y014612D01*
X013103Y014802D01*
X018339Y007586D02*
X018656Y007476D01*
X018977Y007380D01*
X019302Y007300D01*
X019631Y007235D01*
X019962Y007185D01*
X020379Y011429D02*
X019794Y011791D01*
X019193Y012125D01*
X018576Y012429D01*
D21*
X015820Y018610D02*
X014835Y018610D01*
X011410Y020736D02*
X010229Y020736D01*
X006843Y018610D02*
X005859Y018610D01*
D22*
X006843Y016406D02*
X006939Y016399D01*
X007035Y016397D01*
X007132Y016400D01*
X007228Y016407D01*
X007323Y016419D01*
X007418Y016435D01*
X007512Y016456D01*
X007605Y016482D01*
X007697Y016512D01*
X007787Y016547D01*
X007875Y016586D01*
X007961Y016629D01*
X008045Y016676D01*
X008126Y016727D01*
X008205Y016782D01*
X008282Y016841D01*
X008355Y016904D01*
X008425Y016970D01*
X008492Y017039D01*
X008556Y017111D01*
X008615Y017187D01*
X008672Y017265D01*
X008724Y017346D01*
X008772Y017429D01*
X008811Y017502D01*
X008853Y017573D01*
X008898Y017642D01*
X008947Y017708D01*
X008999Y017772D01*
X009053Y017834D01*
X009111Y017893D01*
X009172Y017948D01*
X009235Y018001D01*
X009301Y018051D01*
X009369Y018098D01*
X009439Y018141D01*
X009511Y018181D01*
X009585Y018218D01*
X009660Y018250D01*
X009737Y018280D01*
X009816Y018305D01*
X009895Y018327D01*
X009976Y018344D01*
X010057Y018358D01*
X010139Y018368D01*
X010221Y018374D01*
X010304Y018376D01*
X010386Y018374D01*
X013812Y018374D01*
X013918Y018376D01*
X014024Y018384D01*
X014129Y018396D01*
X014234Y018412D01*
X014337Y018434D01*
X014440Y018460D01*
X014541Y018491D01*
X014641Y018526D01*
X014739Y018566D01*
X014836Y018610D01*
X006843Y016406D02*
X006788Y016410D01*
X006733Y016409D01*
X006677Y016405D01*
X006623Y016398D01*
X006569Y016386D01*
X006515Y016371D01*
X006463Y016353D01*
X006413Y016331D01*
X006363Y016306D01*
X006316Y016278D01*
X006271Y016246D01*
X006227Y016212D01*
X006187Y016175D01*
X006148Y016135D01*
X006113Y016092D01*
X006080Y016048D01*
X006051Y016001D01*
X006024Y015952D01*
X006001Y015902D01*
X005982Y015851D01*
X005966Y015798D01*
X005953Y015744D01*
X005944Y015689D01*
X005939Y015634D01*
X005937Y015579D01*
X005898Y014673D02*
X005889Y014551D01*
X005874Y014430D01*
X005853Y014309D01*
X005827Y014189D01*
X005795Y014071D01*
X005757Y013955D01*
X005715Y013840D01*
X005666Y013727D01*
X005613Y013617D01*
X005554Y013510D01*
X005491Y013405D01*
X005422Y013303D01*
X005349Y013205D01*
X005272Y013110D01*
X005190Y013019D01*
X004560Y012547D02*
X003418Y012547D01*
X005899Y014674D02*
X005929Y015126D01*
X005938Y015579D01*
X005190Y013020D02*
X004987Y012852D01*
X004777Y012695D01*
X004560Y012547D01*
M02*
